Monoto-Bold.ufo
<glyph name="numbersign" format="2">
  <advance width="500"/>
  <unicode hex="0023"/>
  <outline>
    <contour>
      <point x="65" y="0" type="line"/>
      <point x="166" y="0" type="line"/>
      <point x="192" y="196" type="line"/>
      <point x="262" y="196" type="line"/>
      <point x="234" y="0" type="line"/>
      <point x="336" y="0" type="line"/>
      <point x="364" y="196" type="line"/>
      <point x="468" y="196" type="line"/>
      <point x="468" y="295" type="line"/>
      <point x="377" y="295" type="line"/>
      <point x="393" y="420" type="line"/>
      <point x="492" y="420" type="line"/>
      <point x="492" y="522" type="line"/>
      <point x="407" y="522" type="line"/>
      <point x="434" y="714" type="line"/>
      <point x="333" y="714" type="line"/>
      <point x="307" y="522" type="line"/>
      <point x="237" y="522" type="line"/>
      <point x="265" y="714" type="line"/>
      <point x="164" y="714" type="line"/>
      <point x="137" y="522" type="line"/>
      <point x="32" y="522" type="line"/>
      <point x="32" y="420" type="line"/>
      <point x="122" y="420" type="line"/>
      <point x="106" y="295" type="line"/>
      <point x="8" y="295" type="line"/>
      <point x="8" y="196" type="line"/>
      <point x="92" y="196" type="line"/>
    </contour>
    <contour>
      <point x="207" y="295" type="line"/>
      <point x="223" y="420" type="line"/>
      <point x="292" y="420" type="line"/>
      <point x="276" y="295" type="line"/>
    </contour>
  </outline>
</glyph>
<glyph name="quotesingle" format="2">
  <advance width="500"/>
  <unicode hex="0027"/>
  <outline>
    <contour>
      <point x="190" y="456" type="line"/>
      <point x="309" y="456" type="line"/>
      <point x="329" y="714" type="line"/>
      <point x="171" y="714" type="line"/>
    </contour>
  </outline>
</glyph>
<glyph name="parenleft" format="2">
  <advance width="500"/>
  <unicode hex="0028"/>
  <outline>
    <contour>
      <point x="279" y="-175" type="curve"/>
      <point x="411" y="-175" type="line"/>
      <point x="330" y="-38"/>
      <point x="284" y="101"/>
      <point x="284" y="266" type="curve" smooth="yes"/>
      <point x="284" y="437"/>
      <point x="325" y="584"/>
      <point x="412" y="714" type="curve"/>
      <point x="279" y="714" type="line"/>
      <point x="200" y="602"/>
      <point x="144" y="450"/>
      <point x="144" y="265" type="curve" smooth="yes"/>
      <point x="144" y="83"/>
      <point x="197" y="-60"/>
    </contour>
  </outline>
</glyph>
<glyph name="asterisk" format="2">
  <advance width="500"/>
  <unicode hex="002A"/>
  <outline>
    <contour>
      <point x="319" y="337" type="line"/>
      <point x="428" y="414" type="line"/>
      <point x="328" y="524" type="line"/>
      <point x="462" y="540" type="line"/>
      <point x="431" y="667" type="line"/>
      <point x="299" y="617" type="line"/>
      <point x="317" y="762" type="line"/>
      <point x="182" y="762" type="line"/>
      <point x="200" y="617" type="line"/>
      <point x="68" y="667" type="line"/>
      <point x="37" y="540" type="line"/>
      <point x="171" y="524" type="line"/>
      <point x="71" y="414" type="line"/>
      <point x="179" y="337" type="line"/>
      <point x="249" y="468" type="line"/>
    </contour>
  </outline>
</glyph>
<glyph name="plus" format="2">
  <advance width="500"/>
  <unicode hex="002B"/>
  <outline>
    <contour>
      <point x="190" y="113" type="line"/>
      <point x="311" y="113" type="line"/>
      <point x="311" y="294" type="line"/>
      <point x="460" y="294" type="line"/>
      <point x="460" y="412" type="line"/>
      <point x="311" y="412" type="line"/>
      <point x="311" y="595" type="line"/>
      <point x="190" y="595" type="line"/>
      <point x="190" y="412" type="line"/>
      <point x="40" y="412" type="line"/>
      <point x="40" y="294" type="line"/>
      <point x="190" y="294" type="line"/>
    </contour>
  </outline>
</glyph>
<glyph name="hyphen" format="2">
  <advance width="500"/>
  <unicode hex="002D"/>
  <outline>
    <contour>
      <point x="125" y="200" type="line"/>
      <point x="375" y="200" type="line"/>
      <point x="375" y="340" type="line"/>
      <point x="125" y="340" type="line"/>
    </contour>
  </outline>
</glyph>
<glyph name="one" format="2">
  <advance width="500"/>
  <unicode hex="0031"/>
  <outline>
    <contour>
      <point x="189" y="0" type="line"/>
      <point x="350" y="0" type="line"/>
      <point x="350" y="714" type="line"/>
      <point x="216" y="714" type="line"/>
      <point x="18" y="585" type="line"/>
      <point x="94" y="459" type="line"/>
      <point x="140" y="489" type="line" smooth="yes"/>
      <point x="162" y="504"/>
      <point x="176" y="516"/>
      <point x="193" y="530" type="curve"/>
      <point x="191" y="486"/>
      <point x="189" y="420"/>
      <point x="189" y="378" type="curve" smooth="yes"/>
    </contour>
    <contour>
      <point x="60" y="0" type="line"/>
      <point x="469" y="0" type="line"/>
      <point x="469" y="118" type="line"/>
      <point x="349" y="131" type="line"/>
      <point x="190" y="131" type="line"/>
      <point x="60" y="118" type="line"/>
    </contour>
  </outline>
</glyph>
<glyph name="three" format="2">
  <advance width="500"/>
  <unicode hex="0033"/>
  <outline>
    <contour>
      <point x="206" y="-10" type="curve" smooth="yes"/>
      <point x="370" y="-10"/>
      <point x="461" y="71"/>
      <point x="461" y="203" type="curve" smooth="yes"/>
      <point x="461" y="297"/>
      <point x="415" y="353"/>
      <point x="322" y="373" type="curve"/>
      <point x="322" y="376" type="line"/>
      <point x="402" y="407"/>
      <point x="445" y="460"/>
      <point x="445" y="547" type="curve" smooth="yes"/>
      <point x="445" y="662"/>
      <point x="369" y="724"/>
      <point x="239" y="724" type="curve" smooth="yes"/>
      <point x="158" y="724"/>
      <point x="93" y="700"/>
      <point x="39" y="657" type="curve"/>
      <point x="100" y="535" type="line"/>
      <point x="140" y="565"/>
      <point x="176" y="580"/>
      <point x="215" y="580" type="curve" smooth="yes"/>
      <point x="259" y="580"/>
      <point x="281" y="560"/>
      <point x="281" y="519" type="curve" smooth="yes"/>
      <point x="281" y="464"/>
      <point x="242" y="435"/>
      <point x="160" y="435" type="curve" smooth="yes"/>
      <point x="123" y="435" type="line"/>
      <point x="123" y="296" type="line"/>
      <point x="159" y="296" type="line" smooth="yes"/>
      <point x="248" y="296"/>
      <point x="284" y="273"/>
      <point x="284" y="213" type="curve" smooth="yes"/>
      <point x="284" y="158"/>
      <point x="254" y="134"/>
      <point x="191" y="134" type="curve" smooth="yes"/>
      <point x="141" y="134"/>
      <point x="89" y="149"/>
      <point x="38" y="181" type="curve"/>
      <point x="38" y="27" type="line"/>
      <point x="102" y="-2"/>
      <point x="154" y="-10"/>
    </contour>
  </outline>
</glyph>
<glyph name="four" format="2">
  <advance width="500"/>
  <unicode hex="0034"/>
  <outline>
    <contour>
      <point x="248" y="0" type="line"/>
      <point x="405" y="0" type="line"/>
      <point x="405" y="138" type="line"/>
      <point x="480" y="138" type="line"/>
      <point x="480" y="275" type="line"/>
      <point x="405" y="275" type="line"/>
      <point x="405" y="714" type="line"/>
      <point x="252" y="714" type="line"/>
      <point x="20" y="272" type="line"/>
      <point x="20" y="138" type="line"/>
      <point x="248" y="138" type="line"/>
    </contour>
    <contour>
      <point x="153" y="275" type="line"/>
      <point x="215" y="406" type="line" smooth="yes"/>
      <point x="226" y="429"/>
      <point x="239" y="457"/>
      <point x="247" y="487" type="curve"/>
      <point x="251" y="487" type="line"/>
      <point x="250" y="447"/>
      <point x="248" y="385"/>
      <point x="248" y="372" type="curve" smooth="yes"/>
      <point x="248" y="275" type="line"/>
    </contour>
  </outline>
</glyph>
<glyph name="six" format="2">
  <advance width="500"/>
  <unicode hex="0036"/>
  <outline>
    <contour>
      <point x="257" y="-10" type="curve" smooth="yes"/>
      <point x="389" y="-10"/>
      <point x="466" y="89"/>
      <point x="466" y="244" type="curve" smooth="yes"/>
      <point x="466" y="390"/>
      <point x="406" y="476"/>
      <point x="306" y="476" type="curve" smooth="yes"/>
      <point x="253" y="476"/>
      <point x="216" y="448"/>
      <point x="193" y="393" type="curve"/>
      <point x="189" y="393" type="line"/>
      <point x="193" y="528"/>
      <point x="243" y="584"/>
      <point x="346" y="584" type="curve" smooth="yes"/>
      <point x="376" y="584"/>
      <point x="405" y="581"/>
      <point x="432" y="575" type="curve"/>
      <point x="432" y="716" type="line"/>
      <point x="398" y="721"/>
      <point x="364" y="724"/>
      <point x="330" y="724" type="curve" smooth="yes"/>
      <point x="90" y="724"/>
      <point x="34" y="517"/>
      <point x="34" y="302" type="curve" smooth="yes"/>
      <point x="34" y="106"/>
      <point x="118" y="-10"/>
    </contour>
    <contour>
      <point x="253" y="134" type="curve" smooth="yes"/>
      <point x="222" y="134"/>
      <point x="203" y="184"/>
      <point x="203" y="252" type="curve" smooth="yes"/>
      <point x="203" y="299"/>
      <point x="224" y="336"/>
      <point x="254" y="336" type="curve" smooth="yes"/>
      <point x="286" y="336"/>
      <point x="301" y="304"/>
      <point x="301" y="241" type="curve" smooth="yes"/>
      <point x="301" y="167"/>
      <point x="281" y="134"/>
    </contour>
  </outline>
</glyph>
<glyph name="seven" format="2">
  <advance width="500"/>
  <unicode hex="0037"/>
  <outline>
    <contour>
      <point x="85" y="0" type="line"/>
      <point x="262" y="0" type="line"/>
      <point x="459" y="599" type="line"/>
      <point x="459" y="713" type="line"/>
      <point x="37" y="713" type="line"/>
      <point x="37" y="566" type="line"/>
      <point x="289" y="566" type="line"/>
    </contour>
  </outline>
</glyph>
<glyph name="nine" format="2">
  <advance width="500"/>
  <unicode hex="0039"/>
  <outline>
    <contour>
      <point x="167" y="-10" type="curve" smooth="yes"/>
      <point x="393" y="-10"/>
      <point x="462" y="186"/>
      <point x="462" y="403" type="curve" smooth="yes"/>
      <point x="462" y="608"/>
      <point x="377" y="724"/>
      <point x="240" y="724" type="curve" smooth="yes"/>
      <point x="108" y="724"/>
      <point x="30" y="626"/>
      <point x="30" y="470" type="curve" smooth="yes"/>
      <point x="30" y="326"/>
      <point x="89" y="238"/>
      <point x="191" y="238" type="curve" smooth="yes"/>
      <point x="243" y="238"/>
      <point x="280" y="266"/>
      <point x="303" y="321" type="curve"/>
      <point x="308" y="321" type="line"/>
      <point x="304" y="187"/>
      <point x="254" y="130"/>
      <point x="151" y="130" type="curve" smooth="yes"/>
      <point x="121" y="130"/>
      <point x="92" y="133"/>
      <point x="65" y="140" type="curve"/>
      <point x="65" y="-1" type="line"/>
      <point x="98" y="-7"/>
      <point x="132" y="-10"/>
    </contour>
    <contour>
      <point x="242" y="378" type="curve" smooth="yes"/>
      <point x="211" y="378"/>
      <point x="195" y="410"/>
      <point x="195" y="473" type="curve" smooth="yes"/>
      <point x="195" y="548"/>
      <point x="211" y="580"/>
      <point x="243" y="580" type="curve" smooth="yes"/>
      <point x="272" y="580"/>
      <point x="294" y="547"/>
      <point x="294" y="462" type="curve" smooth="yes"/>
      <point x="294" y="430"/>
      <point x="281" y="378"/>
    </contour>
  </outline>
</glyph>
<glyph name="question" format="2">
  <advance width="500"/>
  <unicode hex="003F"/>
  <outline>
    <contour>
      <point x="167" y="242" type="line"/>
      <point x="291" y="242" type="line"/>
      <point x="291" y="266" type="line" smooth="yes"/>
      <point x="291" y="300"/>
      <point x="295" y="315"/>
      <point x="342" y="361" type="curve" smooth="yes"/>
      <point x="401" y="418"/>
      <point x="433" y="463"/>
      <point x="433" y="549" type="curve" smooth="yes"/>
      <point x="433" y="657"/>
      <point x="367" y="724"/>
      <point x="243" y="724" type="curve" smooth="yes"/>
      <point x="183" y="724"/>
      <point x="124" y="703"/>
      <point x="66" y="660" type="curve"/>
      <point x="113" y="545" type="line"/>
      <point x="157" y="577"/>
      <point x="194" y="594"/>
      <point x="230" y="594" type="curve" smooth="yes"/>
      <point x="270" y="594"/>
      <point x="290" y="574"/>
      <point x="290" y="536" type="curve" smooth="yes"/>
      <point x="290" y="495"/>
      <point x="275" y="472"/>
      <point x="233" y="431" type="curve" smooth="yes"/>
      <point x="185" y="385"/>
      <point x="167" y="347"/>
      <point x="167" y="281" type="curve" smooth="yes"/>
    </contour>
    <contour>
      <point x="230" y="-11" type="curve" smooth="yes"/>
      <point x="282" y="-11"/>
      <point x="313" y="20"/>
      <point x="313" y="76" type="curve" smooth="yes"/>
      <point x="313" y="133"/>
      <point x="283" y="164"/>
      <point x="230" y="164" type="curve" smooth="yes"/>
      <point x="175" y="164"/>
      <point x="145" y="132"/>
      <point x="145" y="76" type="curve" smooth="yes"/>
      <point x="145" y="20"/>
      <point x="178" y="-11"/>
    </contour>
  </outline>
</glyph>
<glyph name="at" format="2">
  <advance width="500"/>
  <unicode hex="0040"/>
  <outline>
    <contour>
      <point x="259" y="-84" type="curve" smooth="yes"/>
      <point x="300" y="-84"/>
      <point x="354" y="-69"/>
      <point x="398" y="-40" type="curve"/>
      <point x="398" y="51" type="line"/>
      <point x="346" y="18"/>
      <point x="298" y="3"/>
      <point x="262" y="3" type="curve" smooth="yes"/>
      <point x="133" y="3"/>
      <point x="88" y="132"/>
      <point x="88" y="292" type="curve" smooth="yes"/>
      <point x="88" y="507"/>
      <point x="171" y="625"/>
      <point x="267" y="625" type="curve" smooth="yes"/>
      <point x="357" y="625"/>
      <point x="413" y="545"/>
      <point x="413" y="361" type="curve" smooth="yes"/>
      <point x="413" y="264"/>
      <point x="404" y="192"/>
      <point x="382" y="192" type="curve" smooth="yes"/>
      <point x="370" y="192"/>
      <point x="368" y="216"/>
      <point x="368" y="258" type="curve" smooth="yes"/>
      <point x="368" y="266"/>
      <point x="368" y="286"/>
      <point x="369" y="299" type="curve" smooth="yes"/>
      <point x="379" y="502" type="line"/>
      <point x="348" y="517"/>
      <point x="312" y="527"/>
      <point x="279" y="527" type="curve" smooth="yes"/>
      <point x="184" y="527"/>
      <point x="122" y="440"/>
      <point x="122" y="301" type="curve" smooth="yes"/>
      <point x="122" y="180"/>
      <point x="162" y="106"/>
      <point x="228" y="106" type="curve" smooth="yes"/>
      <point x="257" y="106"/>
      <point x="285" y="127"/>
      <point x="298" y="153" type="curve"/>
      <point x="301" y="153" type="line"/>
      <point x="315" y="122"/>
      <point x="341" y="106"/>
      <point x="378" y="106" type="curve" smooth="yes"/>
      <point x="460" y="106"/>
      <point x="500" y="214"/>
      <point x="500" y="369" type="curve" smooth="yes"/>
      <point x="500" y="593"/>
      <point x="410" y="714"/>
      <point x="264" y="714" type="curve" smooth="yes"/>
      <point x="111" y="714"/>
      <point x="0" y="561"/>
      <point x="0" y="287" type="curve" smooth="yes"/>
      <point x="0" y="56"/>
      <point x="82" y="-84"/>
    </contour>
    <contour>
      <point x="248" y="192" type="curve" smooth="yes"/>
      <point x="228" y="192"/>
      <point x="216" y="231"/>
      <point x="216" y="300" type="curve" smooth="yes"/>
      <point x="216" y="388"/>
      <point x="239" y="440"/>
      <point x="271" y="440" type="curve" smooth="yes"/>
      <point x="278" y="440"/>
      <point x="280" y="439"/>
      <point x="284" y="438" type="curve"/>
      <point x="279" y="343" type="line" smooth="yes"/>
      <point x="273" y="228"/>
      <point x="267" y="192"/>
    </contour>
  </outline>
</glyph>
<glyph name="B" format="2">
  <advance width="500"/>
  <unicode hex="0042"/>
  <anchor x="250" y="0" name="bottom"/>
  <anchor x="250" y="714" name="top"/>
  <anchor x="480" y="714" name="topright"/>
  <outline>
    <contour>
      <point x="45" y="0" type="line"/>
      <point x="252" y="0" type="line" smooth="yes"/>
      <point x="386" y="0"/>
      <point x="475" y="80"/>
      <point x="475" y="216" type="curve" smooth="yes"/>
      <point x="475" y="296"/>
      <point x="445" y="351"/>
      <point x="373" y="374" type="curve"/>
      <point x="373" y="379" type="line"/>
      <point x="427" y="396"/>
      <point x="463" y="456"/>
      <point x="463" y="538" type="curve" smooth="yes"/>
      <point x="463" y="658"/>
      <point x="387" y="714"/>
      <point x="243" y="714" type="curve" smooth="yes"/>
      <point x="45" y="714" type="line"/>
    </contour>
    <contour>
      <point x="195" y="136" type="line"/>
      <point x="195" y="307" type="line"/>
      <point x="242" y="307" type="line" smooth="yes"/>
      <point x="300" y="307"/>
      <point x="327" y="277"/>
      <point x="327" y="220" type="curve" smooth="yes"/>
      <point x="327" y="165"/>
      <point x="302" y="136"/>
      <point x="244" y="136" type="curve" smooth="yes"/>
    </contour>
    <contour>
      <point x="195" y="428" type="line"/>
      <point x="195" y="578" type="line"/>
      <point x="234" y="578" type="line" smooth="yes"/>
      <point x="285" y="578"/>
      <point x="317" y="554"/>
      <point x="317" y="505" type="curve" smooth="yes"/>
      <point x="317" y="455"/>
      <point x="284" y="428"/>
      <point x="237" y="428" type="curve" smooth="yes"/>
    </contour>
  </outline>
</glyph>
<glyph name="D" format="2">
  <advance width="500"/>
  <unicode hex="0044"/>
  <anchor x="227" y="0" name="bottom"/>
  <anchor x="250" y="357" name="center"/>
  <anchor x="242" y="714" name="top"/>
  <anchor x="500" y="714" name="topright"/>
  <outline>
    <contour>
      <point x="25" y="0" type="line"/>
      <point x="227" y="0" type="line" smooth="yes"/>
      <point x="371" y="0"/>
      <point x="485" y="140"/>
      <point x="485" y="372" type="curve" smooth="yes"/>
      <point x="485" y="581"/>
      <point x="392" y="714"/>
      <point x="228" y="714" type="curve" smooth="yes"/>
      <point x="25" y="714" type="line"/>
    </contour>
    <contour>
      <point x="178" y="140" type="line"/>
      <point x="178" y="574" type="line"/>
      <point x="215" y="574" type="line" smooth="yes"/>
      <point x="289" y="574"/>
      <point x="328" y="504"/>
      <point x="328" y="357" type="curve" smooth="yes"/>
      <point x="328" y="227"/>
      <point x="292" y="140"/>
      <point x="208" y="140" type="curve" smooth="yes"/>
    </contour>
  </outline>
</glyph>
<glyph name="E" format="2">
  <advance width="500"/>
  <unicode hex="0045"/>
  <anchor x="254" y="0" name="bottom"/>
  <anchor x="392" y="10" name="ogonek"/>
  <anchor x="254" y="714" name="top"/>
  <anchor x="20" y="714" name="topleft"/>
  <anchor x="480" y="714" name="topright"/>
  <outline>
    <contour>
      <point x="45" y="0" type="line"/>
      <point x="460" y="0" type="line"/>
      <point x="460" y="140" type="line"/>
      <point x="200" y="140" type="line"/>
      <point x="200" y="292" type="line"/>
      <point x="444" y="292" type="line"/>
      <point x="444" y="432" type="line"/>
      <point x="200" y="432" type="line"/>
      <point x="200" y="573" type="line"/>
      <point x="460" y="573" type="line"/>
      <point x="460" y="714" type="line"/>
      <point x="45" y="714" type="line"/>
    </contour>
  </outline>
</glyph>
<glyph name="I" format="2">
  <advance width="500"/>
  <unicode hex="0049"/>
  <anchor x="250" y="0" name="bottom"/>
  <anchor x="344" y="10" name="ogonek"/>
  <anchor x="250" y="714" name="top"/>
  <anchor x="20" y="714" name="topleft"/>
  <anchor x="480" y="714" name="topright"/>
  <outline>
    <contour>
      <point x="55" y="0" type="line"/>
      <point x="445" y="0" type="line"/>
      <point x="445" y="115" type="line"/>
      <point x="328" y="130" type="line"/>
      <point x="328" y="584" type="line"/>
      <point x="445" y="599" type="line"/>
      <point x="445" y="714" type="line"/>
      <point x="55" y="714" type="line"/>
      <point x="55" y="599" type="line"/>
      <point x="176" y="584" type="line"/>
      <point x="176" y="130" type="line"/>
      <point x="55" y="115" type="line"/>
    </contour>
  </outline>
</glyph>
<glyph name="J" format="2">
  <advance width="500"/>
  <unicode hex="004A"/>
  <anchor x="250" y="0" name="bottom"/>
  <anchor x="352" y="714" name="top"/>
  <anchor x="480" y="714" name="topright"/>
  <outline>
    <contour>
      <point x="159" y="-9" type="curve" smooth="yes"/>
      <point x="338" y="-9"/>
      <point x="430" y="99"/>
      <point x="430" y="249" type="curve" smooth="yes"/>
      <point x="430" y="714" type="line"/>
      <point x="278" y="714" type="line"/>
      <point x="278" y="285" type="line" smooth="yes"/>
      <point x="278" y="169"/>
      <point x="220" y="127"/>
      <point x="139" y="127" type="curve" smooth="yes"/>
      <point x="117" y="127"/>
      <point x="82" y="130"/>
      <point x="40" y="143" type="curve"/>
      <point x="40" y="10" type="line"/>
      <point x="77" y="-3"/>
      <point x="117" y="-9"/>
    </contour>
  </outline>
</glyph>
<glyph name="L" format="2">
  <advance width="500"/>
  <unicode hex="004C"/>
  <anchor x="269" y="0" name="bottom"/>
  <anchor x="250" y="357" name="center"/>
  <anchor x="131" y="714" name="top"/>
  <anchor x="377" y="714" name="topright"/>
  <outline>
    <contour>
      <point x="55" y="0" type="line"/>
      <point x="460" y="0" type="line"/>
      <point x="460" y="140" type="line"/>
      <point x="210" y="140" type="line"/>
      <point x="210" y="714" type="line"/>
      <point x="55" y="714" type="line"/>
    </contour>
  </outline>
</glyph>
<glyph name="U" format="2">
  <advance width="500"/>
  <unicode hex="0055"/>
  <anchor x="250" y="0" name="bottom"/>
  <anchor x="450" y="10" name="ogonek"/>
  <anchor x="250" y="714" name="top"/>
  <anchor x="480" y="714" name="topright"/>
  <outline>
    <contour>
      <point x="249" y="-10" type="curve" smooth="yes"/>
      <point x="416" y="-10"/>
      <point x="475" y="83"/>
      <point x="475" y="280" type="curve" smooth="yes"/>
      <point x="475" y="714" type="line"/>
      <point x="320" y="714" type="line"/>
      <point x="320" y="293" type="line" smooth="yes"/>
      <point x="320" y="182"/>
      <point x="314" y="132"/>
      <point x="249" y="132" type="curve" smooth="yes"/>
      <point x="188" y="132"/>
      <point x="180" y="178"/>
      <point x="180" y="291" type="curve" smooth="yes"/>
      <point x="180" y="714" type="line"/>
      <point x="25" y="714" type="line"/>
      <point x="25" y="277" type="line" smooth="yes"/>
      <point x="25" y="81"/>
      <point x="84" y="-10"/>
    </contour>
  </outline>
</glyph>
<glyph name="W" format="2">
  <advance width="500"/>
  <unicode hex="0057"/>
  <anchor x="250" y="0" name="bottom"/>
  <anchor x="250" y="714" name="top"/>
  <anchor x="480" y="714" name="topright"/>
  <outline>
    <contour>
      <point x="42" y="0" type="line"/>
      <point x="225" y="0" type="line"/>
      <point x="238" y="194" type="line" smooth="yes"/>
      <point x="242" y="247"/>
      <point x="246" y="334"/>
      <point x="248" y="382" type="curve"/>
      <point x="254" y="382" type="line"/>
      <point x="256" y="334"/>
      <point x="261" y="247"/>
      <point x="265" y="194" type="curve" smooth="yes"/>
      <point x="278" y="0" type="line"/>
      <point x="458" y="0" type="line"/>
      <point x="495" y="714" type="line"/>
      <point x="370" y="714" type="line"/>
      <point x="367" y="622"/>
      <point x="363" y="530"/>
      <point x="360" y="438" type="curve" smooth="yes"/>
      <point x="358" y="377"/>
      <point x="355" y="262"/>
      <point x="353" y="140" type="curve"/>
      <point x="347" y="140" type="line"/>
      <point x="344" y="199"/>
      <point x="335" y="295"/>
      <point x="329" y="357" type="curve" smooth="yes"/>
      <point x="310" y="553" type="line"/>
      <point x="190" y="553" type="line"/>
      <point x="174" y="358" type="line" smooth="yes"/>
      <point x="170" y="309"/>
      <point x="161" y="203"/>
      <point x="155" y="141" type="curve"/>
      <point x="149" y="141" type="line"/>
      <point x="147" y="261"/>
      <point x="144" y="381"/>
      <point x="142" y="437" type="curve" smooth="yes"/>
      <point x="139" y="530"/>
      <point x="133" y="622"/>
      <point x="129" y="714" type="curve"/>
      <point x="5" y="714" type="line"/>
    </contour>
  </outline>
</glyph>
<glyph name="Y" format="2">
  <advance width="500"/>
  <unicode hex="0059"/>
  <anchor x="250" y="0" name="bottom"/>
  <anchor x="250" y="714" name="top"/>
  <anchor x="20" y="714" name="topleft"/>
  <anchor x="480" y="714" name="topright"/>
  <outline>
    <contour>
      <point x="174" y="0" type="line"/>
      <point x="322" y="0" type="line"/>
      <point x="322" y="277" type="line"/>
      <point x="495" y="714" type="line"/>
      <point x="328" y="714" type="line"/>
      <point x="250" y="443" type="line"/>
      <point x="173" y="714" type="line"/>
      <point x="5" y="714" type="line"/>
      <point x="174" y="276" type="line"/>
    </contour>
  </outline>
</glyph>
<glyph name="Z" format="2">
  <advance width="500"/>
  <unicode hex="005A"/>
  <anchor x="266" y="0" name="bottom"/>
  <anchor x="254" y="714" name="top"/>
  <anchor x="480" y="714" name="topright"/>
  <outline>
    <contour>
      <point x="45" y="0" type="line"/>
      <point x="462" y="0" type="line"/>
      <point x="462" y="140" type="line"/>
      <point x="222" y="140" type="line"/>
      <point x="461" y="601" type="line"/>
      <point x="461" y="714" type="line"/>
      <point x="49" y="714" type="line"/>
      <point x="49" y="574" type="line"/>
      <point x="294" y="574" type="line"/>
      <point x="45" y="113" type="line"/>
    </contour>
  </outline>
</glyph>
<glyph name="asciicircum" format="2">
  <advance width="500"/>
  <unicode hex="005E"/>
  <outline>
    <contour>
      <point x="10" y="264" type="line"/>
      <point x="149" y="264" type="line"/>
      <point x="250" y="524" type="line"/>
      <point x="351" y="264" type="line"/>
      <point x="490" y="264" type="line"/>
      <point x="287" y="714" type="line"/>
      <point x="213" y="714" type="line"/>
    </contour>
  </outline>
</glyph>
<glyph name="underscore" format="2">
  <advance width="500"/>
  <unicode hex="005F"/>
  <outline>
    <contour>
      <point x="0" y="-198" type="line"/>
      <point x="500" y="-198" type="line"/>
      <point x="500" y="-68" type="line"/>
      <point x="0" y="-68" type="line"/>
    </contour>
  </outline>
</glyph>
<glyph name="g" format="2">
  <advance width="500"/>
  <unicode hex="0067"/>
  <anchor x="250" y="-245" name="bottom"/>
  <anchor x="250" y="553" name="top"/>
  <anchor x="499" y="553" name="topright"/>
  <outline>
    <contour>
      <point x="212" y="-245" type="curve" smooth="yes"/>
      <point x="389" y="-245"/>
      <point x="465" y="-151"/>
      <point x="465" y="18" type="curve" smooth="yes"/>
      <point x="465" y="553" type="line"/>
      <point x="334" y="553" type="line"/>
      <point x="321" y="484" type="line"/>
      <point x="312" y="484" type="line"/>
      <point x="278" y="543"/>
      <point x="246" y="563"/>
      <point x="198" y="563" type="curve" smooth="yes"/>
      <point x="85" y="563"/>
      <point x="20" y="451"/>
      <point x="20" y="274" type="curve" smooth="yes"/>
      <point x="20" y="99"/>
      <point x="83" y="-10"/>
      <point x="197" y="-10" type="curve" smooth="yes"/>
      <point x="243" y="-10"/>
      <point x="278" y="8"/>
      <point x="309" y="66" type="curve"/>
      <point x="314" y="66" type="line"/>
      <point x="313" y="46"/>
      <point x="312" y="29"/>
      <point x="312" y="6" type="curve" smooth="yes"/>
      <point x="312" y="-11" type="line" smooth="yes"/>
      <point x="312" y="-78"/>
      <point x="271" y="-107"/>
      <point x="199" y="-107" type="curve" smooth="yes"/>
      <point x="157" y="-107"/>
      <point x="107" y="-97"/>
      <point x="47" y="-64" type="curve"/>
      <point x="47" y="-203" type="line"/>
      <point x="99" y="-231"/>
      <point x="144" y="-245"/>
    </contour>
    <contour>
      <point x="251" y="128" type="curve" smooth="yes"/>
      <point x="199" y="128"/>
      <point x="185" y="178"/>
      <point x="185" y="271" type="curve" smooth="yes"/>
      <point x="185" y="370"/>
      <point x="201" y="424"/>
      <point x="256" y="424" type="curve" smooth="yes"/>
      <point x="302" y="424"/>
      <point x="315" y="385"/>
      <point x="315" y="275" type="curve" smooth="yes"/>
      <point x="315" y="259" type="line" smooth="yes"/>
      <point x="315" y="159"/>
      <point x="293" y="128"/>
    </contour>
  </outline>
</glyph>
<glyph name="k" format="2">
  <advance width="500"/>
  <unicode hex="006B"/>
  <anchor x="250" y="0" name="bottom"/>
  <anchor x="280" y="760" name="top"/>
  <anchor x="480" y="760" name="topright"/>
  <outline>
    <contour>
      <point x="35" y="0" type="line"/>
      <point x="185" y="0" type="line"/>
      <point x="185" y="171" type="line"/>
      <point x="219" y="192" type="line"/>
      <point x="317" y="0" type="line"/>
      <point x="495" y="0" type="line"/>
      <point x="326" y="285" type="line"/>
      <point x="494" y="553" type="line"/>
      <point x="322" y="553" type="line"/>
      <point x="227" y="396" type="line" smooth="yes"/>
      <point x="210" y="368"/>
      <point x="193" y="340"/>
      <point x="177" y="312" type="curve"/>
      <point x="175" y="312" type="line"/>
      <point x="179" y="356"/>
      <point x="185" y="409"/>
      <point x="185" y="454" type="curve" smooth="yes"/>
      <point x="185" y="760" type="line"/>
      <point x="35" y="760" type="line"/>
    </contour>
  </outline>
</glyph>
<glyph name="n" format="2">
  <advance width="500"/>
  <unicode hex="006E"/>
  <anchor x="255" y="0" name="bottom"/>
  <anchor x="260" y="553" name="top"/>
  <anchor x="501" y="553" name="topright"/>
  <outline>
    <contour>
      <point x="35" y="0" type="line"/>
      <point x="190" y="0" type="line"/>
      <point x="190" y="296" type="line" smooth="yes"/>
      <point x="190" y="395"/>
      <point x="210" y="431"/>
      <point x="261" y="431" type="curve" smooth="yes"/>
      <point x="296" y="431"/>
      <point x="315" y="405"/>
      <point x="315" y="331" type="curve" smooth="yes"/>
      <point x="315" y="0" type="line"/>
      <point x="470" y="0" type="line"/>
      <point x="470" y="360" type="line" smooth="yes"/>
      <point x="470" y="499"/>
      <point x="411" y="563"/>
      <point x="311" y="563" type="curve" smooth="yes"/>
      <point x="247" y="563"/>
      <point x="210" y="535"/>
      <point x="185" y="491" type="curve"/>
      <point x="180" y="491" type="line"/>
      <point x="162" y="553" type="line"/>
      <point x="35" y="553" type="line"/>
    </contour>
  </outline>
</glyph>
<glyph name="o" format="2">
  <advance width="500"/>
  <unicode hex="006F"/>
  <anchor x="250" y="0" name="bottom"/>
  <anchor x="250" y="277" name="center"/>
  <anchor x="253" y="10" name="ogonek"/>
  <anchor x="250" y="553" name="top"/>
  <anchor x="499" y="553" name="topright"/>
  <outline>
    <contour>
      <point x="250" y="-10" type="curve" smooth="yes"/>
      <point x="432" y="-10"/>
      <point x="480" y="136"/>
      <point x="480" y="279" type="curve" smooth="yes"/>
      <point x="480" y="461"/>
      <point x="389" y="563"/>
      <point x="250" y="563" type="curve" smooth="yes"/>
      <point x="90" y="563"/>
      <point x="20" y="437"/>
      <point x="20" y="279" type="curve" smooth="yes"/>
      <point x="20" y="132"/>
      <point x="77" y="-10"/>
    </contour>
    <contour>
      <point x="250" y="128" type="curve" smooth="yes"/>
      <point x="200" y="128"/>
      <point x="180" y="180"/>
      <point x="180" y="279" type="curve" smooth="yes"/>
      <point x="180" y="377"/>
      <point x="200" y="424"/>
      <point x="250" y="424" type="curve" smooth="yes"/>
      <point x="300" y="424"/>
      <point x="320" y="376"/>
      <point x="320" y="279" type="curve" smooth="yes"/>
      <point x="320" y="179"/>
      <point x="302" y="128"/>
    </contour>
  </outline>
</glyph>
<glyph name="p" format="2">
  <advance width="500"/>
  <unicode hex="0070"/>
  <anchor x="273" y="-240" name="bottom"/>
  <anchor x="273" y="553" name="top"/>
  <anchor x="480" y="553" name="topright"/>
  <outline>
    <contour>
      <point x="35" y="-240" type="line"/>
      <point x="186" y="-240" type="line"/>
      <point x="186" y="-70" type="line" smooth="yes"/>
      <point x="186" y="-19"/>
      <point x="180" y="35"/>
      <point x="177" y="56" type="curve"/>
      <point x="186" y="56" type="line"/>
      <point x="215" y="12"/>
      <point x="251" y="-10"/>
      <point x="307" y="-10" type="curve" smooth="yes"/>
      <point x="401" y="-10"/>
      <point x="480" y="99"/>
      <point x="480" y="279" type="curve" smooth="yes"/>
      <point x="480" y="428"/>
      <point x="426" y="563"/>
      <point x="312" y="563" type="curve" smooth="yes"/>
      <point x="245" y="563"/>
      <point x="206" y="535"/>
      <point x="182" y="479" type="curve"/>
      <point x="174" y="479" type="line"/>
      <point x="152" y="553" type="line"/>
      <point x="35" y="553" type="line"/>
    </contour>
    <contour>
      <point x="258" y="128" type="curve" smooth="yes"/>
      <point x="211" y="128"/>
      <point x="186" y="163"/>
      <point x="186" y="277" type="curve" smooth="yes"/>
      <point x="186" y="293" type="line" smooth="yes"/>
      <point x="186" y="390"/>
      <point x="214" y="424"/>
      <point x="256" y="424" type="curve" smooth="yes"/>
      <point x="305" y="424"/>
      <point x="320" y="377"/>
      <point x="320" y="277" type="curve" smooth="yes"/>
      <point x="320" y="178"/>
      <point x="304" y="128"/>
    </contour>
  </outline>
</glyph>
<glyph name="w" format="2">
  <advance width="500"/>
  <unicode hex="0077"/>
  <anchor x="250" y="0" name="bottom"/>
  <anchor x="250" y="553" name="top"/>
  <anchor x="505" y="553" name="topright"/>
  <outline>
    <contour>
      <point x="57" y="0" type="line"/>
      <point x="211" y="0" type="line"/>
      <point x="230" y="146" type="line" smooth="yes"/>
      <point x="236" y="195"/>
      <point x="243" y="252"/>
      <point x="245" y="293" type="curve"/>
      <point x="250" y="293" type="line"/>
      <point x="253" y="251"/>
      <point x="257" y="195"/>
      <point x="263" y="146" type="curve" smooth="yes"/>
      <point x="280" y="0" type="line"/>
      <point x="439" y="0" type="line"/>
      <point x="496" y="553" type="line"/>
      <point x="363" y="553" type="line"/>
      <point x="359" y="301" type="line" smooth="yes"/>
      <point x="358" y="266"/>
      <point x="358" y="220"/>
      <point x="358" y="183" type="curve"/>
      <point x="353" y="183" type="line"/>
      <point x="349" y="211"/>
      <point x="346" y="237"/>
      <point x="340" y="275" type="curve" smooth="yes"/>
      <point x="307" y="480" type="line"/>
      <point x="192" y="480" type="line"/>
      <point x="155" y="275" type="line" smooth="yes"/>
      <point x="149" y="240"/>
      <point x="146" y="208"/>
      <point x="144" y="183" type="curve"/>
      <point x="139" y="183" type="line"/>
      <point x="139" y="217"/>
      <point x="138" y="268"/>
      <point x="138" y="303" type="curve" smooth="yes"/>
      <point x="135" y="553" type="line"/>
      <point x="0" y="553" type="line"/>
    </contour>
  </outline>
</glyph>
<glyph name="braceleft" format="2">
  <advance width="500"/>
  <unicode hex="007B"/>
  <outline>
    <contour>
      <point x="411" y="-166" type="curve" smooth="yes"/>
      <point x="411" y="-50" type="line" smooth="yes"/>
      <point x="411" y="-48"/>
      <point x="327" y="-32"/>
      <point x="327" y="11" type="curve"/>
      <point x="327" y="154" type="line"/>
      <point x="327" y="224"/>
      <point x="236" y="263"/>
      <point x="236" y="275" type="curve" smooth="yes"/>
      <point x="236" y="281" type="line" smooth="yes"/>
      <point x="236" y="292"/>
      <point x="327" y="330"/>
      <point x="327" y="405" type="curve"/>
      <point x="327" y="546" type="line"/>
      <point x="327" y="597"/>
      <point x="411" y="604"/>
      <point x="411" y="606" type="curve" smooth="yes"/>
      <point x="411" y="722" type="line" smooth="yes"/>
      <point x="411" y="722"/>
      <point x="189" y="677"/>
      <point x="189" y="558" type="curve"/>
      <point x="189" y="421" type="line"/>
      <point x="189" y="365"/>
      <point x="88" y="335"/>
      <point x="88" y="335" type="curve" smooth="yes"/>
      <point x="88" y="220" type="line" smooth="yes"/>
      <point x="88" y="220"/>
      <point x="189" y="189"/>
      <point x="189" y="134" type="curve"/>
      <point x="189" y="-1" type="line"/>
      <point x="189" y="-132"/>
      <point x="411" y="-166"/>
    </contour>
  </outline>
</glyph>
<glyph name="cent" format="2">
  <advance width="500"/>
  <unicode hex="00A2"/>
  <outline>
    <contour>
      <point x="255" y="-10" type="line"/>
      <point x="335" y="-10" type="line"/>
      <point x="335" y="83" type="line"/>
      <point x="370" y="88"/>
      <point x="408" y="103"/>
      <point x="435" y="124" type="curve"/>
      <point x="435" y="248" type="line"/>
      <point x="398" y="220"/>
      <point x="353" y="204"/>
      <point x="315" y="204" type="curve" smooth="yes"/>
      <point x="242" y="204"/>
      <point x="211" y="247"/>
      <point x="211" y="362" type="curve" smooth="yes"/>
      <point x="211" y="480"/>
      <point x="248" y="524"/>
      <point x="318" y="524" type="curve" smooth="yes"/>
      <point x="344" y="524"/>
      <point x="379" y="514"/>
      <point x="409" y="493" type="curve"/>
      <point x="447" y="610" type="line"/>
      <point x="415" y="631"/>
      <point x="372" y="643"/>
      <point x="335" y="647" type="curve"/>
      <point x="335" y="724" type="line"/>
      <point x="255" y="724" type="line"/>
      <point x="255" y="644" type="line"/>
      <point x="130" y="629"/>
      <point x="69" y="519"/>
      <point x="69" y="362" type="curve" smooth="yes"/>
      <point x="69" y="200"/>
      <point x="126" y="95"/>
      <point x="255" y="83" type="curve"/>
    </contour>
  </outline>
</glyph>
<glyph name="brokenbar" format="2">
  <advance width="500"/>
  <unicode hex="00A6"/>
  <outline>
    <contour>
      <point x="186" y="363" type="line"/>
      <point x="314" y="363" type="line"/>
      <point x="314" y="759" type="line"/>
      <point x="186" y="759" type="line"/>
    </contour>
    <contour>
      <point x="186" y="-232" type="line"/>
      <point x="314" y="-232" type="line"/>
      <point x="314" y="164" type="line"/>
      <point x="186" y="164" type="line"/>
    </contour>
  </outline>
</glyph>
<glyph name="dieresis" format="2">
  <advance width="500"/>
  <unicode hex="00A8"/>
  <anchor x="250" y="553" name="_top"/>
  <anchor x="250" y="663" name="top"/>
  <outline>
    <contour>
      <point x="342" y="615" type="curve" smooth="yes"/>
      <point x="383" y="615"/>
      <point x="408" y="641"/>
      <point x="408" y="684" type="curve" smooth="yes"/>
      <point x="408" y="728"/>
      <point x="383" y="755"/>
      <point x="342" y="755" type="curve" smooth="yes"/>
      <point x="303" y="755"/>
      <point x="278" y="730"/>
      <point x="278" y="684" type="curve" smooth="yes"/>
      <point x="278" y="640"/>
      <point x="303" y="615"/>
    </contour>
    <contour>
      <point x="156" y="615" type="curve" smooth="yes"/>
      <point x="196" y="615"/>
      <point x="221" y="641"/>
      <point x="221" y="684" type="curve" smooth="yes"/>
      <point x="221" y="728"/>
      <point x="196" y="755"/>
      <point x="156" y="755" type="curve" smooth="yes"/>
      <point x="118" y="755"/>
      <point x="92" y="730"/>
      <point x="92" y="684" type="curve" smooth="yes"/>
      <point x="92" y="639"/>
      <point x="118" y="615"/>
    </contour>
  </outline>
</glyph>
<glyph name="copyright" format="2">
  <advance width="500"/>
  <unicode hex="00A9"/>
  <outline>
    <contour>
      <point x="250" y="124" type="curve" smooth="yes"/>
      <point x="377" y="124"/>
      <point x="485" y="214"/>
      <point x="485" y="360" type="curve" smooth="yes"/>
      <point x="485" y="501"/>
      <point x="380" y="595"/>
      <point x="250" y="595" type="curve" smooth="yes"/>
      <point x="124" y="595"/>
      <point x="14" y="506"/>
      <point x="14" y="360" type="curve" smooth="yes"/>
      <point x="14" y="225"/>
      <point x="110" y="124"/>
    </contour>
    <contour>
      <point x="250" y="216" type="curve" smooth="yes"/>
      <point x="279" y="216"/>
      <point x="305" y="222"/>
      <point x="331" y="235" type="curve"/>
      <point x="331" y="304" type="line"/>
      <point x="306" y="291"/>
      <point x="281" y="284"/>
      <point x="255" y="284" type="curve" smooth="yes"/>
      <point x="216" y="284"/>
      <point x="193" y="307"/>
      <point x="193" y="360" type="curve" smooth="yes"/>
      <point x="193" y="408"/>
      <point x="218" y="434"/>
      <point x="253" y="434" type="curve" smooth="yes"/>
      <point x="274" y="434"/>
      <point x="296" y="429"/>
      <point x="317" y="419" type="curve"/>
      <point x="343" y="480" type="line"/>
      <point x="312" y="495"/>
      <point x="281" y="502"/>
      <point x="248" y="502" type="curve" smooth="yes"/>
      <point x="165" y="502"/>
      <point x="117" y="449"/>
      <point x="117" y="361" type="curve" smooth="yes"/>
      <point x="117" y="268"/>
      <point x="166" y="216"/>
    </contour>
    <contour>
      <point x="250" y="184" type="curve" smooth="yes"/>
      <point x="157" y="184"/>
      <point x="80" y="246"/>
      <point x="80" y="360" type="curve" smooth="yes"/>
      <point x="80" y="465"/>
      <point x="151" y="535"/>
      <point x="250" y="535" type="curve" smooth="yes"/>
      <point x="342" y="535"/>
      <point x="418" y="470"/>
      <point x="418" y="360" type="curve" smooth="yes"/>
      <point x="418" y="254"/>
      <point x="347" y="184"/>
    </contour>
  </outline>
</glyph>
<glyph name="ordfeminine" format="2">
  <advance width="500"/>
  <unicode hex="00AA"/>
  <outline>
    <contour>
      <point x="209" y="362" type="curve" smooth="yes"/>
      <point x="259" y="362"/>
      <point x="288" y="389"/>
      <point x="305" y="424" type="curve"/>
      <point x="323" y="368" type="line"/>
      <point x="395" y="368" type="line"/>
      <point x="395" y="588" type="line" smooth="yes"/>
      <point x="395" y="675"/>
      <point x="349" y="723"/>
      <point x="259" y="723" type="curve" smooth="yes"/>
      <point x="216" y="723"/>
      <point x="172" y="712"/>
      <point x="130" y="687" type="curve"/>
      <point x="159" y="615" type="line"/>
      <point x="189" y="631"/>
      <point x="218" y="641"/>
      <point x="247" y="641" type="curve" smooth="yes"/>
      <point x="281" y="641"/>
      <point x="295" y="627"/>
      <point x="295" y="597" type="curve" smooth="yes"/>
      <point x="295" y="589" type="line"/>
      <point x="252" y="587" type="line" smooth="yes"/>
      <point x="184" y="584"/>
      <point x="113" y="563"/>
      <point x="113" y="470" type="curve" smooth="yes"/>
      <point x="113" y="405"/>
      <point x="147" y="362"/>
    </contour>
    <contour>
      <point x="244" y="443" type="curve" smooth="yes"/>
      <point x="224" y="443"/>
      <point x="212" y="456"/>
      <point x="212" y="480" type="curve" smooth="yes"/>
      <point x="212" y="508"/>
      <point x="228" y="522"/>
      <point x="259" y="525" type="curve" smooth="yes"/>
      <point x="295" y="528" type="line"/>
      <point x="295" y="514" type="line" smooth="yes"/>
      <point x="295" y="472"/>
      <point x="275" y="443"/>
    </contour>
  </outline>
</glyph>
<glyph name="logicalnot" format="2">
  <advance width="500"/>
  <unicode hex="00AC"/>
  <outline>
    <contour>
      <point x="336" y="117" type="line"/>
      <point x="457" y="117" type="line"/>
      <point x="457" y="412" type="line"/>
      <point x="43" y="412" type="line"/>
      <point x="43" y="294" type="line"/>
      <point x="336" y="294" type="line"/>
    </contour>
  </outline>
</glyph>
<glyph name="overscore" format="2">
  <advance width="500"/>
  <unicode hex="00AF"/>
  <outline>
    <contour>
      <point x="98" y="639" type="line"/>
      <point x="381" y="639" type="line"/>
      <point x="381" y="741" type="line"/>
      <point x="98" y="741" type="line"/>
    </contour>
  </outline>
</glyph>
<glyph name="threesuperior" format="2">
  <advance width="500"/>
  <unicode hex="00B3"/>
  <outline>
    <contour>
      <point x="238" y="407" type="curve" smooth="yes"/>
      <point x="333" y="407"/>
      <point x="398" y="453"/>
      <point x="398" y="532" type="curve" smooth="yes"/>
      <point x="398" y="590"/>
      <point x="363" y="623"/>
      <point x="312" y="637" type="curve"/>
      <point x="312" y="641" type="line"/>
      <point x="362" y="661"/>
      <point x="387" y="698"/>
      <point x="387" y="744" type="curve" smooth="yes"/>
      <point x="387" y="813"/>
      <point x="330" y="853"/>
      <point x="252" y="853" type="curve" smooth="yes"/>
      <point x="198" y="853"/>
      <point x="152" y="834"/>
      <point x="111" y="796" type="curve"/>
      <point x="156" y="727" type="line"/>
      <point x="186" y="753"/>
      <point x="210" y="763"/>
      <point x="238" y="763" type="curve" smooth="yes"/>
      <point x="274" y="763"/>
      <point x="287" y="747"/>
      <point x="287" y="722" type="curve" smooth="yes"/>
      <point x="287" y="690"/>
      <point x="264" y="673"/>
      <point x="219" y="673" type="curve" smooth="yes"/>
      <point x="180" y="673" type="line"/>
      <point x="180" y="591" type="line"/>
      <point x="227" y="591" type="line" smooth="yes"/>
      <point x="272" y="591"/>
      <point x="295" y="576"/>
      <point x="295" y="544" type="curve" smooth="yes"/>
      <point x="295" y="519"/>
      <point x="281" y="502"/>
      <point x="232" y="502" type="curve" smooth="yes"/>
      <point x="189" y="502"/>
      <point x="149" y="515"/>
      <point x="117" y="540" type="curve"/>
      <point x="117" y="440" type="line"/>
      <point x="150" y="418"/>
      <point x="191" y="407"/>
    </contour>
  </outline>
</glyph>
<glyph name="acute" format="2">
  <advance width="500"/>
  <unicode hex="00B4"/>
  <outline>
    <contour>
      <point x="146" y="606" type="line"/>
      <point x="248" y="606" type="line"/>
      <point x="295" y="650"/>
      <point x="360" y="720"/>
      <point x="387" y="757" type="curve"/>
      <point x="387" y="766" type="line"/>
      <point x="226" y="766" type="line"/>
      <point x="205" y="721"/>
      <point x="179" y="672"/>
      <point x="146" y="619" type="curve"/>
    </contour>
  </outline>
</glyph>
<glyph name="paragraph" format="2">
  <advance width="500"/>
  <unicode hex="00B6"/>
  <outline>
    <contour>
      <point x="231" y="-127" type="line"/>
      <point x="308" y="-127" type="line"/>
      <point x="308" y="687" type="line"/>
      <point x="368" y="687" type="line"/>
      <point x="368" y="-127" type="line"/>
      <point x="446" y="-127" type="line"/>
      <point x="446" y="760" type="line"/>
      <point x="200" y="760" type="line" smooth="yes"/>
      <point x="88" y="760"/>
      <point x="39" y="675"/>
      <point x="39" y="509" type="curve" smooth="yes"/>
      <point x="39" y="344"/>
      <point x="85" y="264"/>
      <point x="186" y="264" type="curve" smooth="yes"/>
      <point x="203" y="264"/>
      <point x="218" y="267"/>
      <point x="231" y="273" type="curve"/>
    </contour>
  </outline>
</glyph>
<glyph name="cedilla" format="2">
  <advance width="500"/>
  <unicode hex="00B8"/>
  <outline>
    <contour>
      <point x="221" y="-240" type="curve" smooth="yes"/>
      <point x="307" y="-240"/>
      <point x="352" y="-198"/>
      <point x="352" y="-132" type="curve" smooth="yes"/>
      <point x="352" y="-80"/>
      <point x="324" y="-48"/>
      <point x="268" y="-38" type="curve"/>
      <point x="284" y="0" type="line"/>
      <point x="208" y="0" type="line"/>
      <point x="174" y="-82" type="line"/>
      <point x="216" y="-85"/>
      <point x="243" y="-98"/>
      <point x="243" y="-126" type="curve" smooth="yes"/>
      <point x="243" y="-146"/>
      <point x="228" y="-158"/>
      <point x="197" y="-158" type="curve" smooth="yes"/>
      <point x="185" y="-158"/>
      <point x="167" y="-156"/>
      <point x="148" y="-151" type="curve"/>
      <point x="148" y="-232" type="line"/>
      <point x="169" y="-237"/>
      <point x="198" y="-240"/>
    </contour>
  </outline>
</glyph>
<glyph name="Thorn" format="2">
  <advance width="500"/>
  <unicode hex="00DE"/>
  <anchor x="250" y="0" name="bottom"/>
  <anchor x="250" y="714" name="top"/>
  <outline>
    <contour>
      <point x="45" y="0" type="line"/>
      <point x="200" y="0" type="line"/>
      <point x="200" y="125" type="line"/>
      <point x="245" y="125" type="line" smooth="yes"/>
      <point x="410" y="125"/>
      <point x="475" y="225"/>
      <point x="475" y="366" type="curve" smooth="yes"/>
      <point x="475" y="513"/>
      <point x="404" y="594"/>
      <point x="248" y="594" type="curve" smooth="yes"/>
      <point x="200" y="594" type="line"/>
      <point x="200" y="714" type="line"/>
      <point x="45" y="714" type="line"/>
    </contour>
    <contour>
      <point x="200" y="257" type="line"/>
      <point x="200" y="464" type="line"/>
      <point x="242" y="464" type="line" smooth="yes"/>
      <point x="297" y="464"/>
      <point x="328" y="432"/>
      <point x="328" y="358" type="curve" smooth="yes"/>
      <point x="328" y="291"/>
      <point x="302" y="257"/>
      <point x="230" y="257" type="curve" smooth="yes"/>
    </contour>
  </outline>
</glyph>
<glyph name="eth" format="2">
  <advance width="500"/>
  <unicode hex="00F0"/>
  <anchor x="250" y="0" name="bottom"/>
  <anchor x="250" y="277" name="center"/>
  <anchor x="250" y="767" name="top"/>
  <anchor x="480" y="760" name="topright"/>
  <outline>
    <contour>
      <point x="249" y="-10" type="curve" smooth="yes"/>
      <point x="395" y="-10"/>
      <point x="480" y="95"/>
      <point x="480" y="279" type="curve" smooth="yes"/>
      <point x="480" y="485"/>
      <point x="373" y="683"/>
      <point x="184" y="767" type="curve"/>
      <point x="121" y="686" type="line"/>
      <point x="181" y="645"/>
      <point x="272" y="549"/>
      <point x="291" y="476" type="curve"/>
      <point x="289" y="474" type="line"/>
      <point x="271" y="485"/>
      <point x="250" y="491"/>
      <point x="222" y="491" type="curve" smooth="yes"/>
      <point x="113" y="491"/>
      <point x="20" y="400"/>
      <point x="20" y="242" type="curve" smooth="yes"/>
      <point x="20" y="91"/>
      <point x="105" y="-10"/>
    </contour>
    <contour>
      <point x="249" y="112" type="curve" smooth="yes"/>
      <point x="192" y="112"/>
      <point x="168" y="157"/>
      <point x="168" y="241" type="curve" smooth="yes"/>
      <point x="168" y="327"/>
      <point x="193" y="368"/>
      <point x="249" y="368" type="curve" smooth="yes"/>
      <point x="307" y="368"/>
      <point x="332" y="323"/>
      <point x="332" y="240" type="curve" smooth="yes"/>
      <point x="332" y="159"/>
      <point x="308" y="112"/>
    </contour>
    <contour>
      <point x="170" y="523" type="line"/>
      <point x="388" y="699" type="line"/>
      <point x="332" y="767" type="line"/>
      <point x="115" y="591" type="line"/>
    </contour>
  </outline>
</glyph>
<glyph name="oslash" format="2">
  <advance width="500"/>
  <unicode hex="00F8"/>
  <anchor x="250" y="0" name="bottom"/>
  <anchor x="250" y="553" name="top"/>
  <anchor x="253" y="10" name="ogonek"/>
  <anchor x="499" y="553" name="topright"/>
  <anchor x="250" y="277" name="center"/>
  <outline>
    <contour>
      <point x="129" y="-59" type="line"/>
      <point x="439" y="562" type="line"/>
      <point x="368" y="595" type="line"/>
      <point x="58" y="-26" type="line"/>
    </contour>
    <component base="o"/>
  </outline>
</glyph>
<glyph name="thorn" format="2">
  <advance width="500"/>
  <unicode hex="00FE"/>
  <anchor x="270" y="-240" name="bottom"/>
  <anchor x="270" y="714" name="top"/>
  <outline>
    <contour>
      <point x="35" y="-240" type="line"/>
      <point x="186" y="-240" type="line"/>
      <point x="186" y="-63" type="line" smooth="yes"/>
      <point x="186" y="-22"/>
      <point x="180" y="35"/>
      <point x="177" y="56" type="curve"/>
      <point x="186" y="56" type="line"/>
      <point x="215" y="12"/>
      <point x="251" y="-10"/>
      <point x="307" y="-10" type="curve" smooth="yes"/>
      <point x="401" y="-10"/>
      <point x="480" y="99"/>
      <point x="480" y="279" type="curve" smooth="yes"/>
      <point x="480" y="428"/>
      <point x="426" y="563"/>
      <point x="312" y="563" type="curve" smooth="yes"/>
      <point x="245" y="563"/>
      <point x="206" y="535"/>
      <point x="182" y="479" type="curve"/>
      <point x="175" y="479" type="line"/>
      <point x="182" y="516"/>
      <point x="186" y="552"/>
      <point x="186" y="586" type="curve" smooth="yes"/>
      <point x="186" y="714" type="line"/>
      <point x="35" y="714" type="line"/>
    </contour>
    <contour>
      <point x="258" y="128" type="curve" smooth="yes"/>
      <point x="211" y="128"/>
      <point x="186" y="163"/>
      <point x="186" y="277" type="curve" smooth="yes"/>
      <point x="186" y="293" type="line" smooth="yes"/>
      <point x="186" y="390"/>
      <point x="214" y="424"/>
      <point x="256" y="424" type="curve" smooth="yes"/>
      <point x="305" y="424"/>
      <point x="320" y="377"/>
      <point x="320" y="277" type="curve" smooth="yes"/>
      <point x="320" y="178"/>
      <point x="304" y="128"/>
    </contour>
  </outline>
</glyph>
<glyph name="dcaron" format="2">
  <advance width="500"/>
  <unicode hex="010F"/>
  <anchor x="220" y="0" name="bottom"/>
  <anchor x="220" y="277" name="center"/>
  <anchor x="239" y="760" name="top"/>
  <anchor x="450" y="760" name="topright"/>
  <outline>
    <contour>
      <point x="173" y="-10" type="curve" smooth="yes"/>
      <point x="224" y="-10"/>
      <point x="258" y="17"/>
      <point x="279" y="73" type="curve"/>
      <point x="287" y="73" type="line"/>
      <point x="298" y="0" type="line"/>
      <point x="425" y="0" type="line"/>
      <point x="425" y="760" type="line"/>
      <point x="275" y="760" type="line"/>
      <point x="275" y="593" type="line" smooth="yes"/>
      <point x="275" y="554"/>
      <point x="281" y="511"/>
      <point x="284" y="484" type="curve"/>
      <point x="275" y="484" type="line"/>
      <point x="251" y="546"/>
      <point x="216" y="563"/>
      <point x="176" y="563" type="curve" smooth="yes"/>
      <point x="72" y="563"/>
      <point x="10" y="450"/>
      <point x="10" y="275" type="curve" smooth="yes"/>
      <point x="10" y="108"/>
      <point x="66" y="-10"/>
    </contour>
    <contour>
      <point x="217" y="128" type="curve" smooth="yes"/>
      <point x="172" y="128"/>
      <point x="159" y="178"/>
      <point x="159" y="275" type="curve" smooth="yes"/>
      <point x="159" y="372"/>
      <point x="172" y="424"/>
      <point x="221" y="424" type="curve" smooth="yes"/>
      <point x="253" y="424"/>
      <point x="277" y="402"/>
      <point x="277" y="286" type="curve" smooth="yes"/>
      <point x="277" y="270" type="line" smooth="yes"/>
      <point x="277" y="162"/>
      <point x="253" y="128"/>
    </contour>
    <component base="caroncommaaccent" xOffset="273"/>
  </outline>
</glyph>
<glyph name="dcroat" format="2">
  <advance width="500"/>
  <unicode hex="0111"/>
  <anchor x="249" y="0" name="bottom"/>
  <anchor x="249" y="277" name="center"/>
  <anchor x="249" y="760" name="top"/>
  <anchor x="479" y="760" name="topright"/>
  <outline>
    <contour>
      <point x="196" y="-10" type="curve" smooth="yes"/>
      <point x="252" y="-10"/>
      <point x="294" y="17"/>
      <point x="319" y="73" type="curve"/>
      <point x="327" y="73" type="line"/>
      <point x="338" y="0" type="line"/>
      <point x="465" y="0" type="line"/>
      <point x="465" y="760" type="line"/>
      <point x="315" y="760" type="line"/>
      <point x="315" y="593" type="line" smooth="yes"/>
      <point x="315" y="534"/>
      <point x="321" y="491"/>
      <point x="324" y="464" type="curve"/>
      <point x="315" y="464" type="line"/>
      <point x="289" y="522"/>
      <point x="246" y="543"/>
      <point x="198" y="543" type="curve" smooth="yes"/>
      <point x="85" y="543"/>
      <point x="20" y="435"/>
      <point x="20" y="265" type="curve" smooth="yes"/>
      <point x="20" y="104"/>
      <point x="78" y="-10"/>
    </contour>
    <contour>
      <point x="245" y="128" type="curve" smooth="yes"/>
      <point x="196" y="128"/>
      <point x="174" y="173"/>
      <point x="174" y="266" type="curve" smooth="yes"/>
      <point x="174" y="355"/>
      <point x="194" y="404"/>
      <point x="250" y="404" type="curve" smooth="yes"/>
      <point x="297" y="404"/>
      <point x="317" y="369"/>
      <point x="317" y="265" type="curve" smooth="yes"/>
      <point x="317" y="249" type="line" smooth="yes"/>
      <point x="317" y="159"/>
      <point x="287" y="128"/>
    </contour>
    <contour>
      <point x="203" y="581" type="line"/>
      <point x="500" y="581" type="line"/>
      <point x="500" y="684" type="line"/>
      <point x="203" y="684" type="line"/>
    </contour>
  </outline>
</glyph>
<glyph name="idotless" format="2">
  <advance width="500"/>
  <unicode hex="0131"/>
  <anchor x="250" y="0" name="bottom"/>
  <anchor x="450" y="10" name="ogonek"/>
  <anchor x="250" y="553" name="top"/>
  <outline>
    <contour>
      <point x="35" y="0" type="line"/>
      <point x="465" y="0" type="line"/>
      <point x="465" y="114" type="line"/>
      <point x="337" y="132" type="line"/>
      <point x="337" y="553" type="line"/>
      <point x="66" y="553" type="line"/>
      <point x="66" y="431" type="line"/>
      <point x="185" y="419" type="line"/>
      <point x="185" y="132" type="line"/>
      <point x="35" y="114" type="line"/>
    </contour>
  </outline>
</glyph>
<glyph name="Lslash" format="2">
  <advance width="500"/>
  <unicode hex="0141"/>
  <anchor x="307" y="0" name="bottom"/>
  <anchor x="164" y="714" name="top"/>
  <anchor x="377" y="714" name="topright"/>
  <anchor x="250" y="357" name="center"/>
  <outline>
    <contour>
      <point x="-3" y="247" type="line"/>
      <point x="381" y="443" type="line"/>
      <point x="381" y="546" type="line"/>
      <point x="-3" y="350" type="line"/>
    </contour>
    <component base="L"/>
  </outline>
</glyph>
<glyph name="lslash" format="2">
  <advance width="500"/>
  <unicode hex="0142"/>
  <anchor x="250" y="0" name="bottom"/>
  <anchor x="250" y="760" name="top"/>
  <anchor x="423" y="760" name="topright"/>
  <anchor x="256" y="393" name="center"/>
  <outline>
    <contour>
      <point x="67" y="247" type="line"/>
      <point x="451" y="443" type="line"/>
      <point x="451" y="546" type="line"/>
      <point x="67" y="350" type="line"/>
    </contour>
    <component base="l"/>
  </outline>
</glyph>
<glyph name="napostrophe" format="2">
  <advance width="500"/>
  <unicode hex="0149"/>
  <anchor x="260" y="0" name="bottom"/>
  <anchor x="265" y="553" name="top"/>
  <outline>
    <contour>
      <point x="45" y="0" type="line"/>
      <point x="200" y="0" type="line"/>
      <point x="200" y="253" type="line" smooth="yes"/>
      <point x="200" y="369"/>
      <point x="219" y="418"/>
      <point x="263" y="418" type="curve" smooth="yes"/>
      <point x="298" y="418"/>
      <point x="315" y="388"/>
      <point x="315" y="308" type="curve" smooth="yes"/>
      <point x="315" y="0" type="line"/>
      <point x="470" y="0" type="line"/>
      <point x="470" y="360" type="line" smooth="yes"/>
      <point x="470" y="499"/>
      <point x="412" y="563"/>
      <point x="319" y="563" type="curve" smooth="yes"/>
      <point x="257" y="563"/>
      <point x="223" y="535"/>
      <point x="199" y="484" type="curve"/>
      <point x="190" y="484" type="line"/>
      <point x="172" y="553" type="line"/>
      <point x="45" y="553" type="line"/>
    </contour>
    <component base="quoteright" xOffset="-284"/>
  </outline>
</glyph>
<glyph name="eng" format="2">
  <advance width="500"/>
  <unicode hex="014B"/>
  <anchor x="255" y="-240" name="bottom"/>
  <anchor x="260" y="553" name="top"/>
  <anchor x="501" y="553" name="topright"/>
  <outline>
    <contour>
      <point x="294" y="-240" type="curve" smooth="yes"/>
      <point x="411" y="-240"/>
      <point x="468" y="-154"/>
      <point x="468" y="-52" type="curve" smooth="yes"/>
      <point x="468" y="358" type="line"/>
      <point x="317" y="351" type="line" smooth="yes"/>
      <point x="317" y="60" type="line" smooth="yes"/>
      <point x="317" y="-74"/>
      <point x="290" y="-113"/>
      <point x="260" y="-113" type="curve" smooth="yes"/>
      <point x="247" y="-113"/>
      <point x="233" y="-110"/>
      <point x="217" y="-104" type="curve"/>
      <point x="217" y="-229" type="line"/>
      <point x="242" y="-237"/>
      <point x="269" y="-240"/>
    </contour>
    <component base="n"/>
  </outline>
</glyph>
<glyph name="longs" format="2">
  <advance width="500"/>
  <unicode hex="017F"/>
  <anchor x="250" y="0" name="bottom"/>
  <anchor x="306" y="765" name="top"/>
  <outline>
    <contour>
      <point x="152" y="0" type="line"/>
      <point x="307" y="0" type="line"/>
      <point x="307" y="553" type="line" smooth="yes"/>
      <point x="307" y="622"/>
      <point x="330" y="638"/>
      <point x="362" y="638" type="curve" smooth="yes"/>
      <point x="380" y="638"/>
      <point x="400" y="634"/>
      <point x="420" y="628" type="curve"/>
      <point x="449" y="744" type="line"/>
      <point x="401" y="762"/>
      <point x="366" y="765"/>
      <point x="337" y="765" type="curve" smooth="yes"/>
      <point x="204" y="765"/>
      <point x="152" y="708"/>
      <point x="152" y="562" type="curve" smooth="yes"/>
    </contour>
  </outline>
</glyph>
<glyph name="uni0181" format="2">
  <advance width="500"/>
  <unicode hex="0181"/>
  <anchor x="280" y="0" name="bottom"/>
  <anchor x="280" y="714" name="top"/>
  <outline>
    <contour>
      <point x="144" y="0" type="line"/>
      <point x="308" y="0" type="line" smooth="yes"/>
      <point x="421" y="0"/>
      <point x="489" y="79"/>
      <point x="489" y="211" type="curve" smooth="yes"/>
      <point x="489" y="310"/>
      <point x="452" y="356"/>
      <point x="392" y="374" type="curve"/>
      <point x="392" y="379" type="line"/>
      <point x="441" y="395"/>
      <point x="477" y="441"/>
      <point x="477" y="536" type="curve" smooth="yes"/>
      <point x="477" y="652"/>
      <point x="427" y="714"/>
      <point x="291" y="714" type="curve" smooth="yes"/>
      <point x="144" y="714" type="line"/>
    </contour>
    <contour>
      <point x="285" y="126" type="line"/>
      <point x="285" y="308" type="line"/>
      <point x="297" y="308" type="line" smooth="yes"/>
      <point x="340" y="308"/>
      <point x="350" y="272"/>
      <point x="350" y="222" type="curve" smooth="yes"/>
      <point x="350" y="167"/>
      <point x="337" y="126"/>
      <point x="300" y="126" type="curve" smooth="yes"/>
    </contour>
    <contour>
      <point x="6" y="465" type="curve"/>
      <point x="106" y="465" type="line"/>
      <point x="104" y="478"/>
      <point x="101" y="501"/>
      <point x="101" y="524" type="curve" smooth="yes"/>
      <point x="101" y="569"/>
      <point x="118" y="588"/>
      <point x="149" y="588" type="curve" smooth="yes"/>
      <point x="176" y="588" type="line"/>
      <point x="176" y="714" type="line"/>
      <point x="150" y="714" type="line"/>
      <point x="49" y="714"/>
      <point x="-1" y="650"/>
      <point x="-1" y="539" type="curve" smooth="yes"/>
      <point x="-1" y="511"/>
      <point x="3" y="477"/>
    </contour>
    <contour>
      <point x="285" y="430" type="line"/>
      <point x="285" y="588" type="line"/>
      <point x="291" y="588" type="line" smooth="yes"/>
      <point x="332" y="588"/>
      <point x="340" y="563"/>
      <point x="340" y="512" type="curve" smooth="yes"/>
      <point x="340" y="465"/>
      <point x="326" y="430"/>
      <point x="292" y="430" type="curve" smooth="yes"/>
    </contour>
  </outline>
</glyph>
<glyph name="uni0184" format="2">
  <advance width="500"/>
  <unicode hex="0184"/>
  <anchor x="250" y="0" name="bottom"/>
  <anchor x="250" y="760" name="top"/>
  <outline>
    <contour>
      <point x="256" y="-10" type="curve"/>
      <point x="405" y="-10"/>
      <point x="474" y="84"/>
      <point x="474" y="225" type="curve" smooth="yes"/>
      <point x="474" y="368"/>
      <point x="408" y="451"/>
      <point x="247" y="451" type="curve" smooth="yes"/>
      <point x="198" y="451" type="line"/>
      <point x="198" y="714" type="line"/>
      <point x="46" y="714" type="line"/>
      <point x="46" y="221" type="line" smooth="yes"/>
      <point x="46" y="61"/>
      <point x="113" y="-10"/>
    </contour>
    <contour>
      <point x="261" y="122" type="curve"/>
      <point x="214" y="122"/>
      <point x="198" y="152"/>
      <point x="198" y="224" type="curve" smooth="yes"/>
      <point x="198" y="321" type="line"/>
      <point x="235" y="321" type="line" smooth="yes"/>
      <point x="285" y="321"/>
      <point x="322" y="298"/>
      <point x="322" y="219" type="curve" smooth="yes"/>
      <point x="322" y="150"/>
      <point x="297" y="122"/>
    </contour>
  </outline>
</glyph>
<glyph name="uni0187" format="2">
  <advance width="500"/>
  <unicode hex="0187"/>
  <anchor x="290" y="0" name="bottom"/>
  <anchor x="290" y="885" name="top"/>
  <anchor x="480" y="714" name="topright"/>
  <outline>
    <contour>
      <point x="352" y="674" type="line"/>
      <point x="485" y="674" type="line"/>
      <point x="485" y="689" type="line" smooth="yes"/>
      <point x="485" y="737"/>
      <point x="503" y="751"/>
      <point x="528" y="751" type="curve" smooth="yes"/>
      <point x="543" y="751"/>
      <point x="552" y="749"/>
      <point x="562" y="746" type="curve"/>
      <point x="562" y="875" type="line"/>
      <point x="548" y="880"/>
      <point x="531" y="885"/>
      <point x="495" y="885" type="curve" smooth="yes"/>
      <point x="424" y="885"/>
      <point x="352" y="840"/>
      <point x="352" y="732" type="curve" smooth="yes"/>
    </contour>
    <component base="C"/>
  </outline>
</glyph>
<glyph name="uni0191" format="2">
  <advance width="500"/>
  <unicode hex="0191"/>
  <anchor x="258" y="-240" name="bottom"/>
  <anchor x="266" y="714" name="top"/>
  <outline>
    <contour>
      <point x="1" y="-256" type="curve" smooth="yes"/>
      <point x="117" y="-256"/>
      <point x="200" y="-210"/>
      <point x="200" y="-32" type="curve" smooth="yes"/>
      <point x="200" y="265" type="line"/>
      <point x="443" y="265" type="line"/>
      <point x="443" y="405" type="line"/>
      <point x="200" y="405" type="line"/>
      <point x="200" y="574" type="line"/>
      <point x="460" y="574" type="line"/>
      <point x="460" y="714" type="line"/>
      <point x="45" y="714" type="line"/>
      <point x="45" y="-15" type="line" smooth="yes"/>
      <point x="45" y="-93"/>
      <point x="30" y="-122"/>
      <point x="-27" y="-122" type="curve" smooth="yes"/>
      <point x="-48" y="-122"/>
      <point x="-66" y="-118"/>
      <point x="-82" y="-112" type="curve"/>
      <point x="-82" y="-246" type="line"/>
      <point x="-56" y="-253"/>
      <point x="-28" y="-256"/>
    </contour>
  </outline>
</glyph>
<glyph name="florin" format="2">
  <advance width="500"/>
  <unicode hex="0192"/>
  <anchor x="232" y="-240" name="bottom"/>
  <anchor x="328" y="724" name="top"/>
  <outline>
    <contour>
      <point x="134" y="-240" type="curve" smooth="yes"/>
      <point x="260" y="-240"/>
      <point x="312" y="-179"/>
      <point x="312" y="-38" type="curve" smooth="yes"/>
      <point x="312" y="381" type="line"/>
      <point x="432" y="381" type="line"/>
      <point x="432" y="501" type="line"/>
      <point x="312" y="501" type="line"/>
      <point x="312" y="534" type="line" smooth="yes"/>
      <point x="312" y="581"/>
      <point x="331" y="602"/>
      <point x="376" y="602" type="curve" smooth="yes"/>
      <point x="396" y="602"/>
      <point x="412" y="598"/>
      <point x="431" y="591" type="curve"/>
      <point x="460" y="699" type="line"/>
      <point x="415" y="717"/>
      <point x="386" y="724"/>
      <point x="344" y="724" type="curve" smooth="yes"/>
      <point x="222" y="724"/>
      <point x="166" y="665"/>
      <point x="166" y="523" type="curve" smooth="yes"/>
      <point x="166" y="500" type="line"/>
      <point x="63" y="459" type="line"/>
      <point x="63" y="381" type="line"/>
      <point x="166" y="381" type="line"/>
      <point x="166" y="-52" type="line" smooth="yes"/>
      <point x="166" y="-98"/>
      <point x="149" y="-118"/>
      <point x="102" y="-118" type="curve" smooth="yes"/>
      <point x="84" y="-118"/>
      <point x="66" y="-115"/>
      <point x="47" y="-108" type="curve"/>
      <point x="47" y="-227" type="line"/>
      <point x="69" y="-234"/>
      <point x="95" y="-240"/>
    </contour>
  </outline>
</glyph>
<glyph name="uni0193" format="2">
  <advance width="500"/>
  <unicode hex="0193"/>
  <anchor x="250" y="0" name="bottom"/>
  <anchor x="250" y="885" name="top"/>
  <anchor x="480" y="714" name="topright"/>
  <outline>
    <contour>
      <point x="337" y="680" type="line"/>
      <point x="472" y="680" type="line"/>
      <point x="472" y="695" type="line" smooth="yes"/>
      <point x="472" y="733"/>
      <point x="486" y="747"/>
      <point x="508" y="747" type="curve" smooth="yes"/>
      <point x="527" y="747"/>
      <point x="543" y="741"/>
      <point x="553" y="737" type="curve"/>
      <point x="553" y="870" type="line"/>
      <point x="542" y="876"/>
      <point x="515" y="885"/>
      <point x="479" y="885" type="curve" smooth="yes"/>
      <point x="413" y="885"/>
      <point x="337" y="840"/>
      <point x="337" y="732" type="curve" smooth="yes"/>
    </contour>
    <component base="G"/>
  </outline>
</glyph>
<glyph name="uni0194" format="2">
  <advance width="500"/>
  <unicode hex="0194"/>
  <anchor x="250" y="-240" name="bottom"/>
  <anchor x="250" y="714" name="top"/>
  <outline>
    <contour>
      <point x="248" y="-240" type="curve" smooth="yes"/>
      <point x="365" y="-240"/>
      <point x="414" y="-168"/>
      <point x="414" y="-75" type="curve" smooth="yes"/>
      <point x="414" y="-10"/>
      <point x="391" y="52"/>
      <point x="342" y="142" type="curve"/>
      <point x="495" y="714" type="line"/>
      <point x="324" y="714" type="line"/>
      <point x="278" y="460" type="line" smooth="yes"/>
      <point x="269" y="410"/>
      <point x="253" y="311"/>
      <point x="251" y="281" type="curve"/>
      <point x="248" y="311"/>
      <point x="231" y="410"/>
      <point x="222" y="459" type="curve" smooth="yes"/>
      <point x="177" y="714" type="line"/>
      <point x="5" y="714" type="line"/>
      <point x="155" y="146" type="line"/>
      <point x="108" y="54"/>
      <point x="88" y="-6"/>
      <point x="88" y="-72" type="curve" smooth="yes"/>
      <point x="88" y="-173"/>
      <point x="135" y="-240"/>
    </contour>
    <contour>
      <point x="251" y="-138" type="curve" smooth="yes"/>
      <point x="233" y="-138"/>
      <point x="219" y="-119"/>
      <point x="219" y="-76" type="curve" smooth="yes"/>
      <point x="219" y="-48"/>
      <point x="225" y="-6"/>
      <point x="251" y="33" type="curve"/>
      <point x="276" y="-8"/>
      <point x="284" y="-50"/>
      <point x="284" y="-80" type="curve" smooth="yes"/>
      <point x="284" y="-119"/>
      <point x="270" y="-138"/>
    </contour>
  </outline>
</glyph>
<glyph name="uni0197" format="2">
  <advance width="500"/>
  <unicode hex="0197"/>
  <anchor x="253" y="0" name="bottom"/>
  <anchor x="253" y="714" name="top"/>
  <anchor x="20" y="714" name="topleft"/>
  <anchor x="344" y="10" name="ogonek"/>
  <anchor x="480" y="714" name="topright"/>
  <outline>
    <contour>
      <point x="74" y="304" type="line"/>
      <point x="426" y="304" type="line"/>
      <point x="426" y="438" type="line"/>
      <point x="74" y="438" type="line"/>
    </contour>
    <component base="I"/>
  </outline>
</glyph>
<glyph name="uni01A5" format="2">
  <advance width="500"/>
  <unicode hex="01A5"/>
  <anchor x="270" y="-240" name="bottom"/>
  <anchor x="270" y="765" name="top"/>
  <outline>
    <contour>
      <point x="35" y="-240" type="line"/>
      <point x="186" y="-240" type="line"/>
      <point x="186" y="-63" type="line" smooth="yes"/>
      <point x="186" y="-22"/>
      <point x="180" y="35"/>
      <point x="177" y="56" type="curve"/>
      <point x="186" y="56" type="line"/>
      <point x="215" y="12"/>
      <point x="251" y="-10"/>
      <point x="307" y="-10" type="curve" smooth="yes"/>
      <point x="401" y="-10"/>
      <point x="480" y="99"/>
      <point x="480" y="279" type="curve" smooth="yes"/>
      <point x="480" y="430"/>
      <point x="426" y="563"/>
      <point x="312" y="563" type="curve" smooth="yes"/>
      <point x="245" y="563"/>
      <point x="206" y="535"/>
      <point x="182" y="479" type="curve"/>
      <point x="175" y="479" type="line"/>
      <point x="182" y="516"/>
      <point x="186" y="540"/>
      <point x="186" y="574" type="curve" smooth="yes"/>
      <point x="186" y="582" type="line" smooth="yes"/>
      <point x="186" y="615"/>
      <point x="200" y="632"/>
      <point x="230" y="632" type="curve" smooth="yes"/>
      <point x="244" y="632"/>
      <point x="259" y="629"/>
      <point x="275" y="623" type="curve"/>
      <point x="275" y="753" type="line"/>
      <point x="257" y="759"/>
      <point x="215" y="765"/>
      <point x="191" y="765" type="curve" smooth="yes"/>
      <point x="84" y="765"/>
      <point x="35" y="691"/>
      <point x="35" y="570" type="curve" smooth="yes"/>
    </contour>
    <contour>
      <point x="258" y="128" type="curve" smooth="yes"/>
      <point x="211" y="128"/>
      <point x="186" y="163"/>
      <point x="186" y="277" type="curve" smooth="yes"/>
      <point x="186" y="293" type="line" smooth="yes"/>
      <point x="186" y="390"/>
      <point x="214" y="424"/>
      <point x="256" y="424" type="curve" smooth="yes"/>
      <point x="305" y="424"/>
      <point x="320" y="377"/>
      <point x="320" y="277" type="curve" smooth="yes"/>
      <point x="320" y="178"/>
      <point x="304" y="128"/>
    </contour>
  </outline>
</glyph>
<glyph name="uni01A6" format="2">
  <advance width="500"/>
  <unicode hex="01A6"/>
  <anchor x="266" y="-96" name="bottom"/>
  <anchor x="266" y="714" name="top"/>
  <outline>
    <contour>
      <point x="322" y="-96" type="line"/>
      <point x="485" y="-96" type="line"/>
      <point x="373" y="207" type="line"/>
      <point x="443" y="251"/>
      <point x="467" y="317"/>
      <point x="467" y="407" type="curve" smooth="yes"/>
      <point x="467" y="547"/>
      <point x="387" y="618"/>
      <point x="223" y="618" type="curve" smooth="yes"/>
      <point x="198" y="618" type="line"/>
      <point x="198" y="714" type="line"/>
      <point x="45" y="714" type="line"/>
      <point x="45" y="0" type="line"/>
      <point x="198" y="0" type="line"/>
      <point x="198" y="165" type="line"/>
      <point x="239" y="165" type="line"/>
    </contour>
    <contour>
      <point x="198" y="301" type="line"/>
      <point x="198" y="482" type="line"/>
      <point x="221" y="482" type="line" smooth="yes"/>
      <point x="289" y="482"/>
      <point x="316" y="454"/>
      <point x="316" y="396" type="curve" smooth="yes"/>
      <point x="316" y="332"/>
      <point x="283" y="301"/>
      <point x="220" y="301" type="curve" smooth="yes"/>
    </contour>
  </outline>
</glyph>
<glyph name="uni01BA" format="2">
  <advance width="500"/>
  <unicode hex="01BA"/>
  <anchor x="250" y="-240" name="bottom"/>
  <anchor x="250" y="553" name="top"/>
  <outline>
    <contour>
      <point x="237" y="-240" type="curve" smooth="yes"/>
      <point x="319" y="-240"/>
      <point x="398" y="-220"/>
      <point x="442" y="-197" type="curve"/>
      <point x="442" y="-67" type="line"/>
      <point x="403" y="-83"/>
      <point x="341" y="-107"/>
      <point x="260" y="-107" type="curve" smooth="yes"/>
      <point x="213" y="-107"/>
      <point x="189" y="-100"/>
      <point x="189" y="-72" type="curve" smooth="yes"/>
      <point x="189" y="-54"/>
      <point x="207" y="-34"/>
      <point x="290" y="-34" type="curve" smooth="yes"/>
      <point x="399" y="-34"/>
      <point x="472" y="31"/>
      <point x="472" y="142" type="curve" smooth="yes"/>
      <point x="472" y="240"/>
      <point x="408" y="295"/>
      <point x="308" y="309" type="curve"/>
      <point x="448" y="446" type="line"/>
      <point x="448" y="553" type="line"/>
      <point x="64" y="553" type="line"/>
      <point x="64" y="418" type="line"/>
      <point x="238" y="418" type="line"/>
      <point x="125" y="310" type="line"/>
      <point x="125" y="201" type="line"/>
      <point x="201" y="201" type="line" smooth="yes"/>
      <point x="271" y="201"/>
      <point x="308" y="187"/>
      <point x="308" y="147" type="curve" smooth="yes"/>
      <point x="308" y="112"/>
      <point x="272" y="98"/>
      <point x="236" y="98" type="curve" smooth="yes"/>
      <point x="85" y="98"/>
      <point x="32" y="29"/>
      <point x="32" y="-71" type="curve" smooth="yes"/>
      <point x="32" y="-185"/>
      <point x="108" y="-240"/>
    </contour>
  </outline>
</glyph>
<glyph name="uni01BF" format="2">
  <advance width="500"/>
  <unicode hex="01BF"/>
  <anchor x="273" y="-240" name="bottom"/>
  <anchor x="273" y="553" name="top"/>
  <outline>
    <contour>
      <point x="50" y="-240" type="line"/>
      <point x="201" y="-240" type="line"/>
      <point x="201" y="-10" type="line"/>
      <point x="312" y="0"/>
      <point x="475" y="108"/>
      <point x="475" y="329" type="curve" smooth="yes"/>
      <point x="475" y="488"/>
      <point x="416" y="563"/>
      <point x="317" y="563" type="curve" smooth="yes"/>
      <point x="268" y="563"/>
      <point x="231" y="550"/>
      <point x="201" y="482" type="curve"/>
      <point x="193" y="482" type="line"/>
      <point x="170" y="553" type="line"/>
      <point x="50" y="553" type="line"/>
    </contour>
    <contour>
      <point x="201" y="129" type="curve"/>
      <point x="201" y="288" type="line"/>
      <point x="201" y="388"/>
      <point x="219" y="428"/>
      <point x="265" y="428" type="curve" smooth="yes"/>
      <point x="299" y="428"/>
      <point x="317" y="396"/>
      <point x="317" y="322" type="curve" smooth="yes"/>
      <point x="317" y="197"/>
      <point x="252" y="137"/>
    </contour>
  </outline>
</glyph>
<glyph name="uni01E4" format="2">
  <advance width="500"/>
  <unicode hex="01E4"/>
  <anchor x="312" y="0" name="bottom"/>
  <anchor x="307" y="714" name="top"/>
  <outline>
    <contour>
      <point x="306" y="-10" type="curve" smooth="yes"/>
      <point x="363" y="-10"/>
      <point x="421" y="0"/>
      <point x="475" y="32" type="curve"/>
      <point x="475" y="438" type="line"/>
      <point x="274" y="438" type="line"/>
      <point x="274" y="306" type="line"/>
      <point x="333" y="306" type="line"/>
      <point x="333" y="138" type="line"/>
      <point x="322" y="133"/>
      <point x="300" y="130"/>
      <point x="283" y="130" type="curve" smooth="yes"/>
      <point x="205" y="130"/>
      <point x="169" y="221"/>
      <point x="169" y="343" type="curve" smooth="yes"/>
      <point x="169" y="504"/>
      <point x="216" y="586"/>
      <point x="327" y="586" type="curve" smooth="yes"/>
      <point x="362" y="586"/>
      <point x="392" y="578"/>
      <point x="430" y="554" type="curve"/>
      <point x="472" y="680" type="line"/>
      <point x="433" y="705"/>
      <point x="384" y="725"/>
      <point x="313" y="725" type="curve" smooth="yes"/>
      <point x="129" y="725"/>
      <point x="15" y="591"/>
      <point x="15" y="337" type="curve" smooth="yes"/>
      <point x="15" y="108"/>
      <point x="108" y="-10"/>
    </contour>
    <contour>
      <point x="274" y="164" type="line"/>
      <point x="500" y="164" type="line"/>
      <point x="500" y="279" type="line"/>
      <point x="274" y="279" type="line"/>
    </contour>
  </outline>
</glyph>
<glyph name="uni01F6" format="2">
  <advance width="500"/>
  <unicode hex="01F6"/>
  <anchor x="250" y="0" name="bottom"/>
  <anchor x="250" y="357" name="center"/>
  <anchor x="250" y="714" name="top"/>
  <anchor x="20" y="714" name="topleft"/>
  <outline>
    <contour>
      <point x="333" y="-10" type="curve" smooth="yes"/>
      <point x="425" y="-10"/>
      <point x="471" y="52"/>
      <point x="471" y="151" type="curve" smooth="yes"/>
      <point x="471" y="553" type="line"/>
      <point x="346" y="553" type="line"/>
      <point x="346" y="141" type="line" smooth="yes"/>
      <point x="346" y="127"/>
      <point x="342" y="121"/>
      <point x="333" y="121" type="curve" smooth="yes"/>
      <point x="324" y="121"/>
      <point x="320" y="127"/>
      <point x="320" y="141" type="curve" smooth="yes"/>
      <point x="320" y="714" type="line"/>
      <point x="194" y="714" type="line"/>
      <point x="194" y="439" type="line"/>
      <point x="163" y="439" type="line"/>
      <point x="163" y="714" type="line"/>
      <point x="37" y="714" type="line"/>
      <point x="37" y="0" type="line"/>
      <point x="163" y="0" type="line"/>
      <point x="163" y="307" type="line"/>
      <point x="194" y="307" type="line"/>
      <point x="194" y="151" type="line" smooth="yes"/>
      <point x="194" y="52"/>
      <point x="234" y="-10"/>
    </contour>
  </outline>
</glyph>
<glyph name="uni0224" format="2">
  <advance width="500"/>
  <unicode hex="0224"/>
  <anchor x="266" y="-240" name="bottom"/>
  <anchor x="250" y="714" name="top"/>
  <anchor x="480" y="714" name="topright"/>
  <outline>
    <contour>
      <point x="302" y="-256" type="curve" smooth="yes"/>
      <point x="405" y="-256"/>
      <point x="472" y="-187"/>
      <point x="472" y="-51" type="curve" smooth="yes"/>
      <point x="472" y="140" type="line"/>
      <point x="327" y="140" type="line"/>
      <point x="327" y="0" type="line"/>
      <point x="335" y="0" type="line"/>
      <point x="335" y="-47" type="line" smooth="yes"/>
      <point x="335" y="-107"/>
      <point x="315" y="-131"/>
      <point x="262" y="-131" type="curve" smooth="yes"/>
      <point x="246" y="-131"/>
      <point x="231" y="-128"/>
      <point x="215" y="-122" type="curve"/>
      <point x="215" y="-245" type="line"/>
      <point x="236" y="-252"/>
      <point x="259" y="-256"/>
    </contour>
    <component base="Z"/>
  </outline>
</glyph>
<glyph name="uni0234" format="2">
  <advance width="500"/>
  <unicode hex="0234"/>
  <anchor x="326" y="0" name="bottom"/>
  <anchor x="185" y="760" name="top"/>
  <outline>
    <contour>
      <point x="146" y="-38" type="line"/>
      <point x="154" y="-19"/>
      <point x="168" y="10"/>
      <point x="184" y="26" type="curve"/>
      <point x="208" y="9"/>
      <point x="237" y="-10"/>
      <point x="312" y="-10" type="curve" smooth="yes"/>
      <point x="418" y="-10"/>
      <point x="476" y="56"/>
      <point x="476" y="140" type="curve" smooth="yes"/>
      <point x="476" y="220"/>
      <point x="423" y="269"/>
      <point x="339" y="269" type="curve" smooth="yes"/>
      <point x="301" y="269"/>
      <point x="270" y="259"/>
      <point x="257" y="251" type="curve"/>
      <point x="257" y="760" type="line"/>
      <point x="104" y="760" type="line"/>
      <point x="104" y="200" type="line" smooth="yes"/>
      <point x="104" y="148"/>
      <point x="109" y="122"/>
      <point x="117" y="104" type="curve"/>
      <point x="95" y="82"/>
      <point x="69" y="42"/>
      <point x="57" y="15" type="curve"/>
    </contour>
    <contour>
      <point x="309" y="100" type="curve" smooth="yes"/>
      <point x="279" y="100"/>
      <point x="264" y="118"/>
      <point x="260" y="143" type="curve"/>
      <point x="270" y="156"/>
      <point x="288" y="167"/>
      <point x="312" y="167" type="curve" smooth="yes"/>
      <point x="338" y="167"/>
      <point x="353" y="155"/>
      <point x="353" y="135" type="curve" smooth="yes"/>
      <point x="353" y="114"/>
      <point x="334" y="100"/>
    </contour>
  </outline>
</glyph>
<glyph name="uni0238" format="2">
  <advance width="500"/>
  <unicode hex="0238"/>
  <anchor x="248" y="0" name="bottom"/>
  <anchor x="249" y="760" name="top"/>
  <outline>
    <contour>
      <point x="149" y="-10" type="curve" smooth="yes"/>
      <point x="195" y="-10"/>
      <point x="231" y="16"/>
      <point x="248" y="56" type="curve"/>
      <point x="265" y="16"/>
      <point x="300" y="-10"/>
      <point x="344" y="-10" type="curve" smooth="yes"/>
      <point x="453" y="-10"/>
      <point x="484" y="101"/>
      <point x="484" y="278" type="curve" smooth="yes"/>
      <point x="484" y="489"/>
      <point x="445" y="560"/>
      <point x="373" y="560" type="curve" smooth="yes"/>
      <point x="341" y="560"/>
      <point x="319" y="543"/>
      <point x="306" y="519" type="curve"/>
      <point x="303" y="519" type="line"/>
      <point x="305" y="559"/>
      <point x="305" y="564"/>
      <point x="305" y="585" type="curve" smooth="yes"/>
      <point x="305" y="760" type="line"/>
      <point x="191" y="760" type="line"/>
      <point x="191" y="585" type="line" smooth="yes"/>
      <point x="191" y="564"/>
      <point x="191" y="559"/>
      <point x="194" y="519" type="curve"/>
      <point x="190" y="519" type="line"/>
      <point x="178" y="544"/>
      <point x="157" y="560"/>
      <point x="128" y="560" type="curve" smooth="yes"/>
      <point x="51" y="560"/>
      <point x="12" y="489"/>
      <point x="12" y="278" type="curve" smooth="yes"/>
      <point x="12" y="101"/>
      <point x="41" y="-10"/>
    </contour>
    <contour>
      <point x="161" y="120" type="curve" smooth="yes"/>
      <point x="145" y="120"/>
      <point x="134" y="150"/>
      <point x="134" y="280" type="curve" smooth="yes"/>
      <point x="134" y="402"/>
      <point x="144" y="426"/>
      <point x="162" y="426" type="curve" smooth="yes"/>
      <point x="182" y="426"/>
      <point x="191" y="401"/>
      <point x="191" y="282" type="curve" smooth="yes"/>
      <point x="191" y="151"/>
      <point x="184" y="120"/>
    </contour>
    <contour>
      <point x="333" y="120" type="curve" smooth="yes"/>
      <point x="313" y="120"/>
      <point x="305" y="147"/>
      <point x="305" y="282" type="curve" smooth="yes"/>
      <point x="305" y="401"/>
      <point x="314" y="426"/>
      <point x="333" y="426" type="curve" smooth="yes"/>
      <point x="352" y="426"/>
      <point x="361" y="402"/>
      <point x="361" y="280" type="curve" smooth="yes"/>
      <point x="361" y="144"/>
      <point x="352" y="120"/>
    </contour>
  </outline>
</glyph>
<glyph name="uni0242" format="2">
  <advance width="500"/>
  <unicode hex="0242"/>
  <anchor x="248" y="0" name="bottom"/>
  <anchor x="248" y="553" name="top"/>
  <outline>
    <contour>
      <point x="147" y="0" type="line"/>
      <point x="284" y="0" type="line"/>
      <point x="284" y="106" type="line"/>
      <point x="386" y="177"/>
      <point x="429" y="244"/>
      <point x="429" y="355" type="curve" smooth="yes"/>
      <point x="429" y="479"/>
      <point x="361" y="558"/>
      <point x="232" y="558" type="curve" smooth="yes"/>
      <point x="172" y="558"/>
      <point x="112" y="548"/>
      <point x="54" y="503" type="curve"/>
      <point x="101" y="388" type="line"/>
      <point x="142" y="420"/>
      <point x="170" y="428"/>
      <point x="208" y="428" type="curve" smooth="yes"/>
      <point x="246" y="428"/>
      <point x="280" y="397"/>
      <point x="280" y="344" type="curve" smooth="yes"/>
      <point x="280" y="262"/>
      <point x="248" y="213"/>
      <point x="147" y="160" type="curve"/>
    </contour>
  </outline>
</glyph>
<glyph name="uni0248" format="2">
  <advance width="500"/>
  <unicode hex="0248"/>
  <anchor x="250" y="-218" name="bottom"/>
  <anchor x="275" y="714" name="top"/>
  <outline>
    <contour>
      <point x="79" y="-218" type="curve" smooth="yes"/>
      <point x="258" y="-218"/>
      <point x="350" y="-110"/>
      <point x="350" y="40" type="curve" smooth="yes"/>
      <point x="350" y="714" type="line"/>
      <point x="198" y="714" type="line"/>
      <point x="198" y="76" type="line" smooth="yes"/>
      <point x="198" y="-40"/>
      <point x="140" y="-83"/>
      <point x="59" y="-83" type="curve" smooth="yes"/>
      <point x="37" y="-83"/>
      <point x="2" y="-80"/>
      <point x="-40" y="-67" type="curve"/>
      <point x="-40" y="-199" type="line"/>
      <point x="-3" y="-212"/>
      <point x="37" y="-218"/>
    </contour>
    <contour>
      <point x="58" y="295" type="line"/>
      <point x="470" y="295" type="line"/>
      <point x="470" y="420" type="line"/>
      <point x="58" y="420" type="line"/>
    </contour>
  </outline>
</glyph>
<glyph name="uni024C" format="2">
  <advance width="500"/>
  <unicode hex="024C"/>
  <anchor x="261" y="0" name="bottom"/>
  <anchor x="250" y="714" name="top"/>
  <anchor x="480" y="714" name="topright"/>
  <outline>
    <contour>
      <point x="0" y="261" type="line"/>
      <point x="209" y="261" type="line"/>
      <point x="209" y="397" type="line"/>
      <point x="0" y="397" type="line"/>
    </contour>
    <component base="R"/>
  </outline>
</glyph>
<glyph name="uni024D" format="2">
  <advance width="500"/>
  <unicode hex="024D"/>
  <anchor x="209" y="0" name="bottom"/>
  <anchor x="270" y="553" name="top"/>
  <anchor x="480" y="553" name="topright"/>
  <outline>
    <contour>
      <point x="42" y="206" type="line"/>
      <point x="396" y="206" type="line"/>
      <point x="396" y="322" type="line"/>
      <point x="42" y="322" type="line"/>
    </contour>
    <component base="r"/>
  </outline>
</glyph>
<glyph name="uni0255" format="2">
  <advance width="500"/>
  <unicode hex="0255"/>
  <anchor x="250" y="0" name="bottom"/>
  <anchor x="250" y="553" name="top"/>
  <outline>
    <contour>
      <point x="136" y="-41" type="line"/>
      <point x="141" y="-21"/>
      <point x="152" y="9"/>
      <point x="161" y="25" type="curve"/>
      <point x="189" y="7"/>
      <point x="239" y="-10"/>
      <point x="294" y="-10" type="curve" smooth="yes"/>
      <point x="412" y="-10"/>
      <point x="479" y="44"/>
      <point x="479" y="139" type="curve" smooth="yes"/>
      <point x="479" y="228"/>
      <point x="425" y="276"/>
      <point x="324" y="276" type="curve" smooth="yes"/>
      <point x="274" y="276"/>
      <point x="228" y="256"/>
      <point x="207" y="243" type="curve"/>
      <point x="206" y="251"/>
      <point x="205" y="263"/>
      <point x="205" y="277" type="curve" smooth="yes"/>
      <point x="205" y="377"/>
      <point x="247" y="423"/>
      <point x="324" y="423" type="curve" smooth="yes"/>
      <point x="361" y="423"/>
      <point x="391" y="413"/>
      <point x="422" y="392" type="curve"/>
      <point x="465" y="522" type="line"/>
      <point x="422" y="547"/>
      <point x="370" y="563"/>
      <point x="297" y="563" type="curve" smooth="yes"/>
      <point x="120" y="563"/>
      <point x="45" y="435"/>
      <point x="45" y="274" type="curve" smooth="yes"/>
      <point x="45" y="211"/>
      <point x="56" y="162"/>
      <point x="75" y="122" type="curve"/>
      <point x="54" y="90"/>
      <point x="32" y="47"/>
      <point x="16" y="1" type="curve"/>
    </contour>
    <contour>
      <point x="305" y="100" type="curve" smooth="yes"/>
      <point x="271" y="100"/>
      <point x="251" y="111"/>
      <point x="238" y="137" type="curve"/>
      <point x="251" y="153"/>
      <point x="274" y="166"/>
      <point x="304" y="166" type="curve" smooth="yes"/>
      <point x="330" y="166"/>
      <point x="349" y="154"/>
      <point x="349" y="133" type="curve" smooth="yes"/>
      <point x="349" y="114"/>
      <point x="327" y="100"/>
    </contour>
  </outline>
</glyph>
<glyph name="schwahook" format="2">
  <advance width="500"/>
  <unicode hex="025A"/>
  <anchor x="191" y="0" name="bottom"/>
  <anchor x="191" y="553" name="top"/>
  <outline>
    <contour>
      <point x="168" y="-10" type="curve" smooth="yes"/>
      <point x="277" y="-10"/>
      <point x="326" y="76"/>
      <point x="329" y="261" type="curve"/>
      <point x="339" y="265" type="line"/>
      <point x="355" y="181"/>
      <point x="389" y="161"/>
      <point x="432" y="161" type="curve" smooth="yes"/>
      <point x="463" y="161"/>
      <point x="484" y="177"/>
      <point x="503" y="195" type="curve"/>
      <point x="481" y="258" type="line"/>
      <point x="473" y="250"/>
      <point x="460" y="243"/>
      <point x="448" y="243" type="curve" smooth="yes"/>
      <point x="426" y="243"/>
      <point x="415" y="255"/>
      <point x="404" y="340" type="curve" smooth="yes"/>
      <point x="397" y="392" type="line"/>
      <point x="327" y="364" type="line"/>
      <point x="314" y="490"/>
      <point x="261" y="562"/>
      <point x="159" y="562" type="curve" smooth="yes"/>
      <point x="105" y="562"/>
      <point x="69" y="548"/>
      <point x="42" y="533" type="curve"/>
      <point x="42" y="423" type="line"/>
      <point x="62" y="436"/>
      <point x="91" y="449"/>
      <point x="127" y="449" type="curve" smooth="yes"/>
      <point x="178" y="449"/>
      <point x="199" y="403"/>
      <point x="204" y="321" type="curve"/>
      <point x="22" y="247" type="line"/>
      <point x="22" y="59"/>
      <point x="65" y="-10"/>
    </contour>
    <contour>
      <point x="174" y="106" type="curve" smooth="yes"/>
      <point x="155" y="106"/>
      <point x="148" y="131"/>
      <point x="148" y="194" type="curve"/>
      <point x="204" y="217" type="line"/>
      <point x="204" y="132"/>
      <point x="197" y="106"/>
    </contour>
  </outline>
</glyph>
<glyph name="eopenreversedhook" format="2">
  <advance width="500"/>
  <unicode hex="025D"/>
  <anchor x="178" y="0" name="bottom"/>
  <anchor x="168" y="553" name="top"/>
  <outline>
    <contour>
      <point x="452" y="258" type="curve" smooth="yes"/>
      <point x="483" y="258"/>
      <point x="504" y="274"/>
      <point x="523" y="292" type="curve"/>
      <point x="501" y="355" type="line"/>
      <point x="493" y="347"/>
      <point x="480" y="340"/>
      <point x="468" y="340" type="curve" smooth="yes"/>
      <point x="446" y="340"/>
      <point x="435" y="352"/>
      <point x="424" y="437" type="curve" smooth="yes"/>
      <point x="417" y="489" type="line"/>
      <point x="329" y="454" type="line"/>
      <point x="331" y="351" type="line"/>
      <point x="359" y="362" type="line"/>
      <point x="375" y="278"/>
      <point x="409" y="258"/>
    </contour>
    <component base="afii10073" xOffset="-66"/>
  </outline>
</glyph>
<glyph name="uni0262" format="2">
  <advance width="500"/>
  <unicode hex="0262"/>
  <anchor x="280" y="0" name="bottom"/>
  <anchor x="280" y="553" name="top"/>
  <outline>
    <contour>
      <point x="283" y="-10" type="curve" smooth="yes"/>
      <point x="347" y="-10"/>
      <point x="409" y="10"/>
      <point x="447" y="35" type="curve"/>
      <point x="447" y="312" type="line"/>
      <point x="255" y="312" type="line"/>
      <point x="255" y="207" type="line"/>
      <point x="319" y="207" type="line"/>
      <point x="319" y="117" type="line"/>
      <point x="306" y="115"/>
      <point x="295" y="115"/>
      <point x="284" y="115" type="curve" smooth="yes"/>
      <point x="223" y="115"/>
      <point x="191" y="167"/>
      <point x="191" y="272" type="curve" smooth="yes"/>
      <point x="191" y="385"/>
      <point x="236" y="445"/>
      <point x="302" y="445" type="curve" smooth="yes"/>
      <point x="340" y="445"/>
      <point x="367" y="437"/>
      <point x="404" y="415" type="curve"/>
      <point x="444" y="521" type="line"/>
      <point x="400" y="547"/>
      <point x="349" y="560"/>
      <point x="287" y="560" type="curve" smooth="yes"/>
      <point x="126" y="560"/>
      <point x="53" y="436"/>
      <point x="53" y="272" type="curve" smooth="yes"/>
      <point x="53" y="79"/>
      <point x="137" y="-10"/>
    </contour>
  </outline>
</glyph>
<glyph name="uni0264" format="2">
  <advance width="500"/>
  <unicode hex="0264"/>
  <anchor x="250" y="0" name="bottom"/>
  <anchor x="250" y="553" name="top"/>
  <outline>
    <contour>
      <point x="252" y="-10" type="curve" smooth="yes"/>
      <point x="342" y="-10"/>
      <point x="399" y="35"/>
      <point x="399" y="121" type="curve" smooth="yes"/>
      <point x="399" y="178"/>
      <point x="373" y="231"/>
      <point x="338" y="276" type="curve"/>
      <point x="383" y="361" type="line" smooth="yes"/>
      <point x="409" y="409"/>
      <point x="419" y="427"/>
      <point x="461" y="427" type="curve" smooth="yes"/>
      <point x="471" y="427"/>
      <point x="472" y="426"/>
      <point x="483" y="424" type="curve"/>
      <point x="483" y="543" type="line"/>
      <point x="471" y="549"/>
      <point x="444" y="556"/>
      <point x="410" y="556" type="curve" smooth="yes"/>
      <point x="363" y="556"/>
      <point x="333" y="543"/>
      <point x="302" y="479" type="curve" smooth="yes"/>
      <point x="274" y="421" type="line" smooth="yes"/>
      <point x="267" y="406"/>
      <point x="257" y="384"/>
      <point x="254" y="372" type="curve"/>
      <point x="251" y="372" type="line"/>
      <point x="247" y="384"/>
      <point x="235" y="413"/>
      <point x="231" y="421" type="curve" smooth="yes"/>
      <point x="202" y="480" type="line" smooth="yes"/>
      <point x="177" y="530"/>
      <point x="146" y="556"/>
      <point x="86" y="556" type="curve" smooth="yes"/>
      <point x="60" y="556"/>
      <point x="31" y="551"/>
      <point x="17" y="543" type="curve"/>
      <point x="17" y="424" type="line"/>
      <point x="26" y="427"/>
      <point x="35" y="429"/>
      <point x="44" y="429" type="curve" smooth="yes"/>
      <point x="69" y="429"/>
      <point x="94" y="412"/>
      <point x="119" y="359" type="curve" smooth="yes"/>
      <point x="159" y="274" type="line"/>
      <point x="129" y="233"/>
      <point x="107" y="179"/>
      <point x="107" y="124" type="curve" smooth="yes"/>
      <point x="107" y="40"/>
      <point x="157" y="-10"/>
    </contour>
    <contour>
      <point x="252" y="81" type="curve" smooth="yes"/>
      <point x="237" y="81"/>
      <point x="230" y="94"/>
      <point x="230" y="122" type="curve" smooth="yes"/>
      <point x="230" y="144"/>
      <point x="234" y="170"/>
      <point x="252" y="199" type="curve"/>
      <point x="269" y="170"/>
      <point x="276" y="144"/>
      <point x="276" y="121" type="curve" smooth="yes"/>
      <point x="276" y="96"/>
      <point x="268" y="81"/>
    </contour>
  </outline>
</glyph>
<glyph name="uni0266" format="2">
  <advance width="500"/>
  <unicode hex="0266"/>
  <anchor x="250" y="0" name="bottom"/>
  <anchor x="155" y="760" name="top"/>
  <outline>
    <contour>
      <point x="35" y="0" type="line"/>
      <point x="190" y="0" type="line"/>
      <point x="190" y="278" type="line" smooth="yes"/>
      <point x="190" y="366"/>
      <point x="204" y="418"/>
      <point x="258" y="418" type="curve" smooth="yes"/>
      <point x="313" y="418"/>
      <point x="315" y="376"/>
      <point x="315" y="308" type="curve" smooth="yes"/>
      <point x="315" y="0" type="line"/>
      <point x="470" y="0" type="line"/>
      <point x="470" y="360" type="line" smooth="yes"/>
      <point x="470" y="489"/>
      <point x="412" y="563"/>
      <point x="314" y="563" type="curve" smooth="yes"/>
      <point x="251" y="563"/>
      <point x="208" y="532"/>
      <point x="186" y="484" type="curve"/>
      <point x="177" y="484" type="line"/>
      <point x="186" y="528"/>
      <point x="190" y="555"/>
      <point x="190" y="571" type="curve" smooth="yes"/>
      <point x="190" y="578" type="line" smooth="yes"/>
      <point x="190" y="617"/>
      <point x="204" y="635"/>
      <point x="234" y="635" type="curve" smooth="yes"/>
      <point x="248" y="635"/>
      <point x="263" y="632"/>
      <point x="279" y="626" type="curve"/>
      <point x="279" y="753" type="line"/>
      <point x="261" y="759"/>
      <point x="219" y="765"/>
      <point x="195" y="765" type="curve" smooth="yes"/>
      <point x="88" y="765"/>
      <point x="35" y="691"/>
      <point x="35" y="580" type="curve" smooth="yes"/>
    </contour>
  </outline>
</glyph>
<glyph name="uni0268" format="2">
  <advance width="500"/>
  <unicode hex="0268"/>
  <anchor x="250" y="0" name="bottom"/>
  <anchor x="250" y="774" name="top"/>
  <anchor x="432" y="774" name="topright"/>
  <outline>
    <contour>
      <point x="71" y="215" type="line"/>
      <point x="450" y="215" type="line"/>
      <point x="450" y="331" type="line"/>
      <point x="71" y="331" type="line"/>
    </contour>
    <component base="i"/>
  </outline>
</glyph>
<glyph name="uni026A" format="2">
  <advance width="500"/>
  <unicode hex="026A"/>
  <anchor x="250" y="0" name="bottom"/>
  <anchor x="250" y="553" name="top"/>
  <outline>
    <contour>
      <point x="55" y="0" type="line"/>
      <point x="445" y="0" type="line"/>
      <point x="445" y="115" type="line"/>
      <point x="328" y="130" type="line"/>
      <point x="328" y="423" type="line"/>
      <point x="445" y="438" type="line"/>
      <point x="445" y="553" type="line"/>
      <point x="55" y="553" type="line"/>
      <point x="55" y="438" type="line"/>
      <point x="176" y="423" type="line"/>
      <point x="176" y="130" type="line"/>
      <point x="55" y="115" type="line"/>
    </contour>
  </outline>
</glyph>
<glyph name="uni026D" format="2">
  <advance width="500"/>
  <unicode hex="026D"/>
  <anchor x="342" y="-240" name="bottom"/>
  <anchor x="243" y="760" name="top"/>
  <outline>
    <contour>
      <point x="345" y="-240" type="curve" smooth="yes"/>
      <point x="394" y="-240"/>
      <point x="428" y="-229"/>
      <point x="450" y="-218" type="curve"/>
      <point x="450" y="-86" type="line"/>
      <point x="435" y="-93"/>
      <point x="415" y="-100"/>
      <point x="391" y="-100" type="curve" smooth="yes"/>
      <point x="340" y="-100"/>
      <point x="329" y="-73"/>
      <point x="329" y="-31" type="curve" smooth="yes"/>
      <point x="329" y="760" type="line"/>
      <point x="59" y="760" type="line"/>
      <point x="59" y="643" type="line"/>
      <point x="177" y="633" type="line"/>
      <point x="177" y="-48" type="line" smooth="yes"/>
      <point x="177" y="-182"/>
      <point x="232" y="-240"/>
    </contour>
  </outline>
</glyph>
<glyph name="uni026E" format="2">
  <advance width="500"/>
  <unicode hex="026E"/>
  <anchor x="248" y="-240" name="bottom"/>
  <anchor x="112" y="760" name="top"/>
  <outline>
    <contour>
      <point x="251" y="-240" type="curve" smooth="yes"/>
      <point x="387" y="-240"/>
      <point x="479" y="-143"/>
      <point x="479" y="28" type="curve" smooth="yes"/>
      <point x="479" y="173"/>
      <point x="419" y="228"/>
      <point x="341" y="242" type="curve"/>
      <point x="459" y="453" type="line"/>
      <point x="459" y="553" type="line"/>
      <point x="171" y="553" type="line"/>
      <point x="171" y="760" type="line"/>
      <point x="35" y="760" type="line"/>
      <point x="35" y="0" type="line"/>
      <point x="171" y="0" type="line"/>
      <point x="171" y="425" type="line"/>
      <point x="301" y="425" type="line"/>
      <point x="200" y="241" type="line"/>
      <point x="200" y="132" type="line"/>
      <point x="225" y="132" type="line" smooth="yes"/>
      <point x="297" y="132"/>
      <point x="337" y="104"/>
      <point x="337" y="19" type="curve" smooth="yes"/>
      <point x="337" y="-65"/>
      <point x="294" y="-105"/>
      <point x="231" y="-105" type="curve" smooth="yes"/>
      <point x="186" y="-105"/>
      <point x="167" y="-94"/>
      <point x="146" y="-83" type="curve"/>
      <point x="146" y="-220" type="line"/>
      <point x="168" y="-230"/>
      <point x="200" y="-240"/>
    </contour>
  </outline>
</glyph>
<glyph name="uni0271" format="2">
  <advance width="500"/>
  <unicode hex="0271"/>
  <anchor x="391" y="-240" name="bottom"/>
  <anchor x="252" y="553" name="top"/>
  <outline>
    <contour>
      <point x="343" y="-240" type="curve" smooth="yes"/>
      <point x="418" y="-240"/>
      <point x="485" y="-188"/>
      <point x="485" y="-54" type="curve" smooth="yes"/>
      <point x="485" y="355" type="line" smooth="yes"/>
      <point x="485" y="486"/>
      <point x="479" y="563"/>
      <point x="403" y="563" type="curve" smooth="yes"/>
      <point x="355" y="563"/>
      <point x="328" y="531"/>
      <point x="311" y="483" type="curve"/>
      <point x="307" y="483" type="line"/>
      <point x="296" y="532"/>
      <point x="280" y="563"/>
      <point x="232" y="563" type="curve" smooth="yes"/>
      <point x="188" y="563"/>
      <point x="162" y="547"/>
      <point x="145" y="494" type="curve"/>
      <point x="141" y="494" type="line"/>
      <point x="122" y="553" type="line"/>
      <point x="15" y="553" type="line"/>
      <point x="15" y="0" type="line"/>
      <point x="139" y="0" type="line"/>
      <point x="139" y="385" type="line" smooth="yes"/>
      <point x="139" y="423"/>
      <point x="143" y="444"/>
      <point x="169" y="444" type="curve" smooth="yes"/>
      <point x="187" y="444"/>
      <point x="191" y="428"/>
      <point x="191" y="385" type="curve" smooth="yes"/>
      <point x="191" y="0" type="line"/>
      <point x="310" y="0" type="line"/>
      <point x="310" y="387" type="line" smooth="yes"/>
      <point x="310" y="423"/>
      <point x="314" y="444"/>
      <point x="338" y="444" type="curve" smooth="yes"/>
      <point x="357" y="444"/>
      <point x="361" y="428"/>
      <point x="361" y="388" type="curve" smooth="yes"/>
      <point x="361" y="-64" type="line" smooth="yes"/>
      <point x="361" y="-111"/>
      <point x="345" y="-131"/>
      <point x="309" y="-131" type="curve" smooth="yes"/>
      <point x="288" y="-131"/>
      <point x="270" y="-124"/>
      <point x="257" y="-118" type="curve"/>
      <point x="257" y="-224" type="line"/>
      <point x="278" y="-233"/>
      <point x="304" y="-240"/>
    </contour>
  </outline>
</glyph>
<glyph name="uni0272" format="2">
  <advance width="500"/>
  <unicode hex="0272"/>
  <anchor x="258" y="-240" name="bottom"/>
  <anchor x="254" y="553" name="top"/>
  <outline>
    <contour>
      <point x="37" y="-240" type="curve" smooth="yes"/>
      <point x="141" y="-240"/>
      <point x="190" y="-188"/>
      <point x="190" y="-54" type="curve" smooth="yes"/>
      <point x="190" y="296" type="line" smooth="yes"/>
      <point x="190" y="395"/>
      <point x="210" y="431"/>
      <point x="261" y="431" type="curve" smooth="yes"/>
      <point x="296" y="431"/>
      <point x="315" y="405"/>
      <point x="315" y="331" type="curve" smooth="yes"/>
      <point x="315" y="0" type="line"/>
      <point x="470" y="0" type="line"/>
      <point x="470" y="360" type="line" smooth="yes"/>
      <point x="470" y="499"/>
      <point x="411" y="563"/>
      <point x="311" y="563" type="curve" smooth="yes"/>
      <point x="247" y="563"/>
      <point x="210" y="535"/>
      <point x="185" y="491" type="curve"/>
      <point x="180" y="491" type="line"/>
      <point x="162" y="553" type="line"/>
      <point x="35" y="553" type="line"/>
      <point x="35" y="-64" type="line" smooth="yes"/>
      <point x="35" y="-96"/>
      <point x="22" y="-110"/>
      <point x="-3" y="-110" type="curve" smooth="yes"/>
      <point x="-13" y="-110"/>
      <point x="-22" y="-107"/>
      <point x="-28" y="-104" type="curve"/>
      <point x="-28" y="-229" type="line"/>
      <point x="-10" y="-236"/>
      <point x="11" y="-240"/>
    </contour>
  </outline>
</glyph>
<glyph name="uni0273" format="2">
  <advance width="500"/>
  <unicode hex="0273"/>
  <anchor x="255" y="-240" name="bottom"/>
  <anchor x="258" y="553" name="top"/>
  <outline>
    <contour>
      <point x="464" y="-240" type="curve" smooth="yes"/>
      <point x="493" y="-240"/>
      <point x="518" y="-235"/>
      <point x="540" y="-227" type="curve"/>
      <point x="540" y="-101" type="line"/>
      <point x="530" y="-105"/>
      <point x="519" y="-108"/>
      <point x="508" y="-108" type="curve" smooth="yes"/>
      <point x="483" y="-108"/>
      <point x="470" y="-94"/>
      <point x="470" y="-62" type="curve" smooth="yes"/>
      <point x="470" y="360" type="line" smooth="yes"/>
      <point x="470" y="499"/>
      <point x="411" y="563"/>
      <point x="311" y="563" type="curve" smooth="yes"/>
      <point x="247" y="563"/>
      <point x="210" y="535"/>
      <point x="185" y="491" type="curve"/>
      <point x="180" y="491" type="line"/>
      <point x="162" y="553" type="line"/>
      <point x="35" y="553" type="line"/>
      <point x="35" y="0" type="line"/>
      <point x="190" y="0" type="line"/>
      <point x="190" y="296" type="line" smooth="yes"/>
      <point x="190" y="395"/>
      <point x="210" y="431"/>
      <point x="261" y="431" type="curve" smooth="yes"/>
      <point x="296" y="431"/>
      <point x="315" y="405"/>
      <point x="315" y="331" type="curve" smooth="yes"/>
      <point x="315" y="-54" type="line" smooth="yes"/>
      <point x="315" y="-188"/>
      <point x="360" y="-240"/>
    </contour>
  </outline>
</glyph>
<glyph name="uni0276" format="2">
  <advance width="500"/>
  <unicode hex="0276"/>
  <anchor x="250" y="0" name="bottom"/>
  <anchor x="250" y="553" name="top"/>
  <outline>
    <contour>
      <point x="169" y="-10" type="curve" smooth="yes"/>
      <point x="221" y="-10"/>
      <point x="252" y="12"/>
      <point x="268" y="38" type="curve"/>
      <point x="268" y="0" type="line"/>
      <point x="481" y="0" type="line"/>
      <point x="481" y="122" type="line"/>
      <point x="377" y="122" type="line"/>
      <point x="377" y="215" type="line"/>
      <point x="471" y="215" type="line"/>
      <point x="471" y="337" type="line"/>
      <point x="377" y="337" type="line"/>
      <point x="377" y="431" type="line"/>
      <point x="481" y="431" type="line"/>
      <point x="481" y="553" type="line"/>
      <point x="268" y="553" type="line"/>
      <point x="268" y="512" type="line"/>
      <point x="252" y="545"/>
      <point x="224" y="563"/>
      <point x="175" y="563" type="curve" smooth="yes"/>
      <point x="64" y="563"/>
      <point x="17" y="468"/>
      <point x="17" y="274" type="curve" smooth="yes"/>
      <point x="17" y="89"/>
      <point x="60" y="-10"/>
    </contour>
    <contour>
      <point x="204" y="121" type="curve" smooth="yes"/>
      <point x="169" y="121"/>
      <point x="154" y="157"/>
      <point x="154" y="275" type="curve" smooth="yes"/>
      <point x="154" y="397"/>
      <point x="170" y="432"/>
      <point x="205" y="432" type="curve" smooth="yes"/>
      <point x="242" y="432"/>
      <point x="250" y="394"/>
      <point x="250" y="280" type="curve" smooth="yes"/>
      <point x="250" y="165"/>
      <point x="242" y="121"/>
    </contour>
  </outline>
</glyph>
<glyph name="omegaclosed" format="2">
  <advance width="500"/>
  <unicode hex="0277"/>
  <anchor x="251" y="0" name="bottom"/>
  <anchor x="252" y="553" name="top"/>
  <outline>
    <contour>
      <point x="147" y="-10" type="curve"/>
      <point x="212" y="-10"/>
      <point x="236" y="31"/>
      <point x="249" y="78" type="curve"/>
      <point x="252" y="78" type="line"/>
      <point x="262" y="35"/>
      <point x="285" y="-10"/>
      <point x="351" y="-10" type="curve"/>
      <point x="440" y="-10"/>
      <point x="484" y="64"/>
      <point x="484" y="238" type="curve"/>
      <point x="484" y="447"/>
      <point x="421" y="561"/>
      <point x="252" y="561" type="curve"/>
      <point x="99" y="561"/>
      <point x="16" y="450"/>
      <point x="16" y="238" type="curve"/>
      <point x="16" y="64"/>
      <point x="64" y="-10"/>
    </contour>
    <contour>
      <point x="171" y="125" type="curve" smooth="yes"/>
      <point x="158" y="125"/>
      <point x="149" y="153"/>
      <point x="149" y="244" type="curve" smooth="yes"/>
      <point x="149" y="367"/>
      <point x="169" y="445"/>
      <point x="248" y="445" type="curve"/>
      <point x="331" y="445"/>
      <point x="352" y="366"/>
      <point x="352" y="241" type="curve" smooth="yes"/>
      <point x="352" y="153"/>
      <point x="342" y="125"/>
      <point x="328" y="125" type="curve" smooth="yes"/>
      <point x="319" y="125"/>
      <point x="317" y="135"/>
      <point x="317" y="180" type="curve" smooth="yes"/>
      <point x="317" y="330" type="line"/>
      <point x="184" y="330" type="line"/>
      <point x="184" y="180" type="line" smooth="yes"/>
      <point x="184" y="136"/>
      <point x="180" y="125"/>
    </contour>
  </outline>
</glyph>
<glyph name="uni027A" format="2">
  <advance width="500"/>
  <unicode hex="027A"/>
  <anchor x="262" y="0" name="bottom"/>
  <anchor x="295" y="760" name="top"/>
  <outline>
    <contour>
      <point x="101" y="-10" type="curve" smooth="yes"/>
      <point x="175" y="-10"/>
      <point x="219" y="34"/>
      <point x="236" y="92" type="curve"/>
      <point x="244" y="92" type="line"/>
      <point x="258" y="0" type="line"/>
      <point x="464" y="0" type="line"/>
      <point x="464" y="122" type="line"/>
      <point x="367" y="134" type="line"/>
      <point x="367" y="760" type="line"/>
      <point x="222" y="760" type="line"/>
      <point x="222" y="275" type="line" smooth="yes"/>
      <point x="222" y="200"/>
      <point x="188" y="155"/>
      <point x="124" y="155" type="curve" smooth="yes"/>
      <point x="101" y="155"/>
      <point x="70" y="161"/>
      <point x="49" y="172" type="curve"/>
      <point x="10" y="11" type="line"/>
      <point x="45" y="-6"/>
      <point x="79" y="-10"/>
    </contour>
  </outline>
</glyph>
<glyph name="uni027D" format="2">
  <advance width="500"/>
  <unicode hex="027D"/>
  <anchor x="290" y="-240" name="bottom"/>
  <anchor x="252" y="553" name="top"/>
  <outline>
    <contour>
      <point x="284" y="-240" type="curve" smooth="yes"/>
      <point x="326" y="-240"/>
      <point x="357" y="-230"/>
      <point x="379" y="-219" type="curve"/>
      <point x="379" y="-94" type="line"/>
      <point x="364" y="-100"/>
      <point x="350" y="-105"/>
      <point x="326" y="-105" type="curve" smooth="yes"/>
      <point x="297" y="-105"/>
      <point x="278" y="-91"/>
      <point x="278" y="-54" type="curve" smooth="yes"/>
      <point x="278" y="278" type="line" smooth="yes"/>
      <point x="278" y="353"/>
      <point x="312" y="398"/>
      <point x="376" y="398" type="curve" smooth="yes"/>
      <point x="399" y="398"/>
      <point x="430" y="392"/>
      <point x="451" y="381" type="curve"/>
      <point x="490" y="542" type="line"/>
      <point x="455" y="559"/>
      <point x="421" y="563"/>
      <point x="399" y="563" type="curve" smooth="yes"/>
      <point x="325" y="563"/>
      <point x="281" y="519"/>
      <point x="264" y="461" type="curve"/>
      <point x="256" y="461" type="line"/>
      <point x="242" y="553" type="line"/>
      <point x="36" y="553" type="line"/>
      <point x="36" y="431" type="line"/>
      <point x="133" y="419" type="line"/>
      <point x="133" y="-54" type="line" smooth="yes"/>
      <point x="133" y="-188"/>
      <point x="180" y="-240"/>
    </contour>
  </outline>
</glyph>
<glyph name="uni0280" format="2">
  <advance width="500"/>
  <unicode hex="0280"/>
  <anchor x="269" y="0" name="bottom"/>
  <anchor x="250" y="553" name="top"/>
  <outline>
    <contour>
      <point x="69" y="0" type="line"/>
      <point x="215" y="0" type="line"/>
      <point x="215" y="189" type="line"/>
      <point x="254" y="189" type="line"/>
      <point x="322" y="0" type="line"/>
      <point x="485" y="0" type="line"/>
      <point x="384" y="223" type="line"/>
      <point x="432" y="258"/>
      <point x="451" y="316"/>
      <point x="451" y="379" type="curve" smooth="yes"/>
      <point x="451" y="489"/>
      <point x="386" y="553"/>
      <point x="261" y="553" type="curve" smooth="yes"/>
      <point x="69" y="553" type="line"/>
    </contour>
    <contour>
      <point x="215" y="295" type="line"/>
      <point x="215" y="447" type="line"/>
      <point x="255" y="447" type="line" smooth="yes"/>
      <point x="288" y="447"/>
      <point x="305" y="423"/>
      <point x="305" y="378" type="curve" smooth="yes"/>
      <point x="305" y="319"/>
      <point x="276" y="295"/>
      <point x="246" y="295" type="curve" smooth="yes"/>
    </contour>
  </outline>
</glyph>
<glyph name="uni0288" format="2">
  <advance width="500"/>
  <unicode hex="0288"/>
  <anchor x="270" y="-240" name="bottom"/>
  <anchor x="270" y="682" name="top"/>
  <outline>
    <contour>
      <point x="350" y="-240" type="curve" smooth="yes"/>
      <point x="393" y="-240"/>
      <point x="449" y="-230"/>
      <point x="495" y="-212" type="curve"/>
      <point x="495" y="-77" type="line"/>
      <point x="448" y="-93"/>
      <point x="408" y="-98"/>
      <point x="389" y="-98" type="curve" smooth="yes"/>
      <point x="354" y="-98"/>
      <point x="315" y="-88"/>
      <point x="315" y="-11" type="curve" smooth="yes"/>
      <point x="315" y="418" type="line"/>
      <point x="491" y="418" type="line"/>
      <point x="491" y="552" type="line"/>
      <point x="316" y="552" type="line"/>
      <point x="316" y="682" type="line"/>
      <point x="218" y="682" type="line"/>
      <point x="171" y="552" type="line"/>
      <point x="40" y="492" type="line"/>
      <point x="40" y="418" type="line"/>
      <point x="160" y="418" type="line"/>
      <point x="160" y="-40" type="line" smooth="yes"/>
      <point x="160" y="-177"/>
      <point x="237" y="-240"/>
    </contour>
  </outline>
</glyph>
<glyph name="uni028F" format="2">
  <advance width="500"/>
  <unicode hex="028F"/>
  <anchor x="250" y="0" name="bottom"/>
  <anchor x="250" y="553" name="top"/>
  <outline>
    <contour>
      <point x="175" y="0" type="line"/>
      <point x="326" y="0" type="line"/>
      <point x="326" y="212" type="line"/>
      <point x="493" y="553" type="line"/>
      <point x="326" y="553" type="line"/>
      <point x="252" y="370" type="line"/>
      <point x="175" y="553" type="line"/>
      <point x="7" y="553" type="line"/>
      <point x="175" y="212" type="line"/>
    </contour>
  </outline>
</glyph>
<glyph name="uni0290" format="2">
  <advance width="500"/>
  <unicode hex="0290"/>
  <anchor x="260" y="-240" name="bottom"/>
  <anchor x="250" y="553" name="top"/>
  <anchor x="480" y="553" name="topright"/>
  <outline>
    <contour>
      <point x="444" y="-240" type="curve" smooth="yes"/>
      <point x="471" y="-240"/>
      <point x="499" y="-234"/>
      <point x="515" y="-227" type="curve"/>
      <point x="515" y="-131" type="line"/>
      <point x="506" y="-134"/>
      <point x="496" y="-136"/>
      <point x="486" y="-136" type="curve" smooth="yes"/>
      <point x="468" y="-136"/>
      <point x="455" y="-127"/>
      <point x="455" y="-98" type="curve" smooth="yes"/>
      <point x="455" y="135" type="line"/>
      <point x="331" y="0" type="line"/>
      <point x="331" y="-127" type="line" smooth="yes"/>
      <point x="331" y="-202"/>
      <point x="370" y="-240"/>
    </contour>
    <component base="z"/>
  </outline>
</glyph>
<glyph name="uni0291" format="2">
  <advance width="500"/>
  <unicode hex="0291"/>
  <anchor x="209" y="-101" name="bottom"/>
  <anchor x="209" y="553" name="top"/>
  <outline>
    <contour>
      <point x="244" y="-88" type="line"/>
      <point x="253" y="-59"/>
      <point x="262" y="-29"/>
      <point x="271" y="0" type="curve"/>
      <point x="326" y="0" type="line" smooth="yes"/>
      <point x="408" y="0"/>
      <point x="496" y="43"/>
      <point x="496" y="148" type="curve" smooth="yes"/>
      <point x="496" y="228"/>
      <point x="446" y="263"/>
      <point x="385" y="263" type="curve" smooth="yes"/>
      <point x="317" y="263"/>
      <point x="274" y="232"/>
      <point x="232" y="135" type="curve"/>
      <point x="195" y="135" type="line"/>
      <point x="382" y="446" type="line"/>
      <point x="382" y="553" type="line"/>
      <point x="16" y="553" type="line"/>
      <point x="16" y="418" type="line"/>
      <point x="201" y="418" type="line"/>
      <point x="6" y="98" type="line"/>
      <point x="6" y="0" type="line"/>
      <point x="179" y="0" type="line"/>
      <point x="172" y="-22"/>
      <point x="165" y="-43"/>
      <point x="158" y="-65" type="curve"/>
    </contour>
    <contour>
      <point x="319" y="135" type="line"/>
      <point x="339" y="180"/>
      <point x="353" y="190"/>
      <point x="369" y="190" type="curve" smooth="yes"/>
      <point x="384" y="190"/>
      <point x="394" y="179"/>
      <point x="394" y="163" type="curve" smooth="yes"/>
      <point x="394" y="146"/>
      <point x="380" y="135"/>
      <point x="348" y="135" type="curve" smooth="yes"/>
    </contour>
  </outline>
</glyph>
<glyph name="ezhcurl" format="2">
  <advance width="500"/>
  <unicode hex="0293"/>
  <anchor x="258" y="-241" name="bottom"/>
  <anchor x="249" y="553" name="top"/>
  <outline>
    <contour>
      <point x="437" y="-241" type="curve"/>
      <point x="521" y="-154" type="line"/>
      <point x="497" y="-123"/>
      <point x="465" y="-93"/>
      <point x="443" y="-72" type="curve"/>
      <point x="451" y="-52"/>
      <point x="458" y="-11"/>
      <point x="458" y="30" type="curve" smooth="yes"/>
      <point x="458" y="171"/>
      <point x="382" y="229"/>
      <point x="272" y="244" type="curve"/>
      <point x="434" y="459" type="line"/>
      <point x="434" y="553" type="line"/>
      <point x="58" y="553" type="line"/>
      <point x="58" y="431" type="line"/>
      <point x="264" y="431" type="line"/>
      <point x="121" y="240" type="line"/>
      <point x="121" y="141" type="line"/>
      <point x="171" y="141" type="line" smooth="yes"/>
      <point x="267" y="141"/>
      <point x="310" y="101"/>
      <point x="310" y="41" type="curve" smooth="yes"/>
      <point x="310" y="36"/>
      <point x="310" y="31"/>
      <point x="310" y="25" type="curve"/>
      <point x="284" y="46"/>
      <point x="243" y="66"/>
      <point x="181" y="66" type="curve" smooth="yes"/>
      <point x="75" y="66"/>
      <point x="17" y="9"/>
      <point x="17" y="-85" type="curve" smooth="yes"/>
      <point x="17" y="-185"/>
      <point x="94" y="-240"/>
      <point x="203" y="-240" type="curve" smooth="yes"/>
      <point x="278" y="-240"/>
      <point x="339" y="-214"/>
      <point x="377" y="-178" type="curve"/>
      <point x="393" y="-195"/>
      <point x="420" y="-219"/>
    </contour>
    <contour>
      <point x="190" y="-110" type="curve" smooth="yes"/>
      <point x="158" y="-110"/>
      <point x="139" y="-96"/>
      <point x="139" y="-77" type="curve" smooth="yes"/>
      <point x="139" y="-54"/>
      <point x="154" y="-42"/>
      <point x="183" y="-42" type="curve" smooth="yes"/>
      <point x="210" y="-42"/>
      <point x="246" y="-50"/>
      <point x="277" y="-75" type="curve"/>
      <point x="260" y="-99"/>
      <point x="225" y="-110"/>
    </contour>
  </outline>
</glyph>
<glyph name="uni029F" format="2">
  <advance width="500"/>
  <unicode hex="029F"/>
  <anchor x="272" y="0" name="bottom"/>
  <anchor x="163" y="553" name="top"/>
  <outline>
    <contour>
      <point x="90" y="0" type="line"/>
      <point x="441" y="0" type="line"/>
      <point x="441" y="135" type="line"/>
      <point x="234" y="135" type="line"/>
      <point x="234" y="553" type="line"/>
      <point x="90" y="553" type="line"/>
    </contour>
  </outline>
</glyph>
<glyph name="dzlig" format="2">
  <advance width="500"/>
  <unicode hex="02A3"/>
  <anchor x="250" y="0" name="bottom"/>
  <anchor x="250" y="760" name="top"/>
  <outline>
    <contour>
      <point x="124" y="-10" type="curve" smooth="yes"/>
      <point x="155" y="-10"/>
      <point x="175" y="11"/>
      <point x="187" y="36" type="curve"/>
      <point x="192" y="36" type="line"/>
      <point x="205" y="0" type="line"/>
      <point x="490" y="0" type="line"/>
      <point x="490" y="108" type="line"/>
      <point x="410" y="108" type="line"/>
      <point x="485" y="471" type="line"/>
      <point x="485" y="553" type="line"/>
      <point x="299" y="553" type="line"/>
      <point x="299" y="760" type="line"/>
      <point x="187" y="760" type="line"/>
      <point x="187" y="588" type="line" smooth="yes"/>
      <point x="187" y="567"/>
      <point x="187" y="541"/>
      <point x="189" y="519" type="curve"/>
      <point x="187" y="519" type="line"/>
      <point x="176" y="544"/>
      <point x="163" y="563"/>
      <point x="128" y="563" type="curve" smooth="yes"/>
      <point x="62" y="563"/>
      <point x="20" y="495"/>
      <point x="20" y="278" type="curve" smooth="yes"/>
      <point x="20" y="51"/>
      <point x="54" y="-10"/>
    </contour>
    <contour>
      <point x="160" y="98" type="curve" smooth="yes"/>
      <point x="143" y="98"/>
      <point x="134" y="120"/>
      <point x="134" y="280" type="curve" smooth="yes"/>
      <point x="134" y="432"/>
      <point x="143" y="454"/>
      <point x="161" y="454" type="curve" smooth="yes"/>
      <point x="176" y="454"/>
      <point x="187" y="434"/>
      <point x="187" y="297" type="curve" smooth="yes"/>
      <point x="187" y="265" type="line" smooth="yes"/>
      <point x="187" y="118"/>
      <point x="176" y="98"/>
    </contour>
    <contour>
      <point x="299" y="100" type="line"/>
      <point x="299" y="448" type="line"/>
      <point x="369" y="448" type="line"/>
    </contour>
  </outline>
</glyph>
<glyph name="tcligcurl" format="2">
  <advance width="500"/>
  <unicode hex="02A8"/>
  <anchor x="258" y="0" name="bottom"/>
  <anchor x="258" y="677" name="top"/>
  <outline>
    <contour>
      <point x="94" y="-10" type="curve" smooth="yes"/>
      <point x="353" y="-10"/>
      <point x="418" y="195"/>
      <point x="535" y="195" type="curve" smooth="yes"/>
      <point x="569" y="195"/>
      <point x="581" y="179"/>
      <point x="581" y="156" type="curve" smooth="yes"/>
      <point x="581" y="123"/>
      <point x="555" y="110"/>
      <point x="519" y="110" type="curve" smooth="yes"/>
      <point x="426" y="110"/>
      <point x="394" y="194"/>
      <point x="394" y="279" type="curve" smooth="yes"/>
      <point x="394" y="383"/>
      <point x="439" y="429"/>
      <point x="528" y="429" type="curve" smooth="yes"/>
      <point x="568" y="429"/>
      <point x="607" y="420"/>
      <point x="647" y="392" type="curve"/>
      <point x="699" y="520" type="line"/>
      <point x="644" y="550"/>
      <point x="577" y="563"/>
      <point x="511" y="563" type="curve" smooth="yes"/>
      <point x="330" y="563"/>
      <point x="243" y="459"/>
      <point x="243" y="276" type="curve" smooth="yes"/>
      <point x="243" y="86"/>
      <point x="346" y="-10"/>
      <point x="511" y="-10" type="curve" smooth="yes"/>
      <point x="641" y="-10"/>
      <point x="717" y="55"/>
      <point x="717" y="156" type="curve" smooth="yes"/>
      <point x="717" y="264"/>
      <point x="653" y="319"/>
      <point x="547" y="319" type="curve" smooth="yes"/>
      <point x="357" y="319"/>
      <point x="305" y="135"/>
      <point x="138" y="135" type="curve" smooth="yes"/>
      <point x="94" y="135"/>
      <point x="57" y="158"/>
      <point x="57" y="229" type="curve" smooth="yes"/>
      <point x="57" y="413" type="line"/>
      <point x="222" y="413" type="line"/>
      <point x="222" y="553" type="line"/>
      <point x="57" y="553" type="line"/>
      <point x="57" y="677" type="line"/>
      <point x="-54" y="677" type="line"/>
      <point x="-81" y="552" type="line"/>
      <point x="-217" y="498" type="line"/>
      <point x="-217" y="413" type="line"/>
      <point x="-99" y="413" type="line"/>
      <point x="-99" y="204" type="line" smooth="yes"/>
      <point x="-99" y="68"/>
      <point x="-48" y="-10"/>
    </contour>
  </outline>
</glyph>
<glyph name="uni02AB" format="2">
  <advance width="500"/>
  <unicode hex="02AB"/>
  <anchor x="250" y="0" name="bottom"/>
  <anchor x="250" y="760" name="top"/>
  <outline>
    <contour>
      <point x="40" y="0" type="line"/>
      <point x="475" y="0" type="line"/>
      <point x="475" y="135" type="line"/>
      <point x="344" y="135" type="line"/>
      <point x="467" y="436" type="line"/>
      <point x="467" y="553" type="line"/>
      <point x="195" y="553" type="line"/>
      <point x="195" y="760" type="line"/>
      <point x="40" y="760" type="line"/>
    </contour>
    <contour>
      <point x="195" y="135" type="line"/>
      <point x="195" y="418" type="line"/>
      <point x="309" y="418" type="line"/>
    </contour>
  </outline>
</glyph>
<glyph name="uni02BF" format="2">
  <advance width="500"/>
  <unicode hex="02BF"/>
  <outline>
    <contour>
      <point x="316" y="575" type="curve"/>
      <point x="316" y="660" type="line"/>
      <point x="299" y="660"/>
      <point x="282" y="674"/>
      <point x="282" y="695" type="curve" smooth="yes"/>
      <point x="282" y="716"/>
      <point x="296" y="730"/>
      <point x="316" y="730" type="curve"/>
      <point x="316" y="816" type="line"/>
      <point x="244" y="816"/>
      <point x="185" y="770"/>
      <point x="185" y="694" type="curve" smooth="yes"/>
      <point x="185" y="621"/>
      <point x="245" y="575"/>
    </contour>
  </outline>
</glyph>
<glyph name="uni02C0" format="2">
  <advance width="500"/>
  <unicode hex="02C0"/>
  <outline>
    <contour>
      <point x="174" y="480" type="line"/>
      <point x="285" y="480" type="line"/>
      <point x="285" y="520" type="line"/>
      <point x="349" y="544"/>
      <point x="373" y="580"/>
      <point x="373" y="640" type="curve" smooth="yes"/>
      <point x="373" y="716"/>
      <point x="327" y="766"/>
      <point x="236" y="766" type="curve" smooth="yes"/>
      <point x="191" y="766"/>
      <point x="155" y="755"/>
      <point x="127" y="736" type="curve"/>
      <point x="162" y="650" type="line"/>
      <point x="177" y="664"/>
      <point x="193" y="670"/>
      <point x="208" y="670" type="curve" smooth="yes"/>
      <point x="229" y="670"/>
      <point x="242" y="655"/>
      <point x="242" y="636" type="curve" smooth="yes"/>
      <point x="242" y="606"/>
      <point x="220" y="594"/>
      <point x="174" y="580" type="curve"/>
    </contour>
  </outline>
</glyph>
<glyph name="uni02D1" format="2">
  <advance width="500"/>
  <unicode hex="02D1"/>
  <outline>
    <contour>
      <point x="250" y="414" type="line"/>
      <point x="322" y="553" type="line"/>
      <point x="179" y="553" type="line"/>
    </contour>
  </outline>
</glyph>
<glyph name="dotaccent" format="2">
  <advance width="500"/>
  <unicode hex="02D9"/>
  <outline>
    <contour>
      <point x="250" y="608" type="curve" smooth="yes"/>
      <point x="312" y="608"/>
      <point x="338" y="639"/>
      <point x="338" y="691" type="curve" smooth="yes"/>
      <point x="338" y="745"/>
      <point x="311" y="774"/>
      <point x="250" y="774" type="curve" smooth="yes"/>
      <point x="191" y="774"/>
      <point x="161" y="745"/>
      <point x="161" y="691" type="curve" smooth="yes"/>
      <point x="161" y="636"/>
      <point x="193" y="608"/>
    </contour>
  </outline>
</glyph>
<glyph name="hungarumlaut" format="2">
  <advance width="500"/>
  <unicode hex="02DD"/>
  <outline>
    <contour>
      <point x="247" y="606" type="line"/>
      <point x="320" y="606" type="line"/>
      <point x="360" y="645"/>
      <point x="424" y="717"/>
      <point x="445" y="757" type="curve"/>
      <point x="445" y="766" type="line"/>
      <point x="320" y="766" type="line"/>
      <point x="309" y="740"/>
      <point x="282" y="684"/>
      <point x="247" y="619" type="curve"/>
    </contour>
    <contour>
      <point x="79" y="606" type="line"/>
      <point x="146" y="606" type="line"/>
      <point x="196" y="650"/>
      <point x="253" y="715"/>
      <point x="276" y="757" type="curve"/>
      <point x="276" y="766" type="line"/>
      <point x="151" y="766" type="line"/>
      <point x="140" y="740"/>
      <point x="114" y="686"/>
      <point x="79" y="619" type="curve"/>
    </contour>
  </outline>
</glyph>
<glyph name="rhotichookmod" format="2">
  <advance width="500"/>
  <unicode hex="02DE"/>
  <outline>
    <contour>
      <point x="218" y="169" type="curve" smooth="yes"/>
      <point x="263" y="169"/>
      <point x="299" y="183"/>
      <point x="331" y="212" type="curve"/>
      <point x="288" y="300" type="line"/>
      <point x="277" y="288"/>
      <point x="257" y="280"/>
      <point x="235" y="280" type="curve" smooth="yes"/>
      <point x="196" y="280"/>
      <point x="174" y="298"/>
      <point x="150" y="371" type="curve" smooth="yes"/>
      <point x="135" y="417" type="line"/>
      <point x="-81" y="348" type="line"/>
      <point x="-53" y="243" type="line"/>
      <point x="64" y="282" type="line"/>
      <point x="91" y="204"/>
      <point x="147" y="169"/>
    </contour>
  </outline>
</glyph>
<glyph name="uni02F2" format="2">
  <advance width="500"/>
  <unicode hex="02F2"/>
  <outline>
    <contour>
      <point x="148" y="-238" type="line"/>
      <point x="352" y="-132" type="line"/>
      <point x="352" y="-85" type="line"/>
      <point x="148" y="21" type="line"/>
      <point x="148" y="-46" type="line"/>
      <point x="279" y="-109" type="line"/>
      <point x="148" y="-171" type="line"/>
    </contour>
  </outline>
</glyph>
<glyph name="uni02F9" format="2">
  <advance width="500"/>
  <unicode hex="02F9"/>
  <outline>
    <contour>
      <point x="167" y="415" type="line"/>
      <point x="220" y="415" type="line"/>
      <point x="220" y="628" type="line"/>
      <point x="333" y="628" type="line"/>
      <point x="333" y="681" type="line"/>
      <point x="167" y="681" type="line"/>
    </contour>
  </outline>
</glyph>
<glyph name="ringhalfleftbelowcomb" format="2">
  <unicode hex="031C"/>
  <anchor x="0" y="0" name="_bottom"/>
  <anchor x="0" y="-240" name="bottom"/>
  <outline>
    <contour>
      <point x="65" y="-240" type="curve"/>
      <point x="65" y="-160" type="line"/>
      <point x="48" y="-160"/>
      <point x="31" y="-147"/>
      <point x="31" y="-127" type="curve"/>
      <point x="31" y="-108"/>
      <point x="45" y="-95"/>
      <point x="65" y="-95" type="curve"/>
      <point x="65" y="-14" type="line"/>
      <point x="-17" y="-14"/>
      <point x="-66" y="-57"/>
      <point x="-66" y="-128" type="curve"/>
      <point x="-66" y="-197"/>
      <point x="-16" y="-240"/>
    </contour>
  </outline>
</glyph>
<glyph name="dblarchinvertedbelowcomb" format="2">
  <unicode hex="032B"/>
  <anchor x="0" y="0" name="_bottom"/>
  <anchor x="0" y="-176" name="bottom"/>
  <outline>
    <contour>
      <point x="-65" y="-176" type="curve"/>
      <point x="-37" y="-176"/>
      <point x="-15" y="-164"/>
      <point x="-1" y="-140" type="curve"/>
      <point x="14" y="-164"/>
      <point x="35" y="-176"/>
      <point x="64" y="-176" type="curve"/>
      <point x="117" y="-176"/>
      <point x="156" y="-138"/>
      <point x="156" y="-61" type="curve"/>
      <point x="107" y="-61" type="line"/>
      <point x="107" y="-106"/>
      <point x="91" y="-127"/>
      <point x="64" y="-127" type="curve"/>
      <point x="36" y="-127"/>
      <point x="20" y="-106"/>
      <point x="20" y="-61" type="curve"/>
      <point x="-21" y="-61" type="line"/>
      <point x="-21" y="-106"/>
      <point x="-39" y="-127"/>
      <point x="-65" y="-127" type="curve"/>
      <point x="-94" y="-127"/>
      <point x="-107" y="-106"/>
      <point x="-107" y="-61" type="curve"/>
      <point x="-156" y="-61" type="line"/>
      <point x="-156" y="-137"/>
      <point x="-118" y="-176"/>
    </contour>
  </outline>
</glyph>
<glyph name="arrowheadrightabovecomb" format="2">
  <unicode hex="0350"/>
  <anchor x="0" y="553" name="_top"/>
  <anchor x="0" y="791" name="top"/>
  <outline>
    <contour>
      <point x="-66" y="590" type="line"/>
      <point x="-57" y="590" type="line"/>
      <point x="-28" y="613"/>
      <point x="27" y="644"/>
      <point x="66" y="657" type="curve"/>
      <point x="66" y="722" type="line"/>
      <point x="28" y="736"/>
      <point x="-26" y="770"/>
      <point x="-57" y="791" type="curve"/>
      <point x="-66" y="791" type="line"/>
      <point x="-66" y="742" type="line"/>
      <point x="-45" y="724"/>
      <point x="-23" y="709"/>
      <point x="7" y="690" type="curve"/>
      <point x="-23" y="672"/>
      <point x="-48" y="656"/>
      <point x="-66" y="639" type="curve"/>
    </contour>
  </outline>
</glyph>
<glyph name="arrowheadrightheadupbelowcomb" format="2">
  <unicode hex="0356"/>
  <anchor x="0" y="0" name="_bottom"/>
  <anchor x="0" y="-240" name="bottom"/>
  <outline>
    <contour>
      <point x="-18" y="-236" type="line"/>
      <point x="30" y="-236" type="line"/>
      <point x="43" y="-209"/>
      <point x="57" y="-162"/>
      <point x="68" y="-124" type="curve"/>
      <point x="78" y="-161"/>
      <point x="94" y="-211"/>
      <point x="106" y="-236" type="curve"/>
      <point x="155" y="-236" type="line"/>
      <point x="155" y="-224" type="line"/>
      <point x="139" y="-184"/>
      <point x="113" y="-99"/>
      <point x="105" y="-53" type="curve"/>
      <point x="35" y="-53" type="line"/>
      <point x="24" y="-99"/>
      <point x="-3" y="-186"/>
      <point x="-18" y="-224" type="curve"/>
    </contour>
    <contour>
      <point x="-156" y="-240" type="line"/>
      <point x="-147" y="-240" type="line"/>
      <point x="-118" y="-218"/>
      <point x="-63" y="-186"/>
      <point x="-24" y="-174" type="curve"/>
      <point x="-24" y="-108" type="line"/>
      <point x="-62" y="-94"/>
      <point x="-116" y="-60"/>
      <point x="-147" y="-40" type="curve"/>
      <point x="-156" y="-40" type="line"/>
      <point x="-156" y="-88" type="line"/>
      <point x="-135" y="-106"/>
      <point x="-113" y="-122"/>
      <point x="-83" y="-140" type="curve"/>
      <point x="-113" y="-158"/>
      <point x="-138" y="-174"/>
      <point x="-156" y="-191" type="curve"/>
    </contour>
  </outline>
</glyph>
<glyph name="doubleringbelowcomb" format="2">
  <unicode hex="035A"/>
  <anchor x="0" y="0" name="_bottom"/>
  <anchor x="0" y="-240" name="bottom"/>
  <outline>
    <contour>
      <point x="-78" y="-240" type="curve"/>
      <point x="-45" y="-240"/>
      <point x="-18" y="-226"/>
      <point x="0" y="-200" type="curve"/>
      <point x="17" y="-226"/>
      <point x="44" y="-240"/>
      <point x="78" y="-240" type="curve"/>
      <point x="139" y="-240"/>
      <point x="181" y="-201"/>
      <point x="181" y="-134" type="curve"/>
      <point x="181" y="-68"/>
      <point x="139" y="-29"/>
      <point x="78" y="-29" type="curve"/>
      <point x="43" y="-29"/>
      <point x="15" y="-43"/>
      <point x="0" y="-69" type="curve"/>
      <point x="-16" y="-43"/>
      <point x="-44" y="-29"/>
      <point x="-78" y="-29" type="curve"/>
      <point x="-140" y="-29"/>
      <point x="-182" y="-68"/>
      <point x="-182" y="-134" type="curve"/>
      <point x="-182" y="-201"/>
      <point x="-140" y="-240"/>
    </contour>
    <contour>
      <point x="-78" y="-191" type="curve"/>
      <point x="-112" y="-191"/>
      <point x="-130" y="-170"/>
      <point x="-130" y="-134" type="curve"/>
      <point x="-130" y="-99"/>
      <point x="-107" y="-77"/>
      <point x="-78" y="-77" type="curve"/>
      <point x="-48" y="-77"/>
      <point x="-26" y="-99"/>
      <point x="-26" y="-134" type="curve"/>
      <point x="-26" y="-170"/>
      <point x="-48" y="-191"/>
    </contour>
    <contour>
      <point x="78" y="-191" type="curve"/>
      <point x="47" y="-191"/>
      <point x="26" y="-170"/>
      <point x="26" y="-134" type="curve"/>
      <point x="26" y="-99"/>
      <point x="48" y="-77"/>
      <point x="78" y="-77" type="curve"/>
      <point x="107" y="-77"/>
      <point x="129" y="-99"/>
      <point x="129" y="-134" type="curve"/>
      <point x="129" y="-170"/>
      <point x="111" y="-191"/>
    </contour>
  </outline>
</glyph>
<glyph name="doublebrevebelowcomb" format="2">
  <unicode hex="035C"/>
  <anchor x="0" y="0" name="_bottom"/>
  <anchor x="0" y="-245" name="bottom"/>
  <outline>
    <contour>
      <point x="1" y="-245" type="curve"/>
      <point x="156" y="-245"/>
      <point x="272" y="-184"/>
      <point x="325" y="-42" type="curve"/>
      <point x="222" y="-42" type="line"/>
      <point x="173" y="-101"/>
      <point x="105" y="-133"/>
      <point x="2" y="-133" type="curve"/>
      <point x="-101" y="-133"/>
      <point x="-177" y="-94"/>
      <point x="-222" y="-42" type="curve"/>
      <point x="-325" y="-42" type="line"/>
      <point x="-284" y="-173"/>
      <point x="-177" y="-245"/>
    </contour>
  </outline>
</glyph>
<glyph name="heta" format="2">
  <advance width="500"/>
  <unicode hex="0371"/>
  <anchor x="250" y="0" name="bottom"/>
  <anchor x="250" y="553" name="top"/>
  <outline>
    <contour>
      <point x="126" y="0" type="line"/>
      <point x="288" y="0" type="line"/>
      <point x="288" y="215" type="line"/>
      <point x="374" y="215" type="line"/>
      <point x="374" y="351" type="line"/>
      <point x="288" y="351" type="line"/>
      <point x="288" y="553" type="line"/>
      <point x="126" y="553" type="line"/>
    </contour>
  </outline>
</glyph>
<glyph name="archaicsampi" format="2">
  <advance width="500"/>
  <unicode hex="0373"/>
  <anchor x="249" y="0" name="bottom"/>
  <anchor x="250" y="357" name="center"/>
  <anchor x="250" y="760" name="top"/>
  <outline>
    <contour>
      <point x="174" y="0" type="line"/>
      <point x="327" y="0" type="line"/>
      <point x="327" y="620" type="line"/>
      <point x="485" y="620" type="line"/>
      <point x="485" y="760" type="line"/>
      <point x="15" y="760" type="line"/>
      <point x="15" y="620" type="line"/>
      <point x="174" y="620" type="line"/>
    </contour>
    <contour>
      <point x="15" y="435" type="line"/>
      <point x="131" y="435" type="line"/>
      <point x="131" y="760" type="line"/>
      <point x="15" y="760" type="line"/>
    </contour>
    <contour>
      <point x="369" y="435" type="line"/>
      <point x="485" y="435" type="line"/>
      <point x="485" y="760" type="line"/>
      <point x="369" y="760" type="line"/>
    </contour>
  </outline>
</glyph>
<glyph name="Etatonos" format="2">
  <advance width="500"/>
  <unicode hex="0389"/>
  <anchor x="275" y="0" name="bottom"/>
  <anchor x="275" y="375" name="center"/>
  <anchor x="275" y="714" name="top"/>
  <anchor x="45" y="714" name="topleft"/>
  <outline>
    <contour>
      <point x="75" y="0" type="line"/>
      <point x="228" y="0" type="line"/>
      <point x="228" y="298" type="line"/>
      <point x="322" y="298" type="line"/>
      <point x="322" y="0" type="line"/>
      <point x="475" y="0" type="line"/>
      <point x="475" y="714" type="line"/>
      <point x="322" y="714" type="line"/>
      <point x="322" y="438" type="line"/>
      <point x="228" y="438" type="line"/>
      <point x="228" y="714" type="line"/>
      <point x="75" y="714" type="line"/>
    </contour>
    <component base="tonos" xOffset="-285"/>
  </outline>
</glyph>
<glyph name="Delta" format="2">
  <advance width="500"/>
  <unicode hex="0394"/>
  <anchor x="250" y="0" name="bottom"/>
  <anchor x="250" y="714" name="top"/>
  <outline>
    <contour>
      <point x="5" y="0" type="line"/>
      <point x="495" y="0" type="line"/>
      <point x="495" y="88" type="line"/>
      <point x="350" y="714" type="line"/>
      <point x="149" y="714" type="line"/>
      <point x="5" y="90" type="line"/>
    </contour>
    <contour>
      <point x="176" y="132" type="line"/>
      <point x="237" y="495" type="line" smooth="yes"/>
      <point x="241" y="520"/>
      <point x="247" y="549"/>
      <point x="250" y="580" type="curve"/>
      <point x="254" y="550"/>
      <point x="260" y="521"/>
      <point x="264" y="495" type="curve" smooth="yes"/>
      <point x="324" y="132" type="line"/>
    </contour>
  </outline>
</glyph>
<glyph name="Theta" format="2">
  <advance width="500"/>
  <unicode hex="0398"/>
  <anchor x="250" y="0" name="bottom"/>
  <anchor x="250" y="714" name="top"/>
  <anchor x="20" y="714" name="topleft"/>
  <anchor x="267" y="10" name="ogonek"/>
  <anchor x="250" y="357" name="center"/>
  <anchor x="500" y="714" name="topright"/>
  <outline>
    <contour>
      <point x="195" y="302" type="line"/>
      <point x="305" y="302" type="line"/>
      <point x="305" y="424" type="line"/>
      <point x="195" y="424" type="line"/>
    </contour>
    <component base="O"/>
  </outline>
</glyph>
<glyph name="Pi" format="2">
  <advance width="500"/>
  <unicode hex="03A0"/>
  <anchor x="250" y="0" name="bottom"/>
  <anchor x="250" y="714" name="top"/>
  <outline>
    <contour>
      <point x="25" y="0" type="line"/>
      <point x="178" y="0" type="line"/>
      <point x="178" y="581" type="line"/>
      <point x="322" y="581" type="line"/>
      <point x="322" y="0" type="line"/>
      <point x="475" y="0" type="line"/>
      <point x="475" y="714" type="line"/>
      <point x="25" y="714" type="line"/>
    </contour>
  </outline>
</glyph>
<glyph name="Sigma" format="2">
  <advance width="500"/>
  <unicode hex="03A3"/>
  <anchor x="250" y="0" name="bottom"/>
  <anchor x="250" y="714" name="top"/>
  <outline>
    <contour>
      <point x="45" y="0" type="line"/>
      <point x="462" y="0" type="line"/>
      <point x="462" y="132" type="line"/>
      <point x="303" y="132" type="line" smooth="yes"/>
      <point x="276" y="132"/>
      <point x="246" y="131"/>
      <point x="213" y="127" type="curve"/>
      <point x="369" y="375" type="line"/>
      <point x="228" y="588" type="line"/>
      <point x="247" y="585"/>
      <point x="275" y="584"/>
      <point x="312" y="584" type="curve" smooth="yes"/>
      <point x="442" y="584" type="line"/>
      <point x="442" y="714" type="line"/>
      <point x="54" y="714" type="line"/>
      <point x="54" y="593" type="line"/>
      <point x="201" y="374" type="line"/>
      <point x="45" y="125" type="line"/>
    </contour>
  </outline>
</glyph>
<glyph name="Omega" format="2">
  <advance width="500"/>
  <unicode hex="03A9"/>
  <anchor x="249" y="0" name="bottom"/>
  <anchor x="249" y="714" name="top"/>
  <anchor x="20" y="714" name="topleft"/>
  <outline>
    <contour>
      <point x="5" y="0" type="line"/>
      <point x="227" y="0" type="line"/>
      <point x="227" y="147" type="line"/>
      <point x="184" y="189"/>
      <point x="162" y="262"/>
      <point x="162" y="386" type="curve" smooth="yes"/>
      <point x="162" y="523"/>
      <point x="189" y="593"/>
      <point x="250" y="593" type="curve" smooth="yes"/>
      <point x="311" y="593"/>
      <point x="339" y="522"/>
      <point x="339" y="386" type="curve" smooth="yes"/>
      <point x="339" y="262"/>
      <point x="316" y="190"/>
      <point x="271" y="147" type="curve"/>
      <point x="271" y="0" type="line"/>
      <point x="495" y="0" type="line"/>
      <point x="495" y="132" type="line"/>
      <point x="374" y="132" type="line"/>
      <point x="441" y="182"/>
      <point x="482" y="270"/>
      <point x="482" y="409" type="curve" smooth="yes"/>
      <point x="482" y="618"/>
      <point x="389" y="725"/>
      <point x="249" y="725" type="curve" smooth="yes"/>
      <point x="103" y="725"/>
      <point x="17" y="609"/>
      <point x="17" y="416" type="curve" smooth="yes"/>
      <point x="17" y="261"/>
      <point x="73" y="177"/>
      <point x="123" y="132" type="curve"/>
      <point x="5" y="132" type="line"/>
    </contour>
  </outline>
</glyph>
<glyph name="alpha" format="2">
  <advance width="500"/>
  <unicode hex="03B1"/>
  <anchor x="259" y="0" name="bottom"/>
  <anchor x="250" y="553" name="top"/>
  <outline>
    <contour>
      <point x="179" y="-10" type="curve" smooth="yes"/>
      <point x="231" y="-10"/>
      <point x="268" y="17"/>
      <point x="298" y="73" type="curve"/>
      <point x="307" y="73" type="line"/>
      <point x="326" y="17"/>
      <point x="364" y="-10"/>
      <point x="424" y="-10" type="curve" smooth="yes"/>
      <point x="454" y="-10"/>
      <point x="485" y="-3"/>
      <point x="491" y="2" type="curve"/>
      <point x="491" y="121" type="line"/>
      <point x="484" y="118"/>
      <point x="475" y="116"/>
      <point x="467" y="116" type="curve" smooth="yes"/>
      <point x="443" y="116"/>
      <point x="431" y="135"/>
      <point x="431" y="177" type="curve" smooth="yes"/>
      <point x="431" y="329" type="line" smooth="yes"/>
      <point x="431" y="402"/>
      <point x="443" y="488"/>
      <point x="461" y="550" type="curve"/>
      <point x="342" y="550" type="line"/>
      <point x="330" y="534"/>
      <point x="320" y="508"/>
      <point x="311" y="475" type="curve"/>
      <point x="306" y="475" type="line"/>
      <point x="280" y="532"/>
      <point x="246" y="560"/>
      <point x="191" y="560" type="curve" smooth="yes"/>
      <point x="86" y="560"/>
      <point x="20" y="458"/>
      <point x="20" y="268" type="curve" smooth="yes"/>
      <point x="20" y="95"/>
      <point x="75" y="-10"/>
    </contour>
    <contour>
      <point x="227" y="112" type="curve" smooth="yes"/>
      <point x="183" y="112"/>
      <point x="163" y="161"/>
      <point x="163" y="272" type="curve" smooth="yes"/>
      <point x="163" y="381"/>
      <point x="182" y="434"/>
      <point x="227" y="434" type="curve" smooth="yes"/>
      <point x="272" y="434"/>
      <point x="295" y="381"/>
      <point x="295" y="273" type="curve" smooth="yes"/>
      <point x="295" y="267" type="line" smooth="yes"/>
      <point x="295" y="162"/>
      <point x="272" y="112"/>
    </contour>
  </outline>
</glyph>
<glyph name="epsilon" format="2">
  <advance width="500"/>
  <unicode hex="03B5"/>
  <anchor x="266" y="0" name="bottom"/>
  <anchor x="250" y="553" name="top"/>
  <outline>
    <contour>
      <point x="283" y="-10" type="curve" smooth="yes"/>
      <point x="344" y="-10"/>
      <point x="393" y="-1"/>
      <point x="444" y="27" type="curve"/>
      <point x="444" y="154" type="line"/>
      <point x="391" y="122"/>
      <point x="345" y="112"/>
      <point x="300" y="112" type="curve" smooth="yes"/>
      <point x="238" y="112"/>
      <point x="199" y="131"/>
      <point x="199" y="171" type="curve" smooth="yes"/>
      <point x="199" y="207"/>
      <point x="232" y="230"/>
      <point x="320" y="230" type="curve" smooth="yes"/>
      <point x="367" y="230" type="line"/>
      <point x="367" y="337" type="line"/>
      <point x="329" y="337" type="line" smooth="yes"/>
      <point x="260" y="337"/>
      <point x="216" y="350"/>
      <point x="216" y="391" type="curve" smooth="yes"/>
      <point x="216" y="426"/>
      <point x="247" y="440"/>
      <point x="296" y="440" type="curve" smooth="yes"/>
      <point x="337" y="440"/>
      <point x="364" y="430"/>
      <point x="401" y="407" type="curve"/>
      <point x="449" y="517" type="line"/>
      <point x="390" y="549"/>
      <point x="340" y="560"/>
      <point x="286" y="560" type="curve" smooth="yes"/>
      <point x="159" y="560"/>
      <point x="76" y="501"/>
      <point x="76" y="411" type="curve" smooth="yes"/>
      <point x="76" y="341"/>
      <point x="127" y="306"/>
      <point x="157" y="291" type="curve"/>
      <point x="157" y="286" type="line"/>
      <point x="115" y="274"/>
      <point x="52" y="243"/>
      <point x="52" y="151" type="curve" smooth="yes"/>
      <point x="52" y="57"/>
      <point x="118" y="-10"/>
    </contour>
  </outline>
</glyph>
<glyph name="iota" format="2">
  <advance width="500"/>
  <unicode hex="03B9"/>
  <anchor x="313" y="0" name="bottom"/>
  <anchor x="233" y="553" name="top"/>
  <outline>
    <contour>
      <point x="328" y="-10" type="curve" smooth="yes"/>
      <point x="375" y="-10"/>
      <point x="409" y="-1"/>
      <point x="439" y="18" type="curve"/>
      <point x="439" y="136" type="line"/>
      <point x="417" y="124"/>
      <point x="399" y="117"/>
      <point x="372" y="117" type="curve" smooth="yes"/>
      <point x="331" y="117"/>
      <point x="307" y="133"/>
      <point x="307" y="182" type="curve" smooth="yes"/>
      <point x="307" y="553" type="line"/>
      <point x="161" y="553" type="line"/>
      <point x="161" y="166" type="line" smooth="yes"/>
      <point x="161" y="42"/>
      <point x="214" y="-10"/>
    </contour>
  </outline>
</glyph>
<glyph name="mu" format="2">
  <advance width="500"/>
  <unicode hex="03BC"/>
  <anchor x="250" y="-240" name="bottom"/>
  <anchor x="250" y="553" name="top"/>
  <anchor x="450" y="10" name="ogonek"/>
  <anchor x="480" y="553" name="topright"/>
  <outline>
    <contour>
      <point x="30" y="-240" type="line"/>
      <point x="185" y="-240" type="line"/>
      <point x="185" y="268" type="line"/>
      <point x="30" y="268" type="line"/>
    </contour>
    <component base="u"/>
  </outline>
</glyph>
<glyph name="xi" format="2">
  <advance width="500"/>
  <unicode hex="03BE"/>
  <anchor x="283" y="-182" name="bottom"/>
  <anchor x="285" y="760" name="top"/>
  <outline>
    <contour>
      <point x="251" y="-182" type="curve"/>
      <point x="399" y="-182" type="line"/>
      <point x="432" y="-128"/>
      <point x="452" y="-73"/>
      <point x="452" y="-18" type="curve" smooth="yes"/>
      <point x="452" y="83"/>
      <point x="384" y="112"/>
      <point x="343" y="125" type="curve" smooth="yes"/>
      <point x="260" y="151"/>
      <point x="235" y="162"/>
      <point x="235" y="223" type="curve" smooth="yes"/>
      <point x="235" y="301"/>
      <point x="276" y="333"/>
      <point x="357" y="333" type="curve" smooth="yes"/>
      <point x="409" y="333" type="line"/>
      <point x="409" y="455" type="line"/>
      <point x="357" y="455" type="line" smooth="yes"/>
      <point x="287" y="455"/>
      <point x="255" y="478"/>
      <point x="255" y="534" type="curve" smooth="yes"/>
      <point x="255" y="602"/>
      <point x="300" y="638"/>
      <point x="386" y="638" type="curve" smooth="yes"/>
      <point x="435" y="638" type="line"/>
      <point x="435" y="760" type="line"/>
      <point x="108" y="760" type="line"/>
      <point x="108" y="638" type="line"/>
      <point x="142" y="638" type="line" smooth="yes"/>
      <point x="164" y="638"/>
      <point x="183" y="639"/>
      <point x="212" y="643" type="curve"/>
      <point x="152" y="627"/>
      <point x="111" y="582"/>
      <point x="111" y="517" type="curve" smooth="yes"/>
      <point x="111" y="463"/>
      <point x="139" y="415"/>
      <point x="211" y="400" type="curve"/>
      <point x="211" y="396" type="line"/>
      <point x="123" y="362"/>
      <point x="87" y="300"/>
      <point x="87" y="206" type="curve" smooth="yes"/>
      <point x="87" y="80"/>
      <point x="152" y="41"/>
      <point x="238" y="10" type="curve" smooth="yes"/>
      <point x="277" y="-4"/>
      <point x="308" y="-15"/>
      <point x="308" y="-50" type="curve" smooth="yes"/>
      <point x="308" y="-82"/>
      <point x="281" y="-140"/>
    </contour>
  </outline>
</glyph>
<glyph name="sigma" format="2">
  <advance width="500"/>
  <unicode hex="03C3"/>
  <anchor x="250" y="0" name="bottom"/>
  <anchor x="250" y="553" name="top"/>
  <outline>
    <contour>
      <point x="241" y="-10" type="curve" smooth="yes"/>
      <point x="378" y="-10"/>
      <point x="464" y="85"/>
      <point x="464" y="235" type="curve" smooth="yes"/>
      <point x="464" y="316"/>
      <point x="441" y="383"/>
      <point x="398" y="431" type="curve"/>
      <point x="500" y="431" type="line"/>
      <point x="500" y="553" type="line"/>
      <point x="297" y="553" type="line" smooth="yes"/>
      <point x="109" y="553"/>
      <point x="20" y="456"/>
      <point x="20" y="256" type="curve" smooth="yes"/>
      <point x="20" y="90"/>
      <point x="96" y="-10"/>
    </contour>
    <contour>
      <point x="242" y="112" type="curve" smooth="yes"/>
      <point x="195" y="112"/>
      <point x="168" y="156"/>
      <point x="168" y="257" type="curve" smooth="yes"/>
      <point x="168" y="374"/>
      <point x="196" y="431"/>
      <point x="264" y="431" type="curve" smooth="yes"/>
      <point x="276" y="431" type="line"/>
      <point x="303" y="376"/>
      <point x="315" y="320"/>
      <point x="315" y="260" type="curve" smooth="yes"/>
      <point x="315" y="162"/>
      <point x="290" y="112"/>
    </contour>
  </outline>
</glyph>
<glyph name="upsilon" format="2">
  <advance width="500"/>
  <unicode hex="03C5"/>
  <anchor x="247" y="0" name="bottom"/>
  <anchor x="250" y="553" name="top"/>
  <outline>
    <contour>
      <point x="247" y="-9" type="curve" smooth="yes"/>
      <point x="394" y="-9"/>
      <point x="476" y="91"/>
      <point x="476" y="292" type="curve" smooth="yes"/>
      <point x="476" y="381"/>
      <point x="469" y="447"/>
      <point x="446" y="553" type="curve"/>
      <point x="301" y="553" type="line"/>
      <point x="320" y="458"/>
      <point x="330" y="371"/>
      <point x="330" y="291" type="curve" smooth="yes"/>
      <point x="330" y="168"/>
      <point x="306" y="120"/>
      <point x="251" y="120" type="curve" smooth="yes"/>
      <point x="199" y="120"/>
      <point x="181" y="154"/>
      <point x="181" y="232" type="curve" smooth="yes"/>
      <point x="181" y="553" type="line"/>
      <point x="35" y="553" type="line"/>
      <point x="35" y="248" type="line" smooth="yes"/>
      <point x="35" y="70"/>
      <point x="98" y="-9"/>
    </contour>
  </outline>
</glyph>
<glyph name="chi" format="2">
  <advance width="500"/>
  <unicode hex="03C7"/>
  <anchor x="258" y="-245" name="bottom"/>
  <anchor x="258" y="553" name="top"/>
  <anchor x="480" y="553" name="topright"/>
  <outline>
    <contour>
      <point x="425" y="-245" type="curve" smooth="yes"/>
      <point x="451" y="-245"/>
      <point x="476" y="-242"/>
      <point x="495" y="-238" type="curve"/>
      <point x="495" y="-117" type="line"/>
      <point x="482" y="-121"/>
      <point x="470" y="-123"/>
      <point x="455" y="-123" type="curve" smooth="yes"/>
      <point x="415" y="-123"/>
      <point x="406" y="-109"/>
      <point x="377" y="-9" type="curve" smooth="yes"/>
      <point x="326" y="168" type="line"/>
      <point x="493" y="553" type="line"/>
      <point x="350" y="553" type="line"/>
      <point x="271" y="354" type="line"/>
      <point x="257" y="412" type="line" smooth="yes"/>
      <point x="232" y="515"/>
      <point x="197" y="559"/>
      <point x="107" y="559" type="curve" smooth="yes"/>
      <point x="79" y="559"/>
      <point x="51" y="555"/>
      <point x="34" y="550" type="curve"/>
      <point x="34" y="431" type="line"/>
      <point x="44" y="434"/>
      <point x="58" y="437"/>
      <point x="73" y="437" type="curve" smooth="yes"/>
      <point x="106" y="437"/>
      <point x="122" y="423"/>
      <point x="139" y="367" type="curve" smooth="yes"/>
      <point x="196" y="181" type="line"/>
      <point x="5" y="-240" type="line"/>
      <point x="151" y="-240" type="line"/>
      <point x="248" y="-5" type="line"/>
      <point x="266" y="-74" type="line" smooth="yes"/>
      <point x="302" y="-212"/>
      <point x="340" y="-245"/>
    </contour>
  </outline>
</glyph>
<glyph name="uni03DB" format="2">
  <advance width="500"/>
  <unicode hex="03DB"/>
  <anchor x="268" y="-218" name="bottom"/>
  <anchor x="283" y="553" name="top"/>
  <outline>
    <contour>
      <point x="240" y="-220" type="curve" smooth="yes"/>
      <point x="359" y="-220"/>
      <point x="428" y="-150"/>
      <point x="428" y="-39" type="curve" smooth="yes"/>
      <point x="428" y="56"/>
      <point x="378" y="90"/>
      <point x="305" y="120" type="curve" smooth="yes"/>
      <point x="214" y="158"/>
      <point x="193" y="179"/>
      <point x="193" y="280" type="curve" smooth="yes"/>
      <point x="193" y="384"/>
      <point x="228" y="435"/>
      <point x="293" y="435" type="curve" smooth="yes"/>
      <point x="342" y="435"/>
      <point x="369" y="416"/>
      <point x="390" y="404" type="curve"/>
      <point x="428" y="521" type="line"/>
      <point x="387" y="544"/>
      <point x="340" y="560"/>
      <point x="283" y="560" type="curve" smooth="yes"/>
      <point x="129" y="560"/>
      <point x="45" y="463"/>
      <point x="45" y="272" type="curve" smooth="yes"/>
      <point x="45" y="96"/>
      <point x="103" y="51"/>
      <point x="196" y="19" type="curve" smooth="yes"/>
      <point x="263" y="-4"/>
      <point x="285" y="-17"/>
      <point x="285" y="-50" type="curve" smooth="yes"/>
      <point x="285" y="-85"/>
      <point x="263" y="-98"/>
      <point x="222" y="-98" type="curve" smooth="yes"/>
      <point x="189" y="-98"/>
      <point x="164" y="-91"/>
      <point x="139" y="-81" type="curve"/>
      <point x="139" y="-202" type="line"/>
      <point x="162" y="-210"/>
      <point x="200" y="-220"/>
    </contour>
  </outline>
</glyph>
<glyph name="uni03FB" format="2">
  <advance width="500"/>
  <unicode hex="03FB"/>
  <anchor x="250" y="-240" name="bottom"/>
  <anchor x="250" y="553" name="top"/>
  <outline>
    <contour>
      <point x="37" y="-240" type="line"/>
      <point x="148" y="-240" type="line"/>
      <point x="148" y="253" type="line"/>
      <point x="148" y="294"/>
      <point x="148" y="330"/>
      <point x="147" y="375" type="curve"/>
      <point x="211" y="142" type="line"/>
      <point x="280" y="142" type="line"/>
      <point x="342" y="374" type="line"/>
      <point x="341" y="336"/>
      <point x="341" y="306"/>
      <point x="341" y="269" type="curve"/>
      <point x="341" y="0" type="line"/>
      <point x="452" y="0" type="line"/>
      <point x="452" y="552" type="line"/>
      <point x="299" y="552" type="line"/>
      <point x="245" y="355" type="line"/>
      <point x="192" y="552" type="line"/>
      <point x="37" y="552" type="line"/>
    </contour>
  </outline>
</glyph>
<glyph name="afii10051" format="2">
  <advance width="500"/>
  <unicode hex="0402"/>
  <anchor x="250" y="0" name="bottom"/>
  <anchor x="195" y="714" name="top"/>
  <outline>
    <contour>
      <point x="318" y="-10" type="curve" smooth="yes"/>
      <point x="417" y="-10"/>
      <point x="470" y="61"/>
      <point x="470" y="178" type="curve" smooth="yes"/>
      <point x="470" y="276" type="line" smooth="yes"/>
      <point x="470" y="389"/>
      <point x="409" y="461"/>
      <point x="288" y="461" type="curve" smooth="yes"/>
      <point x="227" y="461" type="line"/>
      <point x="227" y="581" type="line"/>
      <point x="403" y="581" type="line"/>
      <point x="403" y="714" type="line"/>
      <point x="0" y="714" type="line"/>
      <point x="0" y="581" type="line"/>
      <point x="74" y="581" type="line"/>
      <point x="74" y="0" type="line"/>
      <point x="227" y="0" type="line"/>
      <point x="227" y="329" type="line"/>
      <point x="267" y="329" type="line" smooth="yes"/>
      <point x="303" y="329"/>
      <point x="318" y="309"/>
      <point x="318" y="252" type="curve" smooth="yes"/>
      <point x="318" y="196" type="line" smooth="yes"/>
      <point x="318" y="137"/>
      <point x="311" y="120"/>
      <point x="285" y="120" type="curve" smooth="yes"/>
      <point x="273" y="120"/>
      <point x="263" y="124"/>
      <point x="255" y="129" type="curve"/>
      <point x="255" y="0" type="line"/>
      <point x="274" y="-6"/>
      <point x="294" y="-10"/>
    </contour>
  </outline>
</glyph>
<glyph name="afii10060" format="2">
  <advance width="500"/>
  <unicode hex="040B"/>
  <anchor x="268" y="0" name="bottom"/>
  <anchor x="190" y="714" name="top"/>
  <outline>
    <contour>
      <point x="64" y="0" type="line"/>
      <point x="217" y="0" type="line"/>
      <point x="217" y="329" type="line"/>
      <point x="267" y="329" type="line" smooth="yes"/>
      <point x="300" y="329"/>
      <point x="317" y="309"/>
      <point x="317" y="266" type="curve" smooth="yes"/>
      <point x="317" y="0" type="line"/>
      <point x="470" y="0" type="line"/>
      <point x="470" y="275" type="line" smooth="yes"/>
      <point x="470" y="388"/>
      <point x="405" y="461"/>
      <point x="288" y="461" type="curve" smooth="yes"/>
      <point x="217" y="461" type="line"/>
      <point x="217" y="581" type="line"/>
      <point x="353" y="581" type="line"/>
      <point x="353" y="714" type="line"/>
      <point x="0" y="714" type="line"/>
      <point x="0" y="581" type="line"/>
      <point x="64" y="581" type="line"/>
    </contour>
  </outline>
</glyph>
<glyph name="afii10145" format="2">
  <advance width="500"/>
  <unicode hex="040F"/>
  <anchor x="250" y="-216" name="bottom"/>
  <anchor x="250" y="714" name="top"/>
  <outline>
    <contour>
      <point x="176" y="-216" type="line"/>
      <point x="324" y="-216" type="line"/>
      <point x="324" y="40" type="line"/>
      <point x="176" y="40" type="line"/>
    </contour>
    <contour>
      <point x="25" y="714" type="line"/>
      <point x="25" y="0" type="line"/>
      <point x="475" y="0" type="line"/>
      <point x="475" y="714" type="line"/>
      <point x="322" y="714" type="line"/>
      <point x="322" y="133" type="line"/>
      <point x="178" y="133" type="line"/>
      <point x="178" y="714" type="line"/>
    </contour>
  </outline>
</glyph>
<glyph name="afii10021" format="2">
  <advance width="500"/>
  <unicode hex="0414"/>
  <anchor x="250" y="-216" name="bottom"/>
  <anchor x="290" y="714" name="top"/>
  <outline>
    <contour>
      <point x="5" y="-216" type="line"/>
      <point x="129" y="-216" type="line"/>
      <point x="129" y="0" type="line"/>
      <point x="366" y="0" type="line"/>
      <point x="366" y="-216" type="line"/>
      <point x="490" y="-216" type="line"/>
      <point x="490" y="123" type="line"/>
      <point x="418" y="123" type="line"/>
      <point x="418" y="714" type="line"/>
      <point x="154" y="714" type="line"/>
      <point x="128" y="493"/>
      <point x="93" y="294"/>
      <point x="49" y="123" type="curve"/>
      <point x="5" y="123" type="line"/>
    </contour>
    <contour>
      <point x="185" y="123" type="line"/>
      <point x="215" y="264"/>
      <point x="241" y="424"/>
      <point x="258" y="585" type="curve"/>
      <point x="290" y="585" type="line"/>
      <point x="290" y="123" type="line"/>
    </contour>
  </outline>
</glyph>
<glyph name="afii10029" format="2">
  <advance width="500"/>
  <unicode hex="041B"/>
  <anchor x="244" y="0" name="bottom"/>
  <anchor x="300" y="714" name="top"/>
  <outline>
    <contour>
      <point x="75" y="-9" type="curve" smooth="yes"/>
      <point x="158" y="-9"/>
      <point x="210" y="27"/>
      <point x="232" y="142" type="curve" smooth="yes"/>
      <point x="248" y="225"/>
      <point x="263" y="423"/>
      <point x="271" y="572" type="curve"/>
      <point x="323" y="572" type="line"/>
      <point x="323" y="0" type="line"/>
      <point x="475" y="0" type="line"/>
      <point x="475" y="714" type="line"/>
      <point x="137" y="714" type="line"/>
      <point x="125" y="520"/>
      <point x="107" y="298"/>
      <point x="98" y="227" type="curve" smooth="yes"/>
      <point x="88" y="148"/>
      <point x="73" y="121"/>
      <point x="42" y="121" type="curve" smooth="yes"/>
      <point x="31" y="121"/>
      <point x="20" y="124"/>
      <point x="7" y="130" type="curve"/>
      <point x="7" y="1" type="line"/>
      <point x="23" y="-5"/>
      <point x="47" y="-9"/>
    </contour>
  </outline>
</glyph>
<glyph name="afii10033" format="2">
  <advance width="500"/>
  <unicode hex="041F"/>
  <anchor x="250" y="0" name="bottom"/>
  <anchor x="480" y="0" name="bottomright"/>
  <anchor x="250" y="714" name="top"/>
  <outline>
    <contour>
      <point x="25" y="0" type="line"/>
      <point x="178" y="0" type="line"/>
      <point x="178" y="581" type="line"/>
      <point x="322" y="581" type="line"/>
      <point x="322" y="0" type="line"/>
      <point x="475" y="0" type="line"/>
      <point x="475" y="714" type="line"/>
      <point x="25" y="714" type="line"/>
    </contour>
  </outline>
</glyph>
<glyph name="afii10041" format="2">
  <advance width="500"/>
  <unicode hex="0427"/>
  <anchor x="250" y="0" name="bottom"/>
  <anchor x="480" y="0" name="bottomright"/>
  <anchor x="250" y="714" name="top"/>
  <outline>
    <contour>
      <point x="323" y="0" type="line"/>
      <point x="475" y="0" type="line"/>
      <point x="475" y="714" type="line"/>
      <point x="323" y="714" type="line"/>
      <point x="323" y="382" type="line"/>
      <point x="300" y="367"/>
      <point x="279" y="359"/>
      <point x="248" y="359" type="curve" smooth="yes"/>
      <point x="200" y="359"/>
      <point x="178" y="384"/>
      <point x="178" y="457" type="curve" smooth="yes"/>
      <point x="178" y="714" type="line"/>
      <point x="25" y="714" type="line"/>
      <point x="25" y="411" type="line" smooth="yes"/>
      <point x="25" y="291"/>
      <point x="87" y="229"/>
      <point x="190" y="229" type="curve" smooth="yes"/>
      <point x="238" y="229"/>
      <point x="281" y="241"/>
      <point x="323" y="264" type="curve"/>
    </contour>
  </outline>
</glyph>
<glyph name="afii10076" format="2">
  <advance width="500"/>
  <unicode hex="043A"/>
  <anchor x="259" y="0" name="bottom"/>
  <anchor x="480" y="0" name="bottomright"/>
  <anchor x="260" y="553" name="top"/>
  <outline>
    <contour>
      <point x="35" y="0" type="line"/>
      <point x="181" y="0" type="line"/>
      <point x="181" y="280" type="line"/>
      <point x="335" y="0" type="line"/>
      <point x="495" y="0" type="line"/>
      <point x="325" y="287" type="line"/>
      <point x="483" y="553" type="line"/>
      <point x="327" y="553" type="line"/>
      <point x="181" y="284" type="line"/>
      <point x="181" y="553" type="line"/>
      <point x="35" y="553" type="line"/>
    </contour>
  </outline>
</glyph>
<glyph name="afii10077" format="2">
  <advance width="500"/>
  <unicode hex="043B"/>
  <anchor x="278" y="0" name="bottom"/>
  <anchor x="283" y="553" name="top"/>
  <outline>
    <contour>
      <point x="77" y="-9" type="curve" smooth="yes"/>
      <point x="196" y="-9"/>
      <point x="226" y="104"/>
      <point x="247" y="425" type="curve"/>
      <point x="319" y="425" type="line"/>
      <point x="319" y="0" type="line"/>
      <point x="465" y="0" type="line"/>
      <point x="465" y="553" type="line"/>
      <point x="113" y="553" type="line"/>
      <point x="99" y="250"/>
      <point x="82" y="117"/>
      <point x="38" y="117" type="curve" smooth="yes"/>
      <point x="26" y="117"/>
      <point x="15" y="120"/>
      <point x="8" y="126" type="curve"/>
      <point x="8" y="4" type="line"/>
      <point x="28" y="-4"/>
      <point x="51" y="-9"/>
    </contour>
  </outline>
</glyph>
<glyph name="afii10086" format="2">
  <advance width="500"/>
  <unicode hex="0444"/>
  <anchor x="250" y="-240" name="bottom"/>
  <anchor x="250" y="760" name="top"/>
  <outline>
    <contour>
      <point x="190" y="-240" type="line"/>
      <point x="311" y="-240" type="line"/>
      <point x="311" y="-2" type="line"/>
      <point x="425" y="12"/>
      <point x="486" y="114"/>
      <point x="486" y="272" type="curve" smooth="yes"/>
      <point x="486" y="429"/>
      <point x="425" y="539"/>
      <point x="311" y="551" type="curve"/>
      <point x="311" y="760" type="line"/>
      <point x="188" y="760" type="line"/>
      <point x="188" y="551" type="line"/>
      <point x="73" y="539"/>
      <point x="13" y="436"/>
      <point x="13" y="280" type="curve" smooth="yes"/>
      <point x="13" y="109"/>
      <point x="85" y="11"/>
      <point x="190" y="-2" type="curve"/>
    </contour>
    <contour>
      <point x="188" y="121" type="line"/>
      <point x="162" y="123"/>
      <point x="143" y="187"/>
      <point x="143" y="274" type="curve" smooth="yes"/>
      <point x="143" y="363"/>
      <point x="163" y="425"/>
      <point x="188" y="429" type="curve"/>
    </contour>
    <contour>
      <point x="311" y="121" type="curve"/>
      <point x="311" y="429" type="line"/>
      <point x="339" y="425"/>
      <point x="356" y="364"/>
      <point x="356" y="276" type="curve" smooth="yes"/>
      <point x="356" y="188"/>
      <point x="339" y="123"/>
    </contour>
  </outline>
</glyph>
<glyph name="afii10097" format="2">
  <advance width="500"/>
  <unicode hex="044F"/>
  <anchor x="250" y="0" name="bottom"/>
  <anchor x="283" y="553" name="top"/>
  <outline>
    <contour>
      <point x="25" y="0" type="line"/>
      <point x="180" y="0" type="line"/>
      <point x="268" y="198" type="line"/>
      <point x="319" y="198" type="line"/>
      <point x="319" y="0" type="line"/>
      <point x="465" y="0" type="line"/>
      <point x="465" y="553" type="line"/>
      <point x="242" y="553" type="line" smooth="yes"/>
      <point x="127" y="553"/>
      <point x="60" y="487"/>
      <point x="60" y="377" type="curve" smooth="yes"/>
      <point x="60" y="300"/>
      <point x="88" y="241"/>
      <point x="140" y="218" type="curve"/>
    </contour>
    <contour>
      <point x="268" y="307" type="line" smooth="yes"/>
      <point x="228" y="307"/>
      <point x="206" y="332"/>
      <point x="206" y="372" type="curve" smooth="yes"/>
      <point x="206" y="414"/>
      <point x="228" y="441"/>
      <point x="268" y="441" type="curve" smooth="yes"/>
      <point x="319" y="441" type="line"/>
      <point x="319" y="307" type="line"/>
    </contour>
  </outline>
</glyph>
<glyph name="afii10193" format="2">
  <advance width="500"/>
  <unicode hex="045F"/>
  <anchor x="250" y="-200" name="bottom"/>
  <anchor x="250" y="553" name="top"/>
  <outline>
    <contour>
      <point x="180" y="-200" type="line"/>
      <point x="321" y="-200" type="line"/>
      <point x="321" y="30" type="line"/>
      <point x="180" y="30" type="line"/>
    </contour>
    <contour>
      <point x="35" y="553" type="line"/>
      <point x="35" y="0" type="line"/>
      <point x="465" y="0" type="line"/>
      <point x="465" y="553" type="line"/>
      <point x="319" y="553" type="line"/>
      <point x="319" y="125" type="line"/>
      <point x="181" y="125" type="line"/>
      <point x="181" y="553" type="line"/>
    </contour>
  </outline>
</glyph>
<glyph name="uni0468" format="2">
  <advance width="500"/>
  <unicode hex="0468"/>
  <anchor x="362" y="0" name="bottom"/>
  <anchor x="362" y="714" name="top"/>
  <outline>
    <contour>
      <point x="-215" y="0" type="line"/>
      <point x="-55" y="0" type="line"/>
      <point x="-55" y="297" type="line"/>
      <point x="111" y="297" type="line"/>
      <point x="12" y="0" type="line"/>
      <point x="182" y="0" type="line"/>
      <point x="263" y="271" type="line"/>
      <point x="285" y="271" type="line"/>
      <point x="285" y="0" type="line"/>
      <point x="439" y="0" type="line"/>
      <point x="439" y="271" type="line"/>
      <point x="461" y="271" type="line"/>
      <point x="546" y="0" type="line"/>
      <point x="715" y="0" type="line"/>
      <point x="476" y="714" type="line"/>
      <point x="251" y="714" type="line"/>
      <point x="160" y="443" type="line"/>
      <point x="-55" y="443" type="line"/>
      <point x="-55" y="714" type="line"/>
      <point x="-215" y="714" type="line"/>
    </contour>
    <contour>
      <point x="304" y="406" type="line"/>
      <point x="347" y="545" type="line" smooth="yes"/>
      <point x="353" y="563"/>
      <point x="358" y="582"/>
      <point x="362" y="601" type="curve"/>
      <point x="366" y="583"/>
      <point x="372" y="561"/>
      <point x="377" y="544" type="curve" smooth="yes"/>
      <point x="420" y="406" type="line"/>
    </contour>
  </outline>
</glyph>
<glyph name="uni0469" format="2">
  <advance width="500"/>
  <unicode hex="0469"/>
  <anchor x="324" y="0" name="bottom"/>
  <anchor x="324" y="553" name="top"/>
  <outline>
    <contour>
      <point x="19" y="0" type="line"/>
      <point x="127" y="0" type="line"/>
      <point x="127" y="229" type="line"/>
      <point x="189" y="229" type="line"/>
      <point x="145" y="0" type="line"/>
      <point x="251" y="0" type="line"/>
      <point x="276" y="189" type="line"/>
      <point x="283" y="189" type="line"/>
      <point x="276" y="0" type="line"/>
      <point x="371" y="0" type="line"/>
      <point x="364" y="189" type="line"/>
      <point x="370" y="189" type="line"/>
      <point x="395" y="0" type="line"/>
      <point x="503" y="0" type="line"/>
      <point x="398" y="553" type="line"/>
      <point x="251" y="553" type="line"/>
      <point x="210" y="337" type="line"/>
      <point x="127" y="337" type="line"/>
      <point x="127" y="553" type="line"/>
      <point x="19" y="553" type="line"/>
    </contour>
    <contour>
      <point x="298" y="298" type="line"/>
      <point x="313" y="391" type="line" smooth="yes"/>
      <point x="316" y="408"/>
      <point x="319" y="426"/>
      <point x="322" y="453" type="curve"/>
      <point x="324" y="453" type="line"/>
      <point x="327" y="426"/>
      <point x="330" y="409"/>
      <point x="333" y="392" type="curve" smooth="yes"/>
      <point x="349" y="298" type="line"/>
    </contour>
  </outline>
</glyph>
<glyph name="uni046D" format="2">
  <advance width="500"/>
  <unicode hex="046D"/>
  <anchor x="365" y="0" name="bottom"/>
  <anchor x="365" y="553" name="top"/>
  <outline>
    <contour>
      <point x="-201" y="0" type="line"/>
      <point x="-47" y="0" type="line"/>
      <point x="-47" y="218" type="line"/>
      <point x="105" y="218" type="line"/>
      <point x="95" y="204"/>
      <point x="85" y="183"/>
      <point x="81" y="169" type="curve" smooth="yes"/>
      <point x="33" y="0" type="line"/>
      <point x="196" y="0" type="line"/>
      <point x="233" y="154" type="line" smooth="yes"/>
      <point x="246" y="207"/>
      <point x="260" y="218"/>
      <point x="289" y="218" type="curve"/>
      <point x="289" y="0" type="line"/>
      <point x="433" y="0" type="line"/>
      <point x="433" y="218" type="line"/>
      <point x="465" y="216"/>
      <point x="477" y="202"/>
      <point x="489" y="153" type="curve" smooth="yes"/>
      <point x="526" y="0" type="line"/>
      <point x="701" y="0" type="line"/>
      <point x="648" y="182" type="line" smooth="yes"/>
      <point x="624" y="266"/>
      <point x="588" y="312"/>
      <point x="513" y="327" type="curve"/>
      <point x="629" y="470" type="line"/>
      <point x="629" y="553" type="line"/>
      <point x="99" y="553" type="line"/>
      <point x="99" y="470" type="line"/>
      <point x="195" y="348" type="line"/>
      <point x="-47" y="348" type="line"/>
      <point x="-47" y="553" type="line"/>
      <point x="-201" y="553" type="line"/>
    </contour>
    <contour>
      <point x="364" y="330" type="line"/>
      <point x="287" y="441" type="line"/>
      <point x="441" y="441" type="line"/>
    </contour>
  </outline>
</glyph>
<glyph name="uni046F" format="2">
  <advance width="500"/>
  <unicode hex="046F"/>
  <anchor x="250" y="-241" name="bottom"/>
  <anchor x="250" y="671" name="top"/>
  <outline>
    <contour>
      <point x="412" y="-241" type="curve"/>
      <point x="412" y="-105" type="line"/>
      <point x="397" y="-91"/>
      <point x="376" y="-84"/>
      <point x="347" y="-84" type="curve" smooth="yes"/>
      <point x="310" y="-84"/>
      <point x="277" y="-89"/>
      <point x="236" y="-89" type="curve" smooth="yes"/>
      <point x="201" y="-89"/>
      <point x="179" y="-79"/>
      <point x="179" y="-48" type="curve" smooth="yes"/>
      <point x="179" y="-17"/>
      <point x="197" y="-4"/>
      <point x="256" y="-1" type="curve" smooth="yes"/>
      <point x="397" y="6"/>
      <point x="450" y="65"/>
      <point x="450" y="156" type="curve" smooth="yes"/>
      <point x="450" y="230"/>
      <point x="405" y="277"/>
      <point x="336" y="286" type="curve"/>
      <point x="336" y="291" type="line"/>
      <point x="390" y="307"/>
      <point x="426" y="353"/>
      <point x="426" y="417" type="curve" smooth="yes"/>
      <point x="426" y="480"/>
      <point x="394" y="525"/>
      <point x="335" y="546" type="curve"/>
      <point x="350" y="567"/>
      <point x="370" y="583"/>
      <point x="400" y="583" type="curve" smooth="yes"/>
      <point x="414" y="583"/>
      <point x="424" y="580"/>
      <point x="431" y="577" type="curve"/>
      <point x="431" y="662" type="line"/>
      <point x="417" y="667"/>
      <point x="400" y="671"/>
      <point x="376" y="671" type="curve" smooth="yes"/>
      <point x="310" y="671"/>
      <point x="269" y="627"/>
      <point x="238" y="585" type="curve"/>
      <point x="210" y="617"/>
      <point x="184" y="643"/>
      <point x="163" y="660" type="curve"/>
      <point x="53" y="660" type="line"/>
      <point x="53" y="646" type="line"/>
      <point x="75" y="624"/>
      <point x="108" y="588"/>
      <point x="136" y="547" type="curve"/>
      <point x="111" y="540"/>
      <point x="85" y="530"/>
      <point x="59" y="517" type="curve"/>
      <point x="109" y="407" type="line"/>
      <point x="145" y="429"/>
      <point x="179" y="441"/>
      <point x="217" y="441" type="curve" smooth="yes"/>
      <point x="260" y="441"/>
      <point x="285" y="427"/>
      <point x="285" y="391" type="curve" smooth="yes"/>
      <point x="285" y="353"/>
      <point x="251" y="337"/>
      <point x="195" y="337" type="curve" smooth="yes"/>
      <point x="140" y="337" type="line"/>
      <point x="140" y="230" type="line"/>
      <point x="197" y="230" type="line" smooth="yes"/>
      <point x="269" y="230"/>
      <point x="303" y="213"/>
      <point x="303" y="170" type="curve" smooth="yes"/>
      <point x="303" y="127"/>
      <point x="266" y="115"/>
      <point x="197" y="114" type="curve" smooth="yes"/>
      <point x="83" y="112"/>
      <point x="13" y="58"/>
      <point x="13" y="-50" type="curve" smooth="yes"/>
      <point x="13" y="-164"/>
      <point x="85" y="-225"/>
      <point x="212" y="-225" type="curve" smooth="yes"/>
      <point x="246" y="-225"/>
      <point x="312" y="-220"/>
      <point x="347" y="-220" type="curve" smooth="yes"/>
      <point x="375" y="-220"/>
      <point x="403" y="-229"/>
    </contour>
  </outline>
</glyph>
<glyph name="uni047A" format="2">
  <advance width="500"/>
  <unicode hex="047A"/>
  <outline>
    <contour>
      <point x="249" y="-7" type="curve" smooth="yes"/>
      <point x="412" y="-7"/>
      <point x="485" y="124"/>
      <point x="485" y="360" type="curve" smooth="yes"/>
      <point x="485" y="595"/>
      <point x="412" y="725"/>
      <point x="249" y="725" type="curve" smooth="yes"/>
      <point x="81" y="725"/>
      <point x="15" y="588"/>
      <point x="15" y="360" type="curve" smooth="yes"/>
      <point x="15" y="123"/>
      <point x="87" y="-7"/>
    </contour>
    <contour>
      <point x="252" y="115" type="curve" smooth="yes"/>
      <point x="172" y="115"/>
      <point x="151" y="212"/>
      <point x="151" y="360" type="curve" smooth="yes"/>
      <point x="151" y="508"/>
      <point x="172" y="602"/>
      <point x="251" y="602" type="curve" smooth="yes"/>
      <point x="330" y="602"/>
      <point x="349" y="508"/>
      <point x="349" y="358" type="curve" smooth="yes"/>
      <point x="349" y="215"/>
      <point x="334" y="115"/>
    </contour>
    <contour>
      <point x="250" y="510" type="curve" smooth="yes"/>
      <point x="297" y="510"/>
      <point x="313" y="567"/>
      <point x="313" y="638" type="curve" smooth="yes"/>
      <point x="313" y="709"/>
      <point x="297" y="766"/>
      <point x="250" y="766" type="curve" smooth="yes"/>
      <point x="202" y="766"/>
      <point x="187" y="709"/>
      <point x="187" y="638" type="curve" smooth="yes"/>
      <point x="187" y="567"/>
      <point x="202" y="510"/>
    </contour>
    <contour>
      <point x="250" y="-55" type="curve" smooth="yes"/>
      <point x="297" y="-55"/>
      <point x="313" y="2"/>
      <point x="313" y="73" type="curve" smooth="yes"/>
      <point x="313" y="144"/>
      <point x="297" y="201"/>
      <point x="250" y="201" type="curve" smooth="yes"/>
      <point x="202" y="201"/>
      <point x="187" y="144"/>
      <point x="187" y="73" type="curve" smooth="yes"/>
      <point x="187" y="2"/>
      <point x="202" y="-55"/>
    </contour>
  </outline>
</glyph>
<glyph name="uni047C" format="2">
  <advance width="500"/>
  <unicode hex="047C"/>
  <outline>
    <contour>
      <point x="89" y="945" type="line"/>
      <point x="186" y="945" type="line"/>
      <point x="186" y="977"/>
      <point x="197" y="997"/>
      <point x="217" y="997" type="curve" smooth="yes"/>
      <point x="234" y="997"/>
      <point x="327" y="945"/>
      <point x="401" y="945" type="curve" smooth="yes"/>
      <point x="407" y="945" type="line"/>
      <point x="407" y="1056" type="line"/>
      <point x="397" y="1056" type="line"/>
      <point x="318" y="1056"/>
      <point x="267" y="1116"/>
      <point x="200" y="1116" type="curve" smooth="yes"/>
      <point x="131" y="1116"/>
      <point x="89" y="1080"/>
      <point x="89" y="975" type="curve" smooth="yes"/>
    </contour>
    <contour>
      <point x="191" y="729" type="line"/>
      <point x="291" y="732"/>
      <point x="329" y="773"/>
      <point x="329" y="841" type="curve" smooth="yes"/>
      <point x="329" y="898"/>
      <point x="300" y="932"/>
      <point x="251" y="932" type="curve" smooth="yes"/>
      <point x="208" y="932"/>
      <point x="182" y="909"/>
      <point x="182" y="873" type="curve" smooth="yes"/>
      <point x="182" y="821"/>
      <point x="243" y="844"/>
      <point x="243" y="807" type="curve" smooth="yes"/>
      <point x="243" y="794"/>
      <point x="232" y="783"/>
      <point x="191" y="783" type="curve"/>
    </contour>
    <component base="uniA64C"/>
  </outline>
</glyph>
<glyph name="uni0481" format="2">
  <advance width="500"/>
  <unicode hex="0481"/>
  <anchor x="329" y="-240" name="bottom"/>
  <anchor x="299" y="553" name="top"/>
  <outline>
    <contour>
      <point x="256" y="-240" type="line"/>
      <point x="393" y="-240" type="line"/>
      <point x="393" y="138" type="line"/>
      <point x="372" y="131"/>
      <point x="350" y="128"/>
      <point x="329" y="128" type="curve" smooth="yes"/>
      <point x="250" y="128"/>
      <point x="205" y="172"/>
      <point x="205" y="278" type="curve" smooth="yes"/>
      <point x="205" y="370"/>
      <point x="239" y="423"/>
      <point x="326" y="423" type="curve" smooth="yes"/>
      <point x="357" y="423"/>
      <point x="387" y="416"/>
      <point x="422" y="393" type="curve"/>
      <point x="465" y="521" type="line"/>
      <point x="419" y="549"/>
      <point x="361" y="563"/>
      <point x="301" y="563" type="curve" smooth="yes"/>
      <point x="118" y="563"/>
      <point x="45" y="435"/>
      <point x="45" y="275" type="curve" smooth="yes"/>
      <point x="45" y="102"/>
      <point x="131" y="13"/>
      <point x="256" y="-6" type="curve"/>
    </contour>
  </outline>
</glyph>
<glyph name="uni0482" format="2">
  <advance width="500"/>
  <unicode hex="0482"/>
  <outline>
    <contour>
      <point x="184" y="-13" type="line"/>
      <point x="237" y="112" type="line"/>
      <point x="341" y="67" type="line"/>
      <point x="391" y="181" type="line"/>
      <point x="286" y="228" type="line"/>
      <point x="343" y="362" type="line"/>
      <point x="445" y="317" type="line"/>
      <point x="496" y="432" type="line"/>
      <point x="391" y="477" type="line"/>
      <point x="441" y="596" type="line"/>
      <point x="322" y="647" type="line"/>
      <point x="271" y="528" type="line"/>
      <point x="159" y="577" type="line"/>
      <point x="109" y="462" type="line"/>
      <point x="222" y="413" type="line"/>
      <point x="168" y="278" type="line"/>
      <point x="54" y="327" type="line"/>
      <point x="4" y="213" type="line"/>
      <point x="117" y="163" type="line"/>
      <point x="64" y="38" type="line"/>
    </contour>
  </outline>
</glyph>
<glyph name="uni0489" format="2">
  <unicode hex="0489"/>
  <outline>
    <contour>
      <point x="202" y="449" type="line"/>
      <point x="238" y="477"/>
      <point x="287" y="509"/>
      <point x="347" y="546" type="curve"/>
      <point x="290" y="602" type="line"/>
      <point x="250" y="588"/>
      <point x="170" y="550"/>
      <point x="132" y="529" type="curve"/>
      <point x="131" y="520" type="line"/>
    </contour>
    <contour>
      <point x="-291" y="-63" type="line"/>
      <point x="-232" y="-41"/>
      <point x="-180" y="-17"/>
      <point x="-133" y="11" type="curve"/>
      <point x="-131" y="20" type="line"/>
      <point x="-203" y="90" type="line"/>
      <point x="-236" y="64"/>
      <point x="-285" y="32"/>
      <point x="-348" y="-6" type="curve"/>
    </contour>
    <contour>
      <point x="-260" y="198" type="curve"/>
      <point x="-253" y="203" type="line"/>
      <point x="-253" y="303" type="line"/>
      <point x="-295" y="309"/>
      <point x="-353" y="320"/>
      <point x="-424" y="337" type="curve"/>
      <point x="-424" y="257" type="line"/>
      <point x="-368" y="231"/>
      <point x="-313" y="211"/>
    </contour>
    <contour>
      <point x="-68" y="-188" type="curve"/>
      <point x="12" y="-188" type="line"/>
      <point x="38" y="-131"/>
      <point x="58" y="-77"/>
      <point x="72" y="-24" type="curve"/>
      <point x="67" y="-17" type="line"/>
      <point x="-34" y="-17" type="line"/>
      <point x="-39" y="-59"/>
      <point x="-51" y="-116"/>
    </contour>
    <contour>
      <point x="251" y="-101" type="curve"/>
      <point x="307" y="-45" type="line"/>
      <point x="292" y="-5"/>
      <point x="255" y="75"/>
      <point x="234" y="113" type="curve"/>
      <point x="225" y="114" type="line"/>
      <point x="155" y="43" type="line"/>
      <point x="183" y="7"/>
      <point x="215" y="-41"/>
    </contour>
    <contour>
      <point x="-227" y="425" type="line"/>
      <point x="-156" y="497" type="line"/>
      <point x="-182" y="530"/>
      <point x="-214" y="579"/>
      <point x="-252" y="642" type="curve"/>
      <point x="-309" y="585" type="line"/>
      <point x="-287" y="526"/>
      <point x="-263" y="474"/>
      <point x="-235" y="427" type="curve"/>
    </contour>
    <contour>
      <point x="423" y="203" type="curve"/>
      <point x="423" y="282" type="line"/>
      <point x="385" y="301"/>
      <point x="301" y="330"/>
      <point x="259" y="342" type="curve"/>
      <point x="252" y="336" type="line"/>
      <point x="252" y="237" type="line"/>
      <point x="298" y="230"/>
      <point x="354" y="219"/>
    </contour>
    <contour>
      <point x="-67" y="557" type="line"/>
      <point x="33" y="557" type="line"/>
      <point x="40" y="603"/>
      <point x="51" y="659"/>
      <point x="67" y="728" type="curve"/>
      <point x="-12" y="728" type="line"/>
      <point x="-31" y="689"/>
      <point x="-61" y="606"/>
      <point x="-72" y="564" type="curve"/>
    </contour>
  </outline>
</glyph>
<glyph name="uni048F" format="2">
  <advance width="500"/>
  <unicode hex="048F"/>
  <anchor x="250" y="-240" name="bottom"/>
  <anchor x="250" y="553" name="top"/>
  <anchor x="480" y="553" name="topright"/>
  <outline>
    <contour>
      <point x="325" y="-117" type="line"/>
      <point x="400" y="-92" type="line"/>
      <point x="282" y="258" type="line"/>
      <point x="207" y="233" type="line"/>
    </contour>
    <component base="p"/>
  </outline>
</glyph>
<glyph name="afii10098" format="2">
  <advance width="500"/>
  <unicode hex="0491"/>
  <anchor x="250" y="0" name="bottom"/>
  <anchor x="250" y="696" name="top"/>
  <anchor x="480" y="0" name="bottomright"/>
  <outline>
    <contour>
      <point x="280" y="428" type="line"/>
      <point x="422" y="428" type="line"/>
      <point x="422" y="696" type="line"/>
      <point x="280" y="696" type="line"/>
    </contour>
    <component base="afii10068"/>
  </outline>
</glyph>
<glyph name="uni0493" format="2">
  <advance width="500"/>
  <unicode hex="0493"/>
  <anchor x="250" y="0" name="bottom"/>
  <anchor x="250" y="553" name="top"/>
  <anchor x="480" y="0" name="bottomright"/>
  <outline>
    <contour>
      <point x="58" y="187" type="line"/>
      <point x="368" y="187" type="line"/>
      <point x="368" y="320" type="line"/>
      <point x="58" y="320" type="line"/>
    </contour>
    <component base="afii10068"/>
  </outline>
</glyph>
<glyph name="uni049D" format="2">
  <advance width="500"/>
  <unicode hex="049D"/>
  <anchor x="250" y="0" name="bottom"/>
  <anchor x="250" y="553" name="top"/>
  <anchor x="480" y="0" name="bottomright"/>
  <outline>
    <contour>
      <point x="219" y="18" type="line"/>
      <point x="270" y="18" type="line"/>
      <point x="270" y="524" type="line"/>
      <point x="219" y="524" type="line"/>
    </contour>
    <component base="afii10076"/>
  </outline>
</glyph>
<glyph name="uni04A2" format="2">
  <advance width="500"/>
  <unicode hex="04A2"/>
  <anchor x="246" y="-199" name="bottom"/>
  <anchor x="246" y="714" name="top"/>
  <outline>
    <contour>
      <point x="345" y="-222" type="line"/>
      <point x="495" y="-222" type="line"/>
      <point x="495" y="136" type="line"/>
      <point x="447" y="136" type="line"/>
      <point x="447" y="714" type="line"/>
      <point x="283" y="714" type="line"/>
      <point x="283" y="438" type="line"/>
      <point x="203" y="438" type="line"/>
      <point x="203" y="714" type="line"/>
      <point x="39" y="714" type="line"/>
      <point x="39" y="0" type="line"/>
      <point x="203" y="0" type="line"/>
      <point x="203" y="301" type="line"/>
      <point x="283" y="301" type="line"/>
      <point x="283" y="0" type="line"/>
      <point x="345" y="0" type="line"/>
    </contour>
  </outline>
</glyph>
<glyph name="uni04A3" format="2">
  <advance width="500"/>
  <unicode hex="04A3"/>
  <anchor x="250" y="-199" name="bottom"/>
  <anchor x="250" y="553" name="top"/>
  <outline>
    <contour>
      <point x="343" y="-203" type="line"/>
      <point x="484" y="-203" type="line"/>
      <point x="484" y="135" type="line"/>
      <point x="447" y="135" type="line"/>
      <point x="447" y="553" type="line"/>
      <point x="301" y="553" type="line"/>
      <point x="301" y="344" type="line"/>
      <point x="181" y="344" type="line"/>
      <point x="181" y="553" type="line"/>
      <point x="35" y="553" type="line"/>
      <point x="35" y="0" type="line"/>
      <point x="181" y="0" type="line"/>
      <point x="181" y="221" type="line"/>
      <point x="301" y="221" type="line"/>
      <point x="301" y="0" type="line"/>
      <point x="343" y="0" type="line"/>
    </contour>
  </outline>
</glyph>
<glyph name="uni04A4" format="2">
  <advance width="500"/>
  <unicode hex="04A4"/>
  <anchor x="222" y="0" name="bottom"/>
  <anchor x="224" y="714" name="top"/>
  <outline>
    <contour>
      <point x="25" y="0" type="line"/>
      <point x="178" y="0" type="line"/>
      <point x="178" y="298" type="line"/>
      <point x="267" y="298" type="line"/>
      <point x="267" y="0" type="line"/>
      <point x="420" y="0" type="line"/>
      <point x="420" y="577" type="line"/>
      <point x="498" y="577" type="line"/>
      <point x="498" y="714" type="line"/>
      <point x="267" y="714" type="line"/>
      <point x="267" y="438" type="line"/>
      <point x="178" y="438" type="line"/>
      <point x="178" y="714" type="line"/>
      <point x="25" y="714" type="line"/>
    </contour>
  </outline>
</glyph>
